<?xml version="1.0" encoding="utf-8"?>
<!-- Generator: Adobe Illustrator 25.2.3, SVG Export Plug-In . SVG Version: 6.00 Build 0)  -->
<svg version="1.1" id="Layer_1" xmlns="http://www.w3.org/2000/svg" xmlns:xlink="http://www.w3.org/1999/xlink" x="0px" y="0px"
	 viewBox="0 0 855 127.2" style="enable-background:new 0 0 855 127.2;" xml:space="preserve">
<style type="text/css">
	.st0{fill:#0D287B;}
</style>
<g>
	<polygon class="st0" points="642.5,0 642.5,22.1 679.9,22.1 679.9,127.2 703.4,127.2 703.4,22.1 740.7,22.1 740.7,0 	"/>
	<rect x="605.2" class="st0" width="22.6" height="126.8"/>
	<polygon class="st0" points="552.6,0 553.6,124.9 553.6,124.9 511.6,0 465.1,0 465.1,127.2 488.6,127.2 487.6,2.3 487.6,2.3 
		529.6,127.2 575.7,127.2 575.7,0 	"/>
	<polygon class="st0" points="121.7,0 121.7,127.2 204.2,127.2 204.2,105.1 145.2,105.1 145.2,71 204.2,71 204.2,52.5 145.2,52.5 
		145.2,22.1 204.2,22.1 204.2,0 	"/>
	<polygon class="st0" points="224.9,0 264.1,83.4 244.3,127.2 269.6,127.2 330,0 304.2,0 277.5,59.5 250.7,0 	"/>
	<polygon class="st0" points="749.9,0 789.5,83.4 769.3,127.2 794.6,127.2 855,0 829.2,0 802.5,59.5 775.7,0 	"/>
	<g>
		<path class="st0" d="M93.6,39.6c0-0.9,0-2.3,0-3.2c0-0.9,0-2.3,0-3.2C91.7,14.7,76.1,0,57.2,0H0v126.8h57.2
			c18.9,0,34.6-14.7,36.4-33.2c0-0.9,0-2.3,0-3.2s0-2.3,0-3.2c-0.9-9.2-5.1-18-11.5-24C88,57.6,92.6,49.3,93.6,39.6 M53,105.1H22.1
			V73.3H53c8.8,0,15.7,6.9,15.7,15.7C69.1,97.7,61.8,105.1,53,105.1 M53,53.9H22.6V22.1h30.9c8.8,0,15.7,6.9,15.7,15.7
			S61.8,53.9,53,53.9"/>
		<path class="st0" d="M400.5,0.5c-4.1,1.8-9.2,4.1-12.9,8.3c10.6,11.5,20.3,32.3,20.3,54.8s-9.7,43.3-20.3,54.8
			c3.7,4.1,8.8,6.5,12.9,8.3c19.4-4.1,34.1-30.9,34.1-62.7C434.6,31.3,419.9,4.6,400.5,0.5"/>
		<path class="st0" d="M393.6,0H365c-17.5,6.5-30.9,31.8-31.3,63.1v0.9c0,30.9,13.4,56.7,31.3,63.1h28.6
			c-18-6.5-31.3-32.3-31.3-63.6S375.6,6.5,393.6,0"/>
	</g>
</g>
</svg>
