<?xml version="1.0" encoding="utf-8"?>
<!-- Generator: Adobe Illustrator 25.2.3, SVG Export Plug-In . SVG Version: 6.00 Build 0)  -->
<svg version="1.1" id="Layer_1" xmlns="http://www.w3.org/2000/svg" xmlns:xlink="http://www.w3.org/1999/xlink" x="0px" y="0px"
	 viewBox="0 0 185.5 27.6" style="enable-background:new 0 0 185.5 27.6;" xml:space="preserve">
<style type="text/css">
	.st0{fill:#FFFFFF;}
</style>
<g>
	<polygon class="st0" points="139.4,0 139.4,4.8 147.5,4.8 147.5,27.6 152.6,27.6 152.6,4.8 160.7,4.8 160.7,0 	"/>
	<rect x="131.3" y="0" class="st0" width="4.9" height="27.5"/>
	<polygon class="st0" points="119.9,0 120.1,27.1 120.1,27.1 111,0 100.9,0 100.9,27.6 106,27.6 105.8,0.5 105.8,0.5 114.9,27.6 
		124.9,27.6 124.9,0 	"/>
	<polygon class="st0" points="26.4,0 26.4,27.6 44.3,27.6 44.3,22.8 31.5,22.8 31.5,15.4 44.3,15.4 44.3,11.4 31.5,11.4 31.5,4.8 
		44.3,4.8 44.3,0 	"/>
	<polygon class="st0" points="48.8,0 57.3,18.1 53,27.6 58.5,27.6 71.6,0 66,0 60.2,12.9 54.4,0 	"/>
	<polygon class="st0" points="162.7,0 171.3,18.1 166.9,27.6 172.4,27.6 185.5,0 179.9,0 174.1,12.9 168.3,0 	"/>
	<g>
		<path class="st0" d="M20.3,8.6c0-0.2,0-0.5,0-0.7c0-0.2,0-0.5,0-0.7C19.9,3.2,16.5,0,12.4,0L0,0v27.5h12.4c4.1,0,7.5-3.2,7.9-7.2
			c0-0.2,0-0.5,0-0.7c0-0.2,0-0.5,0-0.7c-0.2-2-1.1-3.9-2.5-5.2C19.1,12.5,20.1,10.7,20.3,8.6 M11.5,22.8l-6.7,0v-6.9h6.7
			c1.9,0,3.4,1.5,3.4,3.4C15,21.2,13.4,22.8,11.5,22.8 M11.5,11.7H4.9V4.8l6.7,0c1.9,0,3.4,1.5,3.4,3.4C15,10.1,13.4,11.7,11.5,11.7
			"/>
		<path class="st0" d="M86.9,0.1c-0.9,0.4-2,0.9-2.8,1.8c2.3,2.5,4.4,7,4.4,11.9c0,4.9-2.1,9.4-4.4,11.9c0.8,0.9,1.9,1.4,2.8,1.8
			c4.2-0.9,7.4-6.7,7.4-13.6C94.3,6.8,91.1,1,86.9,0.1"/>
		<path class="st0" d="M85.4,0h-6.2c-3.8,1.4-6.7,6.9-6.8,13.7v0.2c0,6.7,2.9,12.3,6.8,13.7h6.2c-3.9-1.4-6.8-7-6.8-13.8
			C78.6,7,81.5,1.4,85.4,0"/>
	</g>
</g>
</svg>
