<svg width="90" height="90" viewBox="0 0 90 90" fill="none" xmlns="http://www.w3.org/2000/svg">
<rect x="0.5" y="0.5" width="89" height="89" rx="7.5" fill="#FBFCFF"/>
<rect x="0.5" y="0.5" width="89" height="89" rx="7.5" stroke="#F0F0F0"/>
<path d="M45 35C43.6333 35 42.3417 34.7375 41.125 34.2125C39.9083 33.6875 38.8458 32.9708 37.9375 32.0625C37.0292 31.1542 36.3125 30.0917 35.7875 28.875C35.2625 27.6583 35 26.3667 35 25C35 23.6167 35.2625 22.3208 35.7875 21.1125C36.3125 19.9042 37.0292 18.8458 37.9375 17.9375C38.8458 17.0292 39.9083 16.3125 41.125 15.7875C42.3417 15.2625 43.6333 15 45 15C46.3833 15 47.6792 15.2625 48.8875 15.7875C50.0958 16.3125 51.1542 17.0292 52.0625 17.9375C52.9708 18.8458 53.6875 19.9042 54.2125 21.1125C54.7375 22.3208 55 23.6167 55 25C55 26.3667 54.7375 27.6583 54.2125 28.875C53.6875 30.0917 52.9708 31.1542 52.0625 32.0625C51.1542 32.9708 50.0958 33.6875 48.8875 34.2125C47.6792 34.7375 46.3833 35 45 35ZM45 32.95C45.4333 32.35 45.8083 31.725 46.125 31.075C46.4417 30.425 46.7 29.7333 46.9 29H43.1C43.3 29.7333 43.5583 30.425 43.875 31.075C44.1917 31.725 44.5667 32.35 45 32.95ZM42.4 32.55C42.1 32 41.8375 31.4292 41.6125 30.8375C41.3875 30.2458 41.2 29.6333 41.05 29H38.1C38.5833 29.8333 39.1875 30.5583 39.9125 31.175C40.6375 31.7917 41.4667 32.25 42.4 32.55ZM47.6 32.55C48.5333 32.25 49.3625 31.7917 50.0875 31.175C50.8125 30.5583 51.4167 29.8333 51.9 29H48.95C48.8 29.6333 48.6125 30.2458 48.3875 30.8375C48.1625 31.4292 47.9 32 47.6 32.55ZM37.25 27H40.65C40.6 26.6667 40.5625 26.3375 40.5375 26.0125C40.5125 25.6875 40.5 25.35 40.5 25C40.5 24.65 40.5125 24.3125 40.5375 23.9875C40.5625 23.6625 40.6 23.3333 40.65 23H37.25C37.1667 23.3333 37.1042 23.6625 37.0625 23.9875C37.0208 24.3125 37 24.65 37 25C37 25.35 37.0208 25.6875 37.0625 26.0125C37.1042 26.3375 37.1667 26.6667 37.25 27ZM42.65 27H47.35C47.4 26.6667 47.4375 26.3375 47.4625 26.0125C47.4875 25.6875 47.5 25.35 47.5 25C47.5 24.65 47.4875 24.3125 47.4625 23.9875C47.4375 23.6625 47.4 23.3333 47.35 23H42.65C42.6 23.3333 42.5625 23.6625 42.5375 23.9875C42.5125 24.3125 42.5 24.65 42.5 25C42.5 25.35 42.5125 25.6875 42.5375 26.0125C42.5625 26.3375 42.6 26.6667 42.65 27ZM49.35 27H52.75C52.8333 26.6667 52.8958 26.3375 52.9375 26.0125C52.9792 25.6875 53 25.35 53 25C53 24.65 52.9792 24.3125 52.9375 23.9875C52.8958 23.6625 52.8333 23.3333 52.75 23H49.35C49.4 23.3333 49.4375 23.6625 49.4625 23.9875C49.4875 24.3125 49.5 24.65 49.5 25C49.5 25.35 49.4875 25.6875 49.4625 26.0125C49.4375 26.3375 49.4 26.6667 49.35 27ZM48.95 21H51.9C51.4167 20.1667 50.8125 19.4417 50.0875 18.825C49.3625 18.2083 48.5333 17.75 47.6 17.45C47.9 18 48.1625 18.5708 48.3875 19.1625C48.6125 19.7542 48.8 20.3667 48.95 21ZM43.1 21H46.9C46.7 20.2667 46.4417 19.575 46.125 18.925C45.8083 18.275 45.4333 17.65 45 17.05C44.5667 17.65 44.1917 18.275 43.875 18.925C43.5583 19.575 43.3 20.2667 43.1 21ZM38.1 21H41.05C41.2 20.3667 41.3875 19.7542 41.6125 19.1625C41.8375 18.5708 42.1 18 42.4 17.45C41.4667 17.75 40.6375 18.2083 39.9125 18.825C39.1875 19.4417 38.5833 20.1667 38.1 21Z" fill="#3C57E1"/>
<path d="M24.7311 55.12L25.0311 64H23.3751L23.0991 55.264H23.0751L21.1671 64H18.2751L16.4991 55.264H16.4751L16.1991 64H14.6271L14.9391 55.12H18.1311L19.7631 63.856H19.7871L21.5391 55.12H24.7311ZM30.5143 57.976H32.0983V64H30.5143V61.876H30.4903C30.4903 63.28 29.7943 64.12 28.6063 64.12C27.3103 64.12 26.5423 63.196 26.5423 61.648V57.976H28.1263V61.576C28.1263 62.392 28.5463 62.86 29.2543 62.86C30.0463 62.86 30.5143 62.26 30.5143 61.228V57.976ZM33.657 64V54.76H35.241V64H33.657ZM40.6013 59.068H38.7293V61.972C38.7293 62.536 39.0893 62.86 39.6893 62.86C39.9773 62.86 40.2773 62.788 40.4933 62.668V63.844C40.1333 64.012 39.6413 64.12 39.1853 64.12C37.9013 64.12 37.1453 63.4 37.1453 62.176V59.068H36.2813V57.976H37.2413V55.96H38.8253V56.464C38.8253 57.232 38.2493 57.772 37.2893 57.952V57.976H40.6013V59.068ZM41.6257 56.824V55.324H43.2097V56.824H41.6257ZM41.6257 64V57.976H43.2097V64H41.6257ZM44.778 64V54.76H46.362V64H44.778ZM52.2024 57.976H53.7864V64H52.2024V61.924H52.1784C52.1784 63.304 51.3744 64.12 50.0304 64.12C48.5184 64.12 47.6304 62.956 47.6304 60.988C47.6304 59.02 48.5184 57.856 50.0304 57.856C51.3744 57.856 52.1784 58.672 52.1784 60.04H52.2024V57.976ZM50.7624 62.86C51.7224 62.86 52.2864 62.092 52.2864 60.988C52.2864 59.872 51.7224 59.104 50.7624 59.104C49.8024 59.104 49.2384 59.812 49.2384 60.988C49.2384 62.164 49.8024 62.86 50.7624 62.86ZM58.9124 57.856C60.2444 57.856 61.0244 58.768 61.0244 60.328V64H59.4404V60.4C59.4404 59.584 59.0084 59.104 58.2644 59.104C57.4244 59.104 56.9324 59.716 56.9324 60.736V64H55.3484V57.976H56.9324V60.088H56.9564C56.9564 58.684 57.6884 57.856 58.9124 57.856ZM66.7922 57.976H68.3762V64.072C68.3762 65.836 67.2482 66.88 65.3522 66.88C63.7202 66.88 62.6162 66.076 62.4002 64.72L63.9002 64.492C63.9962 65.2 64.5482 65.62 65.3522 65.62C66.2522 65.62 66.7922 65.08 66.7922 64.168V61.864H66.7682C66.7682 63.232 65.9642 64.048 64.6202 64.048C63.1082 64.048 62.2202 62.896 62.2202 60.952C62.2202 59.008 63.1082 57.856 64.6202 57.856C65.9642 57.856 66.7682 58.672 66.7682 60.04H66.7922V57.976ZM65.3522 62.788C66.3122 62.788 66.8762 62.044 66.8762 60.952C66.8762 59.86 66.3122 59.104 65.3522 59.104C64.3922 59.104 63.8282 59.8 63.8282 60.952C63.8282 62.104 64.3922 62.788 65.3522 62.788ZM73.8502 57.976H75.4342V64H73.8502V61.876H73.8262C73.8262 63.28 73.1302 64.12 71.9422 64.12C70.6462 64.12 69.8782 63.196 69.8782 61.648V57.976H71.4622V61.576C71.4622 62.392 71.8822 62.86 72.5902 62.86C73.3822 62.86 73.8502 62.26 73.8502 61.228V57.976ZM39.218 71.976H40.802V78H39.218V75.924H39.194C39.194 77.304 38.39 78.12 37.046 78.12C35.534 78.12 34.646 76.956 34.646 74.988C34.646 73.02 35.534 71.856 37.046 71.856C38.39 71.856 39.194 72.672 39.194 74.04H39.218V71.976ZM37.778 76.86C38.738 76.86 39.302 76.092 39.302 74.988C39.302 73.872 38.738 73.104 37.778 73.104C36.818 73.104 36.254 73.812 36.254 74.988C36.254 76.164 36.818 76.86 37.778 76.86ZM46.636 71.976H48.22V78.072C48.22 79.836 47.092 80.88 45.196 80.88C43.564 80.88 42.46 80.076 42.244 78.72L43.744 78.492C43.84 79.2 44.392 79.62 45.196 79.62C46.096 79.62 46.636 79.08 46.636 78.168V75.864H46.612C46.612 77.232 45.808 78.048 44.464 78.048C42.952 78.048 42.064 76.896 42.064 74.952C42.064 73.008 42.952 71.856 44.464 71.856C45.808 71.856 46.612 72.672 46.612 74.04H46.636V71.976ZM45.196 76.788C46.156 76.788 46.72 76.044 46.72 74.952C46.72 73.86 46.156 73.104 45.196 73.104C44.236 73.104 43.672 73.8 43.672 74.952C43.672 76.104 44.236 76.788 45.196 76.788ZM55.386 74.988V75.168H50.994C51.054 76.272 51.582 76.92 52.434 76.92C53.178 76.92 53.694 76.512 53.85 75.852H55.386C55.17 77.28 54.066 78.12 52.434 78.12C50.562 78.12 49.458 76.956 49.458 74.988C49.458 73.008 50.562 71.856 52.434 71.856C54.282 71.856 55.386 73.008 55.386 74.988ZM52.434 73.044C51.63 73.044 51.114 73.62 51.006 74.628H53.838C53.742 73.62 53.226 73.044 52.434 73.044Z" fill="#001A64"/>
</svg>
