<svg width="90" height="90" viewBox="0 0 90 90" fill="none" xmlns="http://www.w3.org/2000/svg">
<rect x="0.5" y="0.5" width="89" height="89" rx="7.5" fill="#FCFCFC"/>
<rect x="0.5" y="0.5" width="89" height="89" rx="7.5" stroke="#F0F0F0"/>
<path d="M38 34C37.45 34 36.9792 33.8042 36.5875 33.4125C36.1958 33.0208 36 32.55 36 32V18C36 17.45 36.1958 16.9792 36.5875 16.5875C36.9792 16.1958 37.45 16 38 16H52C52.55 16 53.0208 16.1958 53.4125 16.5875C53.8042 16.9792 54 17.45 54 18V32C54 32.55 53.8042 33.0208 53.4125 33.4125C53.0208 33.8042 52.55 34 52 34H38ZM38 32H44V18H38V32ZM46 32H52V25H46V32ZM46 23H52V18H46V23Z" fill="#3C57E1"/>
<path d="M22.0317 64L21.4197 61.852H17.6277L17.0157 64H15.3597L18.1197 55.12H21.0477L23.7957 64H22.0317ZM17.9997 60.568H21.0597L19.5477 55.264H19.5237L17.9997 60.568ZM28.9055 54.76H30.4895V64H28.9055V61.924H28.8815C28.8815 63.304 28.0775 64.12 26.7335 64.12C25.2215 64.12 24.3335 62.956 24.3335 60.988C24.3335 59.02 25.2215 57.856 26.7335 57.856C28.0775 57.856 28.8815 58.672 28.8815 60.04H28.9055V54.76ZM27.4655 62.86C28.4255 62.86 28.9895 62.092 28.9895 60.988C28.9895 59.872 28.4255 59.104 27.4655 59.104C26.5055 59.104 25.9415 59.812 25.9415 60.988C25.9415 62.164 26.5055 62.86 27.4655 62.86ZM36.3235 54.76H37.9075V64H36.3235V61.924H36.2995C36.2995 63.304 35.4955 64.12 34.1515 64.12C32.6395 64.12 31.7515 62.956 31.7515 60.988C31.7515 59.02 32.6395 57.856 34.1515 57.856C35.4955 57.856 36.2995 58.672 36.2995 60.04H36.3235V54.76ZM34.8835 62.86C35.8435 62.86 36.4075 62.092 36.4075 60.988C36.4075 59.872 35.8435 59.104 34.8835 59.104C33.9235 59.104 33.3595 59.812 33.3595 60.988C33.3595 62.164 33.9235 62.86 34.8835 62.86ZM39.4695 56.824V55.324H41.0535V56.824H39.4695ZM39.4695 64V57.976H41.0535V64H39.4695ZM46.4138 59.068H44.5418V61.972C44.5418 62.536 44.9018 62.86 45.5018 62.86C45.7898 62.86 46.0898 62.788 46.3058 62.668V63.844C45.9458 64.012 45.4538 64.12 44.9978 64.12C43.7138 64.12 42.9578 63.4 42.9578 62.176V59.068H42.0938V57.976H43.0538V55.96H44.6378V56.464C44.6378 57.232 44.0618 57.772 43.1018 57.952V57.976H46.4138V59.068ZM47.4382 56.824V55.324H49.0222V56.824H47.4382ZM47.4382 64V57.976H49.0222V64H47.4382ZM53.4105 64.12C51.4425 64.12 50.2665 62.956 50.2665 60.988C50.2665 59.02 51.4425 57.856 53.4105 57.856C55.3785 57.856 56.5425 59.02 56.5425 60.988C56.5425 62.956 55.3785 64.12 53.4105 64.12ZM53.4105 62.86C54.3705 62.86 54.9345 62.164 54.9345 60.988C54.9345 59.812 54.3705 59.104 53.4105 59.104C52.4505 59.104 51.8865 59.812 51.8865 60.988C51.8865 62.164 52.4505 62.86 53.4105 62.86ZM61.3381 57.856C62.6701 57.856 63.4501 58.768 63.4501 60.328V64H61.8661V60.4C61.8661 59.584 61.4341 59.104 60.6901 59.104C59.8501 59.104 59.3581 59.716 59.3581 60.736V64H57.7741V57.976H59.3581V60.088H59.3821C59.3821 58.684 60.1141 57.856 61.3381 57.856ZM69.218 57.976H70.802V64H69.218V61.924H69.194C69.194 63.304 68.39 64.12 67.046 64.12C65.534 64.12 64.646 62.956 64.646 60.988C64.646 59.02 65.534 57.856 67.046 57.856C68.39 57.856 69.194 58.672 69.194 60.04H69.218V57.976ZM67.778 62.86C68.738 62.86 69.302 62.092 69.302 60.988C69.302 59.872 68.738 59.104 67.778 59.104C66.818 59.104 66.254 59.812 66.254 60.988C66.254 62.164 66.818 62.86 67.778 62.86ZM72.364 64V54.76H73.948V64H72.364ZM27.5585 78.12C25.4225 78.12 24.0665 76.932 23.8985 74.892H25.5305C25.6385 76.092 26.3945 76.8 27.5945 76.8C28.8065 76.8 29.5145 76.296 29.5145 75.456C29.5145 74.424 28.4585 74.268 27.2945 74.088C25.8305 73.884 24.1385 73.632 24.1385 71.664C24.1385 69.936 25.4105 69 27.5585 69C29.5145 69 30.7865 70.152 30.9545 72.096H29.3105C29.2385 70.98 28.5545 70.32 27.4745 70.32C26.4305 70.32 25.8185 70.776 25.8185 71.544C25.8185 72.42 26.8025 72.576 27.9065 72.744C29.4065 72.96 31.1945 73.236 31.1945 75.288C31.1945 77.064 29.8505 78.12 27.5585 78.12ZM36.1942 71.856C37.7062 71.856 38.6062 73.02 38.6062 74.988C38.6062 76.956 37.7062 78.12 36.1942 78.12C34.8502 78.12 34.0462 77.304 34.0462 75.924H34.0222V80.76H32.4382V71.976H34.0222V74.04H34.0462C34.0462 72.672 34.8502 71.856 36.1942 71.856ZM35.4622 76.86C36.4222 76.86 36.9862 76.164 36.9862 74.988C36.9862 73.812 36.4222 73.116 35.4622 73.116C34.5022 73.116 33.9382 73.872 33.9382 74.988C33.9382 76.092 34.5022 76.86 35.4622 76.86ZM44.1282 71.976H45.7122V78H44.1282V75.924H44.1042C44.1042 77.304 43.3002 78.12 41.9562 78.12C40.4442 78.12 39.5562 76.956 39.5562 74.988C39.5562 73.02 40.4442 71.856 41.9562 71.856C43.3002 71.856 44.1042 72.672 44.1042 74.04H44.1282V71.976ZM42.6882 76.86C43.6482 76.86 44.2122 76.092 44.2122 74.988C44.2122 73.872 43.6482 73.104 42.6882 73.104C41.7282 73.104 41.1642 73.812 41.1642 74.988C41.1642 76.164 41.7282 76.86 42.6882 76.86ZM50.0581 78.12C48.1141 78.12 46.9501 76.956 46.9501 74.988C46.9501 73.02 48.1141 71.856 50.0581 71.856C51.7021 71.856 52.7701 72.72 53.0101 74.208H51.4501C51.2461 73.512 50.7661 73.104 50.0581 73.104C49.1221 73.104 48.5701 73.812 48.5701 74.988C48.5701 76.164 49.1221 76.86 50.0581 76.86C50.8021 76.86 51.2941 76.428 51.4741 75.684H53.0341C52.8061 77.232 51.7381 78.12 50.0581 78.12ZM59.7805 74.988V75.168H55.3885C55.4485 76.272 55.9765 76.92 56.8285 76.92C57.5725 76.92 58.0885 76.512 58.2445 75.852H59.7805C59.5645 77.28 58.4605 78.12 56.8285 78.12C54.9565 78.12 53.8525 76.956 53.8525 74.988C53.8525 73.008 54.9565 71.856 56.8285 71.856C58.6765 71.856 59.7805 73.008 59.7805 74.988ZM56.8285 73.044C56.0245 73.044 55.5085 73.62 55.4005 74.628H58.2325C58.1365 73.62 57.6205 73.044 56.8285 73.044ZM63.3605 78.12C61.6325 78.12 60.6245 77.352 60.6245 76.044H62.1005C62.1005 76.716 62.5685 77.112 63.3605 77.112C64.1285 77.112 64.5725 76.824 64.5725 76.32C64.5725 75.684 63.8645 75.564 63.0725 75.432C62.0285 75.264 60.7805 75.06 60.7805 73.68C60.7805 72.54 61.7405 71.856 63.3605 71.856C64.9685 71.856 65.9285 72.588 65.9285 73.836H64.4525C64.4525 73.2 64.0565 72.84 63.3605 72.84C62.7005 72.84 62.3045 73.104 62.3045 73.548C62.3045 74.088 62.9645 74.196 63.7325 74.328C64.8005 74.508 66.0965 74.724 66.0965 76.14C66.0965 77.376 65.0765 78.12 63.3605 78.12Z" fill="#001A64"/>
</svg>
