<svg width="90" height="90" viewBox="0 0 90 90" fill="none" xmlns="http://www.w3.org/2000/svg">
<rect x="0.5" y="0.5" width="89" height="89" rx="7.5" fill="#FBFCFF"/>
<rect x="0.5" y="0.5" width="89" height="89" rx="7.5" stroke="#F0F0F0"/>
<path d="M38 34C37.7167 34 37.4792 33.9042 37.2875 33.7125C37.0958 33.5208 37 33.2833 37 33V32C36.1667 32 35.4583 31.7083 34.875 31.125C34.2917 30.5417 34 29.8333 34 29V24C34 23.1667 34.2917 22.4583 34.875 21.875C35.4583 21.2917 36.1667 21 37 21V19C37 18.1667 37.2917 17.4583 37.875 16.875C38.4583 16.2917 39.1667 16 40 16H50C50.8333 16 51.5417 16.2917 52.125 16.875C52.7083 17.4583 53 18.1667 53 19V21C53.8333 21 54.5417 21.2917 55.125 21.875C55.7083 22.4583 56 23.1667 56 24V29C56 29.8333 55.7083 30.5417 55.125 31.125C54.5417 31.7083 53.8333 32 53 32V33C53 33.2833 52.9042 33.5208 52.7125 33.7125C52.5208 33.9042 52.2833 34 52 34C51.7167 34 51.4792 33.9042 51.2875 33.7125C51.0958 33.5208 51 33.2833 51 33V32H39V33C39 33.2833 38.9042 33.5208 38.7125 33.7125C38.5208 33.9042 38.2833 34 38 34ZM37 30H53C53.2833 30 53.5208 29.9042 53.7125 29.7125C53.9042 29.5208 54 29.2833 54 29V24C54 23.7167 53.9042 23.4792 53.7125 23.2875C53.5208 23.0958 53.2833 23 53 23C52.7167 23 52.4792 23.0958 52.2875 23.2875C52.0958 23.4792 52 23.7167 52 24V28H38V24C38 23.7167 37.9042 23.4792 37.7125 23.2875C37.5208 23.0958 37.2833 23 37 23C36.7167 23 36.4792 23.0958 36.2875 23.2875C36.0958 23.4792 36 23.7167 36 24V29C36 29.2833 36.0958 29.5208 36.2875 29.7125C36.4792 29.9042 36.7167 30 37 30ZM40 26H50V24C50 23.55 50.0917 23.1417 50.275 22.775C50.4583 22.4083 50.7 22.0833 51 21.8V19C51 18.7167 50.9042 18.4792 50.7125 18.2875C50.5208 18.0958 50.2833 18 50 18H40C39.7167 18 39.4792 18.0958 39.2875 18.2875C39.0958 18.4792 39 18.7167 39 19V21.8C39.3 22.0833 39.5417 22.4083 39.725 22.775C39.9083 23.1417 40 23.55 40 24V26Z" fill="#3C57E1"/>
<path d="M37.7714 64.12C35.6354 64.12 34.2794 62.932 34.1114 60.892H35.7434C35.8514 62.092 36.6074 62.8 37.8074 62.8C39.0194 62.8 39.7274 62.296 39.7274 61.456C39.7274 60.424 38.6714 60.268 37.5074 60.088C36.0434 59.884 34.3514 59.632 34.3514 57.664C34.3514 55.936 35.6234 55 37.7714 55C39.7274 55 40.9994 56.152 41.1674 58.096H39.5234C39.4514 56.98 38.7674 56.32 37.6874 56.32C36.6434 56.32 36.0314 56.776 36.0314 57.544C36.0314 58.42 37.0154 58.576 38.1194 58.744C39.6194 58.96 41.4074 59.236 41.4074 61.288C41.4074 63.064 40.0634 64.12 37.7714 64.12ZM48.2551 60.988V61.168H43.8631C43.9231 62.272 44.4511 62.92 45.3031 62.92C46.0471 62.92 46.5631 62.512 46.7191 61.852H48.2551C48.0391 63.28 46.9351 64.12 45.3031 64.12C43.4311 64.12 42.3271 62.956 42.3271 60.988C42.3271 59.008 43.4311 57.856 45.3031 57.856C47.1511 57.856 48.2551 59.008 48.2551 60.988ZM45.3031 59.044C44.4991 59.044 43.9831 59.62 43.8751 60.628H46.7071C46.6111 59.62 46.0951 59.044 45.3031 59.044ZM49.4831 64V54.76H51.0671V64H49.4831ZM55.7075 55.9C54.9515 55.9 54.5555 56.32 54.5555 57.016V57.976H56.4515V59.068H54.6395V64H53.0555V59.068H52.1435V57.976H54.4955V57.952C53.5355 57.772 52.9715 57.232 52.9715 56.464C52.9715 55.312 53.8475 54.64 55.3235 54.64C55.8395 54.64 56.3555 54.748 56.7635 54.94L56.5595 56.128C56.3195 55.984 56.0195 55.9 55.7075 55.9ZM21.5155 70.404H17.4115V72.9H20.8915V74.184H17.4115V78H15.7555V69.12H21.5155V70.404ZM26.1783 71.976H27.7623V78H26.1783V75.876H26.1543C26.1543 77.28 25.4583 78.12 24.2703 78.12C22.9743 78.12 22.2063 77.196 22.2063 75.648V71.976H23.7903V75.576C23.7903 76.392 24.2103 76.86 24.9183 76.86C25.7103 76.86 26.1783 76.26 26.1783 75.228V71.976ZM32.753 71.856C33.101 71.856 33.437 71.928 33.677 72.048L33.221 73.464C32.981 73.332 32.681 73.248 32.381 73.248C31.457 73.248 30.905 74.004 30.905 75.276V78H29.321V71.976H30.905V74.46H30.929C30.929 72.816 31.613 71.856 32.753 71.856ZM38.0413 71.856C39.3733 71.856 40.1533 72.768 40.1533 74.328V78H38.5693V74.4C38.5693 73.584 38.1373 73.104 37.3933 73.104C36.5533 73.104 36.0613 73.716 36.0613 74.736V78H34.4773V71.976H36.0613V74.088H36.0853C36.0853 72.684 36.8173 71.856 38.0413 71.856ZM41.6491 70.824V69.324H43.2331V70.824H41.6491ZM41.6491 78V71.976H43.2331V78H41.6491ZM47.1535 78.12C45.4255 78.12 44.4175 77.352 44.4175 76.044H45.8935C45.8935 76.716 46.3615 77.112 47.1535 77.112C47.9215 77.112 48.3655 76.824 48.3655 76.32C48.3655 75.684 47.6575 75.564 46.8655 75.432C45.8215 75.264 44.5735 75.06 44.5735 73.68C44.5735 72.54 45.5335 71.856 47.1535 71.856C48.7615 71.856 49.7215 72.588 49.7215 73.836H48.2455C48.2455 73.2 47.8495 72.84 47.1535 72.84C46.4935 72.84 46.0975 73.104 46.0975 73.548C46.0975 74.088 46.7575 74.196 47.5255 74.328C48.5935 74.508 49.8895 74.724 49.8895 76.14C49.8895 77.376 48.8695 78.12 47.1535 78.12ZM54.6585 71.856C55.9905 71.856 56.7705 72.768 56.7705 74.328V78H55.1865V74.4C55.1865 73.584 54.7545 73.104 54.0105 73.104C53.1705 73.104 52.6785 73.716 52.6785 74.736V78H51.0945V68.76H52.6785V74.088H52.7025C52.7025 72.684 53.4345 71.856 54.6585 71.856ZM58.2663 70.824V69.324H59.8503V70.824H58.2663ZM58.2663 78V71.976H59.8503V78H58.2663ZM64.9827 71.856C66.3147 71.856 67.0947 72.768 67.0947 74.328V78H65.5107V74.4C65.5107 73.584 65.0787 73.104 64.3347 73.104C63.4947 73.104 63.0027 73.716 63.0027 74.736V78H61.4187V71.976H63.0027V74.088H63.0267C63.0267 72.684 63.7587 71.856 64.9827 71.856ZM72.8625 71.976H74.4465V78.072C74.4465 79.836 73.3185 80.88 71.4225 80.88C69.7905 80.88 68.6865 80.076 68.4705 78.72L69.9705 78.492C70.0665 79.2 70.6185 79.62 71.4225 79.62C72.3225 79.62 72.8625 79.08 72.8625 78.168V75.864H72.8385C72.8385 77.232 72.0345 78.048 70.6905 78.048C69.1785 78.048 68.2905 76.896 68.2905 74.952C68.2905 73.008 69.1785 71.856 70.6905 71.856C72.0345 71.856 72.8385 72.672 72.8385 74.04H72.8625V71.976ZM71.4225 76.788C72.3825 76.788 72.9465 76.044 72.9465 74.952C72.9465 73.86 72.3825 73.104 71.4225 73.104C70.4625 73.104 69.8985 73.8 69.8985 74.952C69.8985 76.104 70.4625 76.788 71.4225 76.788Z" fill="#AAAAAA"/>
</svg>
