<svg width="90" height="90" viewBox="0 0 90 90" fill="none" xmlns="http://www.w3.org/2000/svg">
<rect x="0.5" y="0.5" width="89" height="89" rx="7.5" fill="#FBFCFF"/>
<rect x="0.5" y="0.5" width="89" height="89" rx="7.5" stroke="#F0F0F0"/>
<path d="M37 33C36.45 33 35.9792 32.8042 35.5875 32.4125C35.1958 32.0208 35 31.55 35 31V19C35 18.45 35.1958 17.9792 35.5875 17.5875C35.9792 17.1958 36.45 17 37 17H53C53.55 17 54.0208 17.1958 54.4125 17.5875C54.8042 17.9792 55 18.45 55 19V31C55 31.55 54.8042 32.0208 54.4125 32.4125C54.0208 32.8042 53.55 33 53 33H37ZM37 31H47.5V27.5H37V31ZM49.5 31H53V22H49.5V31ZM37 25.5H47.5V22H37V25.5Z" fill="#3C57E1"/>
<path d="M15.4391 64V55.12H17.0951V64H15.4391ZM22.3967 57.856C23.7287 57.856 24.5087 58.768 24.5087 60.328V64H22.9247V60.4C22.9247 59.584 22.4927 59.104 21.7487 59.104C20.9087 59.104 20.4167 59.716 20.4167 60.736V64H18.8327V57.976H20.4167V60.088H20.4407C20.4407 58.684 21.1727 57.856 22.3967 57.856ZM29.7263 59.068H27.8543V61.972C27.8543 62.536 28.2143 62.86 28.8143 62.86C29.1023 62.86 29.4023 62.788 29.6183 62.668V63.844C29.2583 64.012 28.7663 64.12 28.3103 64.12C27.0263 64.12 26.2703 63.4 26.2703 62.176V59.068H25.4063V57.976H26.3663V55.96H27.9503V56.464C27.9503 57.232 27.3743 57.772 26.4143 57.952V57.976H29.7263V59.068ZM36.2844 60.988V61.168H31.8924C31.9524 62.272 32.4804 62.92 33.3324 62.92C34.0764 62.92 34.5924 62.512 34.7484 61.852H36.2844C36.0684 63.28 34.9644 64.12 33.3324 64.12C31.4604 64.12 30.3564 62.956 30.3564 60.988C30.3564 59.008 31.4604 57.856 33.3324 57.856C35.1804 57.856 36.2844 59.008 36.2844 60.988ZM33.3324 59.044C32.5284 59.044 32.0124 59.62 31.9044 60.628H34.7364C34.6404 59.62 34.1244 59.044 33.3324 59.044ZM41.7844 57.976H43.3684V64.072C43.3684 65.836 42.2404 66.88 40.3444 66.88C38.7124 66.88 37.6084 66.076 37.3924 64.72L38.8924 64.492C38.9884 65.2 39.5404 65.62 40.3444 65.62C41.2444 65.62 41.7844 65.08 41.7844 64.168V61.864H41.7604C41.7604 63.232 40.9564 64.048 39.6124 64.048C38.1004 64.048 37.2124 62.896 37.2124 60.952C37.2124 59.008 38.1004 57.856 39.6124 57.856C40.9564 57.856 41.7604 58.672 41.7604 60.04H41.7844V57.976ZM40.3444 62.788C41.3044 62.788 41.8684 62.044 41.8684 60.952C41.8684 59.86 41.3044 59.104 40.3444 59.104C39.3844 59.104 38.8204 59.8 38.8204 60.952C38.8204 62.104 39.3844 62.788 40.3444 62.788ZM48.3624 57.856C48.7104 57.856 49.0464 57.928 49.2864 58.048L48.8304 59.464C48.5904 59.332 48.2904 59.248 47.9904 59.248C47.0664 59.248 46.5144 60.004 46.5144 61.276V64H44.9304V57.976H46.5144V60.46H46.5384C46.5384 58.816 47.2224 57.856 48.3624 57.856ZM54.1829 57.976H55.7669V64H54.1829V61.924H54.1589C54.1589 63.304 53.3549 64.12 52.0109 64.12C50.4989 64.12 49.6109 62.956 49.6109 60.988C49.6109 59.02 50.4989 57.856 52.0109 57.856C53.3549 57.856 54.1589 58.672 54.1589 60.04H54.1829V57.976ZM52.7429 62.86C53.7029 62.86 54.2669 62.092 54.2669 60.988C54.2669 59.872 53.7029 59.104 52.7429 59.104C51.7829 59.104 51.2189 59.812 51.2189 60.988C51.2189 62.164 51.7829 62.86 52.7429 62.86ZM61.1208 59.068H59.2488V61.972C59.2488 62.536 59.6088 62.86 60.2088 62.86C60.4968 62.86 60.7968 62.788 61.0128 62.668V63.844C60.6528 64.012 60.1608 64.12 59.7048 64.12C58.4208 64.12 57.6648 63.4 57.6648 62.176V59.068H56.8008V57.976H57.7608V55.96H59.3448V56.464C59.3448 57.232 58.7688 57.772 57.8088 57.952V57.976H61.1208V59.068ZM67.6789 60.988V61.168H63.2869C63.3469 62.272 63.8749 62.92 64.7269 62.92C65.4709 62.92 65.9869 62.512 66.1429 61.852H67.6789C67.4629 63.28 66.3589 64.12 64.7269 64.12C62.8549 64.12 61.7509 62.956 61.7509 60.988C61.7509 59.008 62.8549 57.856 64.7269 57.856C66.5749 57.856 67.6789 59.008 67.6789 60.988ZM64.7269 59.044C63.9229 59.044 63.4069 59.62 63.2989 60.628H66.1309C66.0349 59.62 65.5189 59.044 64.7269 59.044ZM73.179 54.76H74.763V64H73.179V61.924H73.155C73.155 63.304 72.351 64.12 71.007 64.12C69.495 64.12 68.607 62.956 68.607 60.988C68.607 59.02 69.495 57.856 71.007 57.856C72.351 57.856 73.155 58.672 73.155 60.04H73.179V54.76ZM71.739 62.86C72.699 62.86 73.263 62.092 73.263 60.988C73.263 59.872 72.699 59.104 71.739 59.104C70.779 59.104 70.215 59.812 70.215 60.988C70.215 62.164 70.779 62.86 71.739 62.86ZM31.8979 69.12H33.5539L31.8739 78H28.8979L27.5299 69.264H27.5059L26.1379 78H23.1619L21.4939 69.12H23.2459L24.7579 77.856H24.7819L26.2099 69.12H28.9099L30.3499 77.856H30.3739L31.8979 69.12ZM39.9406 74.988V75.168H35.5486C35.6086 76.272 36.1366 76.92 36.9886 76.92C37.7326 76.92 38.2486 76.512 38.4046 75.852H39.9406C39.7246 77.28 38.6206 78.12 36.9886 78.12C35.1166 78.12 34.0126 76.956 34.0126 74.988C34.0126 73.008 35.1166 71.856 36.9886 71.856C38.8366 71.856 39.9406 73.008 39.9406 74.988ZM36.9886 73.044C36.1846 73.044 35.6686 73.62 35.5606 74.628H38.3926C38.2966 73.62 37.7806 73.044 36.9886 73.044ZM44.9247 71.856C46.4367 71.856 47.3367 73.02 47.3367 74.988C47.3367 76.956 46.4367 78.12 44.9247 78.12C43.5807 78.12 42.7767 77.304 42.7767 75.924H42.7527V78H41.1687V68.76H42.7527V74.04H42.7767C42.7767 72.672 43.5807 71.856 44.9247 71.856ZM44.1927 76.86C45.1527 76.86 45.7167 76.164 45.7167 74.988C45.7167 73.812 45.1527 73.104 44.1927 73.104C43.2327 73.104 42.6687 73.872 42.6687 74.988C42.6687 76.092 43.2327 76.86 44.1927 76.86ZM50.9386 78.12C49.2106 78.12 48.2026 77.352 48.2026 76.044H49.6786C49.6786 76.716 50.1466 77.112 50.9386 77.112C51.7066 77.112 52.1506 76.824 52.1506 76.32C52.1506 75.684 51.4426 75.564 50.6506 75.432C49.6066 75.264 48.3586 75.06 48.3586 73.68C48.3586 72.54 49.3186 71.856 50.9386 71.856C52.5466 71.856 53.5066 72.588 53.5066 73.836H52.0306C52.0306 73.2 51.6346 72.84 50.9386 72.84C50.2786 72.84 49.8826 73.104 49.8826 73.548C49.8826 74.088 50.5426 74.196 51.3106 74.328C52.3786 74.508 53.6746 74.724 53.6746 76.14C53.6746 77.376 52.6546 78.12 50.9386 78.12ZM54.8796 70.824V69.324H56.4636V70.824H54.8796ZM54.8796 78V71.976H56.4636V78H54.8796ZM61.824 73.068H59.952V75.972C59.952 76.536 60.312 76.86 60.912 76.86C61.2 76.86 61.5 76.788 61.716 76.668V77.844C61.356 78.012 60.864 78.12 60.408 78.12C59.124 78.12 58.368 77.4 58.368 76.176V73.068H57.504V71.976H58.464V69.96H60.048V70.464C60.048 71.232 59.472 71.772 58.512 71.952V71.976H61.824V73.068ZM68.382 74.988V75.168H63.99C64.05 76.272 64.578 76.92 65.43 76.92C66.174 76.92 66.69 76.512 66.846 75.852H68.382C68.166 77.28 67.062 78.12 65.43 78.12C63.558 78.12 62.454 76.956 62.454 74.988C62.454 73.008 63.558 71.856 65.43 71.856C67.278 71.856 68.382 73.008 68.382 74.988ZM65.43 73.044C64.626 73.044 64.11 73.62 64.002 74.628H66.834C66.738 73.62 66.222 73.044 65.43 73.044Z" fill="#001A64"/>
</svg>
