<svg width="90" height="90" viewBox="0 0 90 90" fill="none" xmlns="http://www.w3.org/2000/svg">
<rect x="0.5" y="0.5" width="89" height="89" rx="7.5" fill="#FBFCFF"/>
<rect x="0.5" y="0.5" width="89" height="89" rx="7.5" stroke="#F0F0F0"/>
<path d="M38.5 28.4C39.5833 28.2667 40.6625 28.1667 41.7375 28.1C42.8125 28.0333 43.9 28 45 28C46.1 28 47.1875 28.0333 48.2625 28.1C49.3375 28.1667 50.4167 28.2667 51.5 28.4L47 23L44.15 26.4L42.15 24L38.5 28.4ZM36 33C35.7167 33 35.4792 32.9042 35.2875 32.7125C35.0958 32.5208 35 32.2833 35 32V18C35 17.7167 35.0958 17.4792 35.2875 17.2875C35.4792 17.0958 35.7167 17 36 17C36.1333 17 36.4292 17.0792 36.8875 17.2375C37.3458 17.3958 37.9583 17.5667 38.725 17.75C39.4917 17.9333 40.3958 18.1042 41.4375 18.2625C42.4792 18.4208 43.6667 18.5 45 18.5C46.3333 18.5 47.5208 18.4208 48.5625 18.2625C49.6042 18.1042 50.5083 17.9333 51.275 17.75C52.0417 17.5667 52.6542 17.3958 53.1125 17.2375C53.5708 17.0792 53.8667 17 54 17C54.2833 17 54.5208 17.0958 54.7125 17.2875C54.9042 17.4792 55 17.7167 55 18V32C55 32.2833 54.9042 32.5208 54.7125 32.7125C54.5208 32.9042 54.2833 33 54 33C53.8667 33 53.5708 32.9208 53.1125 32.7625C52.6542 32.6042 52.0417 32.4333 51.275 32.25C50.5083 32.0667 49.6042 31.8958 48.5625 31.7375C47.5208 31.5792 46.3333 31.5 45 31.5C43.6667 31.5 42.4792 31.5792 41.4375 31.7375C40.3958 31.8958 39.4917 32.0667 38.725 32.25C37.9583 32.4333 37.3458 32.6042 36.8875 32.7625C36.4292 32.9208 36.1333 33 36 33ZM37 30.65C38.3 30.2667 39.6208 29.9792 40.9625 29.7875C42.3042 29.5958 43.65 29.5 45 29.5C46.35 29.5 47.6958 29.5958 49.0375 29.7875C50.3792 29.9792 51.7 30.2667 53 30.65V19.375C51.7 19.7583 50.3792 20.0417 49.0375 20.225C47.6958 20.4083 46.35 20.5 45 20.5C43.65 20.5 42.3042 20.4083 40.9625 20.225C39.6208 20.0417 38.3 19.7583 37 19.375V30.65Z" fill="#3C57E1"/>
<path d="M38.8953 55.12C40.9473 55.12 42.1593 56.152 42.1593 57.904C42.1593 59.656 40.9473 60.688 38.8833 60.688H37.2513V64H35.5953V55.12H38.8953ZM38.9673 59.404C39.8913 59.404 40.4433 58.84 40.4433 57.904C40.4433 56.968 39.9033 56.404 38.9673 56.404H37.2513V59.404H38.9673ZM47.1303 64.12C44.5383 64.12 43.0023 62.428 43.0023 59.56C43.0023 56.692 44.5383 55 47.1303 55C49.6983 55 51.2343 56.692 51.2343 59.56C51.2343 62.428 49.6983 64.12 47.1303 64.12ZM47.1303 62.8C48.6303 62.8 49.5183 61.588 49.5183 59.56C49.5183 57.532 48.6303 56.32 47.1303 56.32C45.6063 56.32 44.7183 57.532 44.7183 59.56C44.7183 61.588 45.6063 62.8 47.1303 62.8ZM52.7399 64V55.12H54.3959V64H52.7399ZM19.1317 69.12C21.1837 69.12 22.3957 70.152 22.3957 71.904C22.3957 73.656 21.1837 74.688 19.1197 74.688H17.4877V78H15.8317V69.12H19.1317ZM19.2037 73.404C20.1277 73.404 20.6797 72.84 20.6797 71.904C20.6797 70.968 20.1397 70.404 19.2037 70.404H17.4877V73.404H19.2037ZM27.5872 71.976H29.1712V78H27.5872V75.924H27.5632C27.5632 77.304 26.7592 78.12 25.4152 78.12C23.9032 78.12 23.0152 76.956 23.0152 74.988C23.0152 73.02 23.9032 71.856 25.4152 71.856C26.7592 71.856 27.5632 72.672 27.5632 74.04H27.5872V71.976ZM26.1472 76.86C27.1072 76.86 27.6712 76.092 27.6712 74.988C27.6712 73.872 27.1072 73.104 26.1472 73.104C25.1872 73.104 24.6232 73.812 24.6232 74.988C24.6232 76.164 25.1872 76.86 26.1472 76.86ZM34.2971 71.856C35.6291 71.856 36.4091 72.768 36.4091 74.328V78H34.8251V74.4C34.8251 73.584 34.3931 73.104 33.6491 73.104C32.8091 73.104 32.3171 73.716 32.3171 74.736V78H30.7331V71.976H32.3171V74.088H32.3411C32.3411 72.684 33.0731 71.856 34.2971 71.856ZM40.725 78.12C38.757 78.12 37.581 76.956 37.581 74.988C37.581 73.02 38.757 71.856 40.725 71.856C42.693 71.856 43.857 73.02 43.857 74.988C43.857 76.956 42.693 78.12 40.725 78.12ZM40.725 76.86C41.685 76.86 42.249 76.164 42.249 74.988C42.249 73.812 41.685 73.104 40.725 73.104C39.765 73.104 39.201 73.812 39.201 74.988C39.201 76.164 39.765 76.86 40.725 76.86ZM48.5206 71.856C48.8686 71.856 49.2046 71.928 49.4446 72.048L48.9886 73.464C48.7486 73.332 48.4486 73.248 48.1486 73.248C47.2246 73.248 46.6726 74.004 46.6726 75.276V78H45.0886V71.976H46.6726V74.46H46.6966C46.6966 72.816 47.3806 71.856 48.5206 71.856ZM54.3411 71.976H55.9251V78H54.3411V75.924H54.3171C54.3171 77.304 53.5131 78.12 52.1691 78.12C50.6571 78.12 49.7691 76.956 49.7691 74.988C49.7691 73.02 50.6571 71.856 52.1691 71.856C53.5131 71.856 54.3171 72.672 54.3171 74.04H54.3411V71.976ZM52.9011 76.86C53.8611 76.86 54.4251 76.092 54.4251 74.988C54.4251 73.872 53.8611 73.104 52.9011 73.104C51.9411 73.104 51.3771 73.812 51.3771 74.988C51.3771 76.164 51.9411 76.86 52.9011 76.86ZM64.951 71.856C66.247 71.856 67.015 72.744 67.015 74.268V78H65.431V74.34C65.431 73.56 65.011 73.104 64.303 73.104C63.511 73.104 63.043 73.692 63.043 74.676V78H61.459V74.34C61.459 73.56 61.051 73.104 60.343 73.104C59.539 73.104 59.071 73.692 59.071 74.676V78H57.487V71.976H59.071V74.064H59.095C59.095 72.672 59.827 71.856 61.039 71.856C62.299 71.856 63.043 72.708 63.043 74.064H63.067C63.067 72.672 63.763 71.856 64.951 71.856ZM72.7864 71.976H74.3704V78H72.7864V75.924H72.7624C72.7624 77.304 71.9584 78.12 70.6144 78.12C69.1024 78.12 68.2144 76.956 68.2144 74.988C68.2144 73.02 69.1024 71.856 70.6144 71.856C71.9584 71.856 72.7624 72.672 72.7624 74.04H72.7864V71.976ZM71.3464 76.86C72.3064 76.86 72.8704 76.092 72.8704 74.988C72.8704 73.872 72.3064 73.104 71.3464 73.104C70.3864 73.104 69.8224 73.812 69.8224 74.988C69.8224 76.164 70.3864 76.86 71.3464 76.86Z" fill="#001A64"/>
</svg>
