<svg width="90" height="90" viewBox="0 0 90 90" fill="none" xmlns="http://www.w3.org/2000/svg">
<rect x="0.5" y="0.5" width="89" height="89" rx="7.5" fill="#FBFCFF"/>
<rect x="0.5" y="0.5" width="89" height="89" rx="7.5" stroke="#F0F0F0"/>
<path d="M38 28.45L44 31.925V25.075L38 21.6V28.45ZM46 31.925L52 28.45V21.6L46 25.075V31.925ZM39.075 19.925L45 23.35L50.925 19.925L45 16.5L39.075 19.925ZM36 29.625V19.375L45 14.2L54 19.375V29.625L45 34.8L36 29.625Z" fill="#3C57E1"/>
<path d="M20.2613 64V55.12H21.9173V64H20.2613ZM25.9953 64.12C24.2673 64.12 23.2593 63.352 23.2593 62.044H24.7353C24.7353 62.716 25.2033 63.112 25.9953 63.112C26.7633 63.112 27.2073 62.824 27.2073 62.32C27.2073 61.684 26.4993 61.564 25.7073 61.432C24.6633 61.264 23.4153 61.06 23.4153 59.68C23.4153 58.54 24.3753 57.856 25.9953 57.856C27.6033 57.856 28.5633 58.588 28.5633 59.836H27.0873C27.0873 59.2 26.6913 58.84 25.9953 58.84C25.3353 58.84 24.9393 59.104 24.9393 59.548C24.9393 60.088 25.5993 60.196 26.3673 60.328C27.4353 60.508 28.7313 60.724 28.7313 62.14C28.7313 63.376 27.7113 64.12 25.9953 64.12ZM32.7563 64.12C30.7883 64.12 29.6123 62.956 29.6123 60.988C29.6123 59.02 30.7883 57.856 32.7563 57.856C34.7243 57.856 35.8883 59.02 35.8883 60.988C35.8883 62.956 34.7243 64.12 32.7563 64.12ZM32.7563 62.86C33.7163 62.86 34.2803 62.164 34.2803 60.988C34.2803 59.812 33.7163 59.104 32.7563 59.104C31.7963 59.104 31.2323 59.812 31.2323 60.988C31.2323 62.164 31.7963 62.86 32.7563 62.86ZM44.5838 57.856C45.8798 57.856 46.6478 58.744 46.6478 60.268V64H45.0638V60.34C45.0638 59.56 44.6438 59.104 43.9358 59.104C43.1438 59.104 42.6758 59.692 42.6758 60.676V64H41.0918V60.34C41.0918 59.56 40.6838 59.104 39.9758 59.104C39.1718 59.104 38.7038 59.692 38.7038 60.676V64H37.1198V57.976H38.7038V60.064H38.7278C38.7278 58.672 39.4598 57.856 40.6718 57.856C41.9318 57.856 42.6758 58.708 42.6758 60.064H42.6998C42.6998 58.672 43.3958 57.856 44.5838 57.856ZM53.7512 60.988V61.168H49.3592C49.4192 62.272 49.9472 62.92 50.7992 62.92C51.5432 62.92 52.0592 62.512 52.2152 61.852H53.7512C53.5352 63.28 52.4312 64.12 50.7992 64.12C48.9272 64.12 47.8232 62.956 47.8232 60.988C47.8232 59.008 48.9272 57.856 50.7992 57.856C52.6472 57.856 53.7512 59.008 53.7512 60.988ZM50.7992 59.044C49.9952 59.044 49.4792 59.62 49.3712 60.628H52.2032C52.1072 59.62 51.5912 59.044 50.7992 59.044ZM58.6775 59.068H56.8055V61.972C56.8055 62.536 57.1655 62.86 57.7655 62.86C58.0535 62.86 58.3535 62.788 58.5695 62.668V63.844C58.2095 64.012 57.7175 64.12 57.2615 64.12C55.9775 64.12 55.2215 63.4 55.2215 62.176V59.068H54.3575V57.976H55.3175V55.96H56.9015V56.464C56.9015 57.232 56.3255 57.772 55.3655 57.952V57.976H58.6775V59.068ZM63.1339 57.856C63.4819 57.856 63.8179 57.928 64.0579 58.048L63.6019 59.464C63.3619 59.332 63.0619 59.248 62.7619 59.248C61.8379 59.248 61.2859 60.004 61.2859 61.276V64H59.7019V57.976H61.2859V60.46H61.3099C61.3099 58.816 61.9939 57.856 63.1339 57.856ZM68.7941 57.976H70.4861L68.1821 66.76H66.4901L67.2221 64H65.9141L64.3421 57.976H66.0341L67.4021 63.892H67.4261L68.7941 57.976Z" fill="#001A64"/>
</svg>
