<svg width="90" height="90" viewBox="0 0 90 90" fill="none" xmlns="http://www.w3.org/2000/svg">
<rect x="0.5" y="0.5" width="89" height="89" rx="7.5" fill="#FBFCFF"/>
<rect x="0.5" y="0.5" width="89" height="89" rx="7.5" stroke="#F0F0F0"/>
<path d="M44 35V32H46V35H44ZM35 26V24H38V26H35ZM52 26V24H55V26H52ZM51 32.9L48.9 30.8L50.3 29.4L52.4 31.5L51 32.9ZM39 32.9L37.6 31.5L39.7 29.4L41.1 30.8L39 32.9ZM45 30C43.6167 30 42.4375 29.5125 41.4625 28.5375C40.4875 27.5625 40 26.3833 40 25C40 24.2 40.1792 23.4542 40.5375 22.7625C40.8958 22.0708 41.3833 21.4833 42 21V16H48V21C48.6167 21.4833 49.1042 22.0708 49.4625 22.7625C49.8208 23.4542 50 24.2 50 25C50 26.3833 49.5125 27.5625 48.5375 28.5375C47.5625 29.5125 46.3833 30 45 30ZM44 20.1C44.1667 20.0667 44.3333 20.0417 44.5 20.025C44.6667 20.0083 44.8333 20 45 20C45.1667 20 45.3333 20.0083 45.5 20.025C45.6667 20.0417 45.8333 20.0667 46 20.1V18H44V20.1ZM45 28C45.8333 28 46.5417 27.7083 47.125 27.125C47.7083 26.5417 48 25.8333 48 25C48 24.1667 47.7083 23.4583 47.125 22.875C46.5417 22.2917 45.8333 22 45 22C44.1667 22 43.4583 22.2917 42.875 22.875C42.2917 23.4583 42 24.1667 42 25C42 25.8333 42.2917 26.5417 42.875 27.125C43.4583 27.7083 44.1667 28 45 28Z" fill="#3C57E1"/>
<path d="M11.6269 64.12C9.49088 64.12 8.13488 62.932 7.96688 60.892H9.59888C9.70688 62.092 10.4629 62.8 11.6629 62.8C12.8749 62.8 13.5829 62.296 13.5829 61.456C13.5829 60.424 12.5269 60.268 11.3629 60.088C9.89888 59.884 8.20688 59.632 8.20688 57.664C8.20688 55.936 9.47888 55 11.6269 55C13.5829 55 14.8549 56.152 15.0229 58.096H13.3789C13.3069 56.98 12.6229 56.32 11.5429 56.32C10.4989 56.32 9.88688 56.776 9.88688 57.544C9.88688 58.42 10.8709 58.576 11.9749 58.744C13.4749 58.96 15.2629 59.236 15.2629 61.288C15.2629 63.064 13.9189 64.12 11.6269 64.12ZM20.2626 57.856C21.7746 57.856 22.6746 59.02 22.6746 60.988C22.6746 62.956 21.7746 64.12 20.2626 64.12C18.9186 64.12 18.1146 63.304 18.1146 61.924H18.0906V66.76H16.5066V57.976H18.0906V60.04H18.1146C18.1146 58.672 18.9186 57.856 20.2626 57.856ZM19.5306 62.86C20.4906 62.86 21.0546 62.164 21.0546 60.988C21.0546 59.812 20.4906 59.116 19.5306 59.116C18.5706 59.116 18.0066 59.872 18.0066 60.988C18.0066 62.092 18.5706 62.86 19.5306 62.86ZM29.5285 60.988V61.168H25.1365C25.1965 62.272 25.7245 62.92 26.5765 62.92C27.3205 62.92 27.8365 62.512 27.9925 61.852H29.5285C29.3125 63.28 28.2085 64.12 26.5765 64.12C24.7045 64.12 23.6005 62.956 23.6005 60.988C23.6005 59.008 24.7045 57.856 26.5765 57.856C28.4245 57.856 29.5285 59.008 29.5285 60.988ZM26.5765 59.044C25.7725 59.044 25.2565 59.62 25.1485 60.628H27.9805C27.8845 59.62 27.3685 59.044 26.5765 59.044ZM33.5406 64.12C31.5966 64.12 30.4326 62.956 30.4326 60.988C30.4326 59.02 31.5966 57.856 33.5406 57.856C35.1846 57.856 36.2526 58.72 36.4926 60.208H34.9326C34.7286 59.512 34.2486 59.104 33.5406 59.104C32.6046 59.104 32.0526 59.812 32.0526 60.988C32.0526 62.164 32.6046 62.86 33.5406 62.86C34.2846 62.86 34.7766 62.428 34.9566 61.684H36.5166C36.2886 63.232 35.2206 64.12 33.5406 64.12ZM37.6589 56.824V55.324H39.2429V56.824H37.6589ZM37.6589 64V57.976H39.2429V64H37.6589ZM45.0833 57.976H46.6673V64H45.0833V61.924H45.0593C45.0593 63.304 44.2553 64.12 42.9113 64.12C41.3993 64.12 40.5113 62.956 40.5113 60.988C40.5113 59.02 41.3993 57.856 42.9113 57.856C44.2553 57.856 45.0593 58.672 45.0593 60.04H45.0833V57.976ZM43.6433 62.86C44.6033 62.86 45.1673 62.092 45.1673 60.988C45.1673 59.872 44.6033 59.104 43.6433 59.104C42.6833 59.104 42.1193 59.812 42.1193 60.988C42.1193 62.164 42.6833 62.86 43.6433 62.86ZM48.2292 64V54.76H49.8132V64H48.2292ZM55.8431 62.668H59.7431V64H54.1871V55.12H55.8431V62.668ZM60.7448 56.824V55.324H62.3288V56.824H60.7448ZM60.7448 64V57.976H62.3288V64H60.7448ZM68.1692 57.976H69.7532V64.072C69.7532 65.836 68.6252 66.88 66.7292 66.88C65.0972 66.88 63.9932 66.076 63.7772 64.72L65.2772 64.492C65.3732 65.2 65.9252 65.62 66.7292 65.62C67.6292 65.62 68.1692 65.08 68.1692 64.168V61.864H68.1452C68.1452 63.232 67.3412 64.048 65.9972 64.048C64.4852 64.048 63.5972 62.896 63.5972 60.952C63.5972 59.008 64.4852 57.856 65.9972 57.856C67.3412 57.856 68.1452 58.672 68.1452 60.04H68.1692V57.976ZM66.7292 62.788C67.6892 62.788 68.2532 62.044 68.2532 60.952C68.2532 59.86 67.6892 59.104 66.7292 59.104C65.7692 59.104 65.2052 59.8 65.2052 60.952C65.2052 62.104 65.7692 62.788 66.7292 62.788ZM74.8792 57.856C76.2112 57.856 76.9912 58.768 76.9912 60.328V64H75.4072V60.4C75.4072 59.584 74.9752 59.104 74.2312 59.104C73.3912 59.104 72.8992 59.716 72.8992 60.736V64H71.3152V54.76H72.8992V60.088H72.9232C72.9232 58.684 73.6552 57.856 74.8792 57.856ZM82.2087 59.068H80.3367V61.972C80.3367 62.536 80.6967 62.86 81.2967 62.86C81.5847 62.86 81.8847 62.788 82.1007 62.668V63.844C81.7407 64.012 81.2487 64.12 80.7927 64.12C79.5087 64.12 78.7527 63.4 78.7527 62.176V59.068H77.8887V57.976H78.8487V55.96H80.4327V56.464C80.4327 57.232 79.8567 57.772 78.8967 57.952V57.976H82.2087V59.068ZM31.9765 78.12C29.8405 78.12 28.4845 76.932 28.3165 74.892H29.9485C30.0565 76.092 30.8125 76.8 32.0125 76.8C33.2245 76.8 33.9325 76.296 33.9325 75.456C33.9325 74.424 32.8765 74.268 31.7125 74.088C30.2485 73.884 28.5565 73.632 28.5565 71.664C28.5565 69.936 29.8285 69 31.9765 69C33.9325 69 35.2045 70.152 35.3725 72.096H33.7285C33.6565 70.98 32.9725 70.32 31.8925 70.32C30.8485 70.32 30.2365 70.776 30.2365 71.544C30.2365 72.42 31.2205 72.576 32.3245 72.744C33.8245 72.96 35.6125 73.236 35.6125 75.288C35.6125 77.064 34.2685 78.12 31.9765 78.12ZM42.4602 74.988V75.168H38.0682C38.1282 76.272 38.6562 76.92 39.5082 76.92C40.2522 76.92 40.7682 76.512 40.9242 75.852H42.4602C42.2442 77.28 41.1402 78.12 39.5082 78.12C37.6362 78.12 36.5322 76.956 36.5322 74.988C36.5322 73.008 37.6362 71.856 39.5082 71.856C41.3562 71.856 42.4602 73.008 42.4602 74.988ZM39.5082 73.044C38.7042 73.044 38.1882 73.62 38.0802 74.628H40.9122C40.8162 73.62 40.3002 73.044 39.5082 73.044ZM47.3865 73.068H45.5145V75.972C45.5145 76.536 45.8745 76.86 46.4745 76.86C46.7625 76.86 47.0625 76.788 47.2785 76.668V77.844C46.9185 78.012 46.4265 78.12 45.9705 78.12C44.6865 78.12 43.9305 77.4 43.9305 76.176V73.068H43.0665V71.976H44.0265V69.96H45.6105V70.464C45.6105 71.232 45.0345 71.772 44.0745 71.952V71.976H47.3865V73.068ZM52.3229 71.976H53.9069V78H52.3229V75.876H52.2989C52.2989 77.28 51.6029 78.12 50.4149 78.12C49.1189 78.12 48.3509 77.196 48.3509 75.648V71.976H49.9349V75.576C49.9349 76.392 50.3549 76.86 51.0629 76.86C51.8549 76.86 52.3229 76.26 52.3229 75.228V71.976ZM59.2215 71.856C60.7335 71.856 61.6335 73.02 61.6335 74.988C61.6335 76.956 60.7335 78.12 59.2215 78.12C57.8775 78.12 57.0735 77.304 57.0735 75.924H57.0495V80.76H55.4655V71.976H57.0495V74.04H57.0735C57.0735 72.672 57.8775 71.856 59.2215 71.856ZM58.4895 76.86C59.4495 76.86 60.0135 76.164 60.0135 74.988C60.0135 73.812 59.4495 73.116 58.4895 73.116C57.5295 73.116 56.9655 73.872 56.9655 74.988C56.9655 76.092 57.5295 76.86 58.4895 76.86Z" fill="#001A64"/>
</svg>
