<svg width="90" height="90" viewBox="0 0 90 90" fill="none" xmlns="http://www.w3.org/2000/svg">
<rect x="0.5" y="0.5" width="89" height="89" rx="7.5" fill="#FBFCFF"/>
<rect x="0.5" y="0.5" width="89" height="89" rx="7.5" stroke="#F0F0F0"/>
<g clip-path="url(#clip0_13312_537)">
<path d="M42.9 27.1C42.3667 26.5667 41.8792 26.0083 41.4375 25.425C40.9958 24.8417 40.5917 24.225 40.225 23.575C40.1417 23.8083 40.0875 24.0458 40.0625 24.2875C40.0375 24.5292 40.025 24.7667 40.025 25C40.025 26.3833 40.5083 27.5583 41.475 28.525C42.4417 29.4917 43.6167 29.975 45 29.975C45.2333 29.975 45.4708 29.9583 45.7125 29.925C45.9542 29.8917 46.1917 29.8417 46.425 29.775C45.775 29.4083 45.1583 29.0042 44.575 28.5625C43.9917 28.1208 43.4333 27.6333 42.9 27.1ZM44.325 25.7C45.175 26.55 46.125 27.2792 47.175 27.8875C48.225 28.4958 49.35 28.9667 50.55 29.3C49.8833 30.15 49.0667 30.8125 48.1 31.2875C47.1333 31.7625 46.1083 32 45.025 32C43.075 32 41.4208 31.3208 40.0625 29.9625C38.7042 28.6042 38.025 26.95 38.025 25C38.025 23.9167 38.2625 22.8917 38.7375 21.925C39.2125 20.9583 39.875 20.1417 40.725 19.475C41.0583 20.675 41.5292 21.8 42.1375 22.85C42.7458 23.9 43.475 24.85 44.325 25.7ZM51.575 27.5C51.2417 27.4167 50.9125 27.325 50.5875 27.225C50.2625 27.125 49.9417 27.0083 49.625 26.875C49.7583 26.575 49.8542 26.2708 49.9125 25.9625C49.9708 25.6542 50 25.3333 50 25C50 23.6167 49.5125 22.4375 48.5375 21.4625C47.5625 20.4875 46.3833 20 45 20C44.6667 20 44.3458 20.0292 44.0375 20.0875C43.7292 20.1458 43.425 20.2417 43.125 20.375C42.9917 20.0583 42.8792 19.7417 42.7875 19.425C42.6958 19.1083 42.6083 18.7833 42.525 18.45C42.925 18.3 43.3333 18.1875 43.75 18.1125C44.1667 18.0375 44.5917 18 45.025 18C46.975 18 48.6292 18.6792 49.9875 20.0375C51.3458 21.3958 52.025 23.05 52.025 25C52.025 25.4333 51.9875 25.8583 51.9125 26.275C51.8375 26.6917 51.725 27.1 51.575 27.5ZM44 16V13H46V16H44ZM44 37V34H46V37H44ZM52.075 19.35L50.65 17.925L52.775 15.825L54.2 17.225L52.075 19.35ZM37.225 34.175L35.8 32.775L37.925 30.65L39.35 32.075L37.225 34.175ZM54 26V24H57V26H54ZM33 26V24H36V26H33ZM52.775 34.2L50.65 32.075L52.075 30.65L54.175 32.775L52.775 34.2ZM37.925 19.35L35.825 17.225L37.225 15.8L39.35 17.925L37.925 19.35Z" fill="#3C57E1"/>
</g>
<path d="M37.8769 64.12C35.7409 64.12 34.3849 62.932 34.2169 60.892H35.8489C35.9569 62.092 36.7129 62.8 37.9129 62.8C39.1249 62.8 39.8329 62.296 39.8329 61.456C39.8329 60.424 38.7769 60.268 37.6129 60.088C36.1489 59.884 34.4569 59.632 34.4569 57.664C34.4569 55.936 35.7289 55 37.8769 55C39.8329 55 41.1049 56.152 41.2729 58.096H39.6289C39.5569 56.98 38.8729 56.32 37.7929 56.32C36.7489 56.32 36.1369 56.776 36.1369 57.544C36.1369 58.42 37.1209 58.576 38.2249 58.744C39.7249 58.96 41.5129 59.236 41.5129 61.288C41.5129 63.064 40.1689 64.12 37.8769 64.12ZM46.6686 57.976H48.2526V64H46.6686V61.876H46.6446C46.6446 63.28 45.9486 64.12 44.7606 64.12C43.4646 64.12 42.6966 63.196 42.6966 61.648V57.976H44.2806V61.576C44.2806 62.392 44.7006 62.86 45.4086 62.86C46.2006 62.86 46.6686 62.26 46.6686 61.228V57.976ZM53.3753 57.856C54.7073 57.856 55.4873 58.768 55.4873 60.328V64H53.9033V60.4C53.9033 59.584 53.4713 59.104 52.7273 59.104C51.8873 59.104 51.3953 59.716 51.3953 60.736V64H49.8113V57.976H51.3953V60.088H51.4193C51.4193 58.684 52.1513 57.856 53.3753 57.856ZM17.9257 78.12C15.7897 78.12 14.4337 76.932 14.2657 74.892H15.8977C16.0057 76.092 16.7617 76.8 17.9617 76.8C19.1737 76.8 19.8817 76.296 19.8817 75.456C19.8817 74.424 18.8257 74.268 17.6617 74.088C16.1977 73.884 14.5057 73.632 14.5057 71.664C14.5057 69.936 15.7777 69 17.9257 69C19.8817 69 21.1537 70.152 21.3217 72.096H19.6777C19.6057 70.98 18.9217 70.32 17.8417 70.32C16.7977 70.32 16.1857 70.776 16.1857 71.544C16.1857 72.42 17.1697 72.576 18.2737 72.744C19.7737 72.96 21.5617 73.236 21.5617 75.288C21.5617 77.064 20.2177 78.12 17.9257 78.12ZM22.8054 70.824V69.324H24.3894V70.824H22.8054ZM22.8054 78V71.976H24.3894V78H22.8054ZM33.4217 71.856C34.7177 71.856 35.4857 72.744 35.4857 74.268V78H33.9017V74.34C33.9017 73.56 33.4817 73.104 32.7737 73.104C31.9817 73.104 31.5137 73.692 31.5137 74.676V78H29.9297V74.34C29.9297 73.56 29.5217 73.104 28.8137 73.104C28.0097 73.104 27.5417 73.692 27.5417 74.676V78H25.9577V71.976H27.5417V74.064H27.5657C27.5657 72.672 28.2977 71.856 29.5097 71.856C30.7697 71.856 31.5137 72.708 31.5137 74.064H31.5377C31.5377 72.672 32.2337 71.856 33.4217 71.856ZM40.8971 71.976H42.4811V78H40.8971V75.876H40.8731C40.8731 77.28 40.1771 78.12 38.9891 78.12C37.6931 78.12 36.9251 77.196 36.9251 75.648V71.976H38.5091V75.576C38.5091 76.392 38.9291 76.86 39.6371 76.86C40.4291 76.86 40.8971 76.26 40.8971 75.228V71.976ZM44.0398 78V68.76H45.6238V78H44.0398ZM51.4641 71.976H53.0481V78H51.4641V75.924H51.4401C51.4401 77.304 50.6361 78.12 49.2921 78.12C47.7801 78.12 46.8921 76.956 46.8921 74.988C46.8921 73.02 47.7801 71.856 49.2921 71.856C50.6361 71.856 51.4401 72.672 51.4401 74.04H51.4641V71.976ZM50.0241 76.86C50.9841 76.86 51.5481 76.092 51.5481 74.988C51.5481 73.872 50.9841 73.104 50.0241 73.104C49.0641 73.104 48.5001 73.812 48.5001 74.988C48.5001 76.164 49.0641 76.86 50.0241 76.86ZM58.4021 73.068H56.5301V75.972C56.5301 76.536 56.8901 76.86 57.4901 76.86C57.7781 76.86 58.0781 76.788 58.2941 76.668V77.844C57.9341 78.012 57.4421 78.12 56.9861 78.12C55.7021 78.12 54.9461 77.4 54.9461 76.176V73.068H54.0821V71.976H55.0421V69.96H56.6261V70.464C56.6261 71.232 56.0501 71.772 55.0901 71.952V71.976H58.4021V73.068ZM59.4265 70.824V69.324H61.0105V70.824H59.4265ZM59.4265 78V71.976H61.0105V78H59.4265ZM65.3988 78.12C63.4308 78.12 62.2548 76.956 62.2548 74.988C62.2548 73.02 63.4308 71.856 65.3988 71.856C67.3668 71.856 68.5308 73.02 68.5308 74.988C68.5308 76.956 67.3668 78.12 65.3988 78.12ZM65.3988 76.86C66.3588 76.86 66.9228 76.164 66.9228 74.988C66.9228 73.812 66.3588 73.104 65.3988 73.104C64.4388 73.104 63.8748 73.812 63.8748 74.988C63.8748 76.164 64.4388 76.86 65.3988 76.86ZM73.3264 71.856C74.6584 71.856 75.4384 72.768 75.4384 74.328V78H73.8544V74.4C73.8544 73.584 73.4224 73.104 72.6784 73.104C71.8384 73.104 71.3464 73.716 71.3464 74.736V78H69.7624V71.976H71.3464V74.088H71.3704C71.3704 72.684 72.1024 71.856 73.3264 71.856Z" fill="#001A64"/>
<defs>
<clipPath id="clip0_13312_537">
<rect width="24" height="24" fill="white" transform="translate(33 13)"/>
</clipPath>
</defs>
</svg>
