<svg width="90" height="90" viewBox="0 0 90 90" fill="none" xmlns="http://www.w3.org/2000/svg">
<rect x="0.5" y="0.5" width="89" height="89" rx="7.5" fill="#FBFCFF"/>
<rect x="0.5" y="0.5" width="89" height="89" rx="7.5" stroke="#F0F0F0"/>
<path d="M46 16H39V34H43V28H46C49.31 28 52 25.31 52 22C52 18.69 49.31 16 46 16ZM46.2 24H43V20H46.2C47.3 20 48.2 20.9 48.2 22C48.2 23.1 47.3 24 46.2 24Z" fill="#3C57E1"/>
<path d="M26.8192 55.12C28.8712 55.12 30.0832 56.152 30.0832 57.904C30.0832 59.656 28.8712 60.688 26.8072 60.688H25.1752V64H23.5192V55.12H26.8192ZM26.8912 59.404C27.8152 59.404 28.3672 58.84 28.3672 57.904C28.3672 56.968 27.8272 56.404 26.8912 56.404H25.1752V59.404H26.8912ZM35.2747 57.976H36.8587V64H35.2747V61.924H35.2507C35.2507 63.304 34.4467 64.12 33.1027 64.12C31.5907 64.12 30.7027 62.956 30.7027 60.988C30.7027 59.02 31.5907 57.856 33.1027 57.856C34.4467 57.856 35.2507 58.672 35.2507 60.04H35.2747V57.976ZM33.8347 62.86C34.7947 62.86 35.3587 62.092 35.3587 60.988C35.3587 59.872 34.7947 59.104 33.8347 59.104C32.8747 59.104 32.3107 59.812 32.3107 60.988C32.3107 62.164 32.8747 62.86 33.8347 62.86ZM41.8526 57.856C42.2006 57.856 42.5366 57.928 42.7766 58.048L42.3206 59.464C42.0806 59.332 41.7806 59.248 41.4806 59.248C40.5566 59.248 40.0046 60.004 40.0046 61.276V64H38.4206V57.976H40.0046V60.46H40.0286C40.0286 58.816 40.7126 57.856 41.8526 57.856ZM46.9369 60.844L49.7689 64H47.8249L45.1849 60.916H45.1609V64H43.5769V54.76H45.1609V60.808H45.1849L47.6209 57.976H49.4929L46.9369 60.844ZM50.5027 56.824V55.324H52.0867V56.824H50.5027ZM50.5027 64V57.976H52.0867V64H50.5027ZM57.219 57.856C58.551 57.856 59.331 58.768 59.331 60.328V64H57.747V60.4C57.747 59.584 57.315 59.104 56.571 59.104C55.731 59.104 55.239 59.716 55.239 60.736V64H53.655V57.976H55.239V60.088H55.263C55.263 58.684 55.995 57.856 57.219 57.856ZM65.0989 57.976H66.6829V64.072C66.6829 65.836 65.5549 66.88 63.6589 66.88C62.0269 66.88 60.9229 66.076 60.7069 64.72L62.2069 64.492C62.3029 65.2 62.8549 65.62 63.6589 65.62C64.5589 65.62 65.0989 65.08 65.0989 64.168V61.864H65.0749C65.0749 63.232 64.2709 64.048 62.9269 64.048C61.4149 64.048 60.5269 62.896 60.5269 60.952C60.5269 59.008 61.4149 57.856 62.9269 57.856C64.2709 57.856 65.0749 58.672 65.0749 60.04H65.0989V57.976ZM63.6589 62.788C64.6189 62.788 65.1829 62.044 65.1829 60.952C65.1829 59.86 64.6189 59.104 63.6589 59.104C62.6989 59.104 62.1349 59.8 62.1349 60.952C62.1349 62.104 62.6989 62.788 63.6589 62.788ZM22.4362 69.12H24.0082V78H21.2722L18.4402 69.264H18.4162L18.4762 78H16.8922V69.12H19.6522L22.4842 77.856H22.5082L22.4362 69.12ZM29.9954 71.976H31.5794V78H29.9954V75.924H29.9714C29.9714 77.304 29.1674 78.12 27.8234 78.12C26.3114 78.12 25.4234 76.956 25.4234 74.988C25.4234 73.02 26.3114 71.856 27.8234 71.856C29.1674 71.856 29.9714 72.672 29.9714 74.04H29.9954V71.976ZM28.5554 76.86C29.5154 76.86 30.0794 76.092 30.0794 74.988C30.0794 73.872 29.5154 73.104 28.5554 73.104C27.5954 73.104 27.0314 73.812 27.0314 74.988C27.0314 76.164 27.5954 76.86 28.5554 76.86ZM37.0653 71.976H38.7573L37.1853 78H34.1973L32.6133 71.976H34.3053L35.6853 77.892H35.7093L37.0653 71.976ZM39.7976 70.824V69.324H41.3816V70.824H39.7976ZM39.7976 78V71.976H41.3816V78H39.7976ZM47.2219 71.976H48.8059V78.072C48.8059 79.836 47.6779 80.88 45.7819 80.88C44.1499 80.88 43.0459 80.076 42.8299 78.72L44.3299 78.492C44.4259 79.2 44.9779 79.62 45.7819 79.62C46.6819 79.62 47.2219 79.08 47.2219 78.168V75.864H47.1979C47.1979 77.232 46.3939 78.048 45.0499 78.048C43.5379 78.048 42.6499 76.896 42.6499 74.952C42.6499 73.008 43.5379 71.856 45.0499 71.856C46.3939 71.856 47.1979 72.672 47.1979 74.04H47.2219V71.976ZM45.7819 76.788C46.7419 76.788 47.3059 76.044 47.3059 74.952C47.3059 73.86 46.7419 73.104 45.7819 73.104C44.8219 73.104 44.2579 73.8 44.2579 74.952C44.2579 76.104 44.8219 76.788 45.7819 76.788ZM54.6399 71.976H56.2239V78H54.6399V75.924H54.6159C54.6159 77.304 53.8119 78.12 52.4679 78.12C50.9559 78.12 50.0679 76.956 50.0679 74.988C50.0679 73.02 50.9559 71.856 52.4679 71.856C53.8119 71.856 54.6159 72.672 54.6159 74.04H54.6399V71.976ZM53.1999 76.86C54.1599 76.86 54.7239 76.092 54.7239 74.988C54.7239 73.872 54.1599 73.104 53.1999 73.104C52.2399 73.104 51.6759 73.812 51.6759 74.988C51.6759 76.164 52.2399 76.86 53.1999 76.86ZM61.5779 73.068H59.7059V75.972C59.7059 76.536 60.0659 76.86 60.6659 76.86C60.9539 76.86 61.2539 76.788 61.4699 76.668V77.844C61.1099 78.012 60.6179 78.12 60.1619 78.12C58.8779 78.12 58.1219 77.4 58.1219 76.176V73.068H57.2579V71.976H58.2179V69.96H59.8019V70.464C59.8019 71.232 59.2259 71.772 58.2659 71.952V71.976H61.5779V73.068ZM65.352 78.12C63.384 78.12 62.208 76.956 62.208 74.988C62.208 73.02 63.384 71.856 65.352 71.856C67.32 71.856 68.484 73.02 68.484 74.988C68.484 76.956 67.32 78.12 65.352 78.12ZM65.352 76.86C66.312 76.86 66.876 76.164 66.876 74.988C66.876 73.812 66.312 73.104 65.352 73.104C64.392 73.104 63.828 73.812 63.828 74.988C63.828 76.164 64.392 76.86 65.352 76.86ZM73.1475 71.856C73.4955 71.856 73.8315 71.928 74.0715 72.048L73.6155 73.464C73.3755 73.332 73.0755 73.248 72.7755 73.248C71.8515 73.248 71.2995 74.004 71.2995 75.276V78H69.7155V71.976H71.2995V74.46H71.3235C71.3235 72.816 72.0075 71.856 73.1475 71.856Z" fill="#001A64"/>
</svg>
