<svg width="90" height="90" viewBox="0 0 90 90" fill="none" xmlns="http://www.w3.org/2000/svg">
<rect x="0.5" y="0.5" width="89" height="89" rx="7.5" fill="#FCFCFC"/>
<rect x="0.5" y="0.5" width="89" height="89" rx="7.5" stroke="#F0F0F0"/>
<path d="M42 32V30H54V32H42ZM42 26V24H54V26H42ZM42 20V18H54V20H42ZM38 33C37.45 33 36.9792 32.8042 36.5875 32.4125C36.1958 32.0208 36 31.55 36 31C36 30.45 36.1958 29.9792 36.5875 29.5875C36.9792 29.1958 37.45 29 38 29C38.55 29 39.0208 29.1958 39.4125 29.5875C39.8042 29.9792 40 30.45 40 31C40 31.55 39.8042 32.0208 39.4125 32.4125C39.0208 32.8042 38.55 33 38 33ZM38 27C37.45 27 36.9792 26.8042 36.5875 26.4125C36.1958 26.0208 36 25.55 36 25C36 24.45 36.1958 23.9792 36.5875 23.5875C36.9792 23.1958 37.45 23 38 23C38.55 23 39.0208 23.1958 39.4125 23.5875C39.8042 23.9792 40 24.45 40 25C40 25.55 39.8042 26.0208 39.4125 26.4125C39.0208 26.8042 38.55 27 38 27ZM38 21C37.45 21 36.9792 20.8042 36.5875 20.4125C36.1958 20.0208 36 19.55 36 19C36 18.45 36.1958 17.9792 36.5875 17.5875C36.9792 17.1958 37.45 17 38 17C38.55 17 39.0208 17.1958 39.4125 17.5875C39.8042 17.9792 40 18.45 40 19C40 19.55 39.8042 20.0208 39.4125 20.4125C39.0208 20.8042 38.55 21 38 21Z" fill="#3C57E1"/>
<path d="M20.0905 55.12L20.3905 64H18.7345L18.4585 55.264H18.4345L16.5265 64H13.6345L11.8585 55.264H11.8345L11.5585 64H9.98648L10.2985 55.12H13.4905L15.1225 63.856H15.1465L16.8985 55.12H20.0905ZM26.2454 57.976H27.8294V64H26.2454V61.924H26.2214C26.2214 63.304 25.4174 64.12 24.0734 64.12C22.5614 64.12 21.6734 62.956 21.6734 60.988C21.6734 59.02 22.5614 57.856 24.0734 57.856C25.4174 57.856 26.2214 58.672 26.2214 60.04H26.2454V57.976ZM24.8054 62.86C25.7654 62.86 26.3294 62.092 26.3294 60.988C26.3294 59.872 25.7654 59.104 24.8054 59.104C23.8454 59.104 23.2814 59.812 23.2814 60.988C23.2814 62.164 23.8454 62.86 24.8054 62.86ZM33.1833 59.068H31.3113V61.972C31.3113 62.536 31.6713 62.86 32.2713 62.86C32.5593 62.86 32.8593 62.788 33.0753 62.668V63.844C32.7153 64.012 32.2233 64.12 31.7673 64.12C30.4833 64.12 29.7273 63.4 29.7273 62.176V59.068H28.8633V57.976H29.8233V55.96H31.4073V56.464C31.4073 57.232 30.8313 57.772 29.8713 57.952V57.976H33.1833V59.068ZM39.7414 60.988V61.168H35.3494C35.4094 62.272 35.9374 62.92 36.7894 62.92C37.5334 62.92 38.0494 62.512 38.2054 61.852H39.7414C39.5254 63.28 38.4214 64.12 36.7894 64.12C34.9174 64.12 33.8134 62.956 33.8134 60.988C33.8134 59.008 34.9174 57.856 36.7894 57.856C38.6374 57.856 39.7414 59.008 39.7414 60.988ZM36.7894 59.044C35.9854 59.044 35.4694 59.62 35.3614 60.628H38.1934C38.0974 59.62 37.5814 59.044 36.7894 59.044ZM44.4015 57.856C44.7495 57.856 45.0855 57.928 45.3255 58.048L44.8695 59.464C44.6295 59.332 44.3295 59.248 44.0295 59.248C43.1055 59.248 42.5535 60.004 42.5535 61.276V64H40.9695V57.976H42.5535V60.46H42.5775C42.5775 58.816 43.2615 57.856 44.4015 57.856ZM46.1257 56.824V55.324H47.7097V56.824H46.1257ZM46.1257 64V57.976H47.7097V64H46.1257ZM53.55 57.976H55.134V64H53.55V61.924H53.526C53.526 63.304 52.722 64.12 51.378 64.12C49.866 64.12 48.978 62.956 48.978 60.988C48.978 59.02 49.866 57.856 51.378 57.856C52.722 57.856 53.526 58.672 53.526 60.04H53.55V57.976ZM52.11 62.86C53.07 62.86 53.634 62.092 53.634 60.988C53.634 59.872 53.07 59.104 52.11 59.104C51.15 59.104 50.586 59.812 50.586 60.988C50.586 62.164 51.15 62.86 52.11 62.86ZM56.696 64V54.76H58.28V64H56.696ZM59.8484 56.824V55.324H61.4324V56.824H59.8484ZM59.8484 64V57.976H61.4324V64H59.8484ZM62.8807 62.896H68.2567V64H62.7247V61.444L67.8727 59.092V59.068H62.7967V57.976H68.0287V60.532L62.8807 62.872V62.896ZM73.6711 57.976H75.2551V64H73.6711V61.924H73.6471C73.6471 63.304 72.8431 64.12 71.4991 64.12C69.9871 64.12 69.0991 62.956 69.0991 60.988C69.0991 59.02 69.9871 57.856 71.4991 57.856C72.8431 57.856 73.6471 58.672 73.6471 60.04H73.6711V57.976ZM72.2311 62.86C73.1911 62.86 73.7551 62.092 73.7551 60.988C73.7551 59.872 73.1911 59.104 72.2311 59.104C71.2711 59.104 70.7071 59.812 70.7071 60.988C70.7071 62.164 71.2711 62.86 72.2311 62.86ZM80.6091 59.068H78.7371V61.972C78.7371 62.536 79.0971 62.86 79.6971 62.86C79.9851 62.86 80.2851 62.788 80.5011 62.668V63.844C80.1411 64.012 79.6491 64.12 79.1931 64.12C77.9091 64.12 77.1531 63.4 77.1531 62.176V59.068H76.2891V57.976H77.2491V55.96H78.8331V56.464C78.8331 57.232 78.2571 57.772 77.2971 57.952V57.976H80.6091V59.068ZM11.573 70.824V69.324H13.157V70.824H11.573ZM11.573 78V71.976H13.157V78H11.573ZM17.5453 78.12C15.5773 78.12 14.4013 76.956 14.4013 74.988C14.4013 73.02 15.5773 71.856 17.5453 71.856C19.5133 71.856 20.6773 73.02 20.6773 74.988C20.6773 76.956 19.5133 78.12 17.5453 78.12ZM17.5453 76.86C18.5053 76.86 19.0693 76.164 19.0693 74.988C19.0693 73.812 18.5053 73.104 17.5453 73.104C16.5853 73.104 16.0213 73.812 16.0213 74.988C16.0213 76.164 16.5853 76.86 17.5453 76.86ZM25.4729 71.856C26.8049 71.856 27.5849 72.768 27.5849 74.328V78H26.0009V74.4C26.0009 73.584 25.5689 73.104 24.8249 73.104C23.9849 73.104 23.4929 73.716 23.4929 74.736V78H21.9089V71.976H23.4929V74.088H23.5169C23.5169 72.684 24.2489 71.856 25.4729 71.856ZM31.8863 78V69.12H34.7663C37.5623 69.12 39.2183 70.776 39.2183 73.56C39.2183 76.344 37.5623 78 34.7663 78H31.8863ZM33.5423 76.716H34.8623C36.5183 76.716 37.5023 75.54 37.5023 73.56C37.5023 71.58 36.5183 70.404 34.8623 70.404H33.5423V76.716ZM46.1106 74.988V75.168H41.7186C41.7786 76.272 42.3066 76.92 43.1586 76.92C43.9026 76.92 44.4186 76.512 44.5746 75.852H46.1106C45.8946 77.28 44.7906 78.12 43.1586 78.12C41.2866 78.12 40.1826 76.956 40.1826 74.988C40.1826 73.008 41.2866 71.856 43.1586 71.856C45.0066 71.856 46.1106 73.008 46.1106 74.988ZM43.1586 73.044C42.3546 73.044 41.8386 73.62 41.7306 74.628H44.5626C44.4666 73.62 43.9506 73.044 43.1586 73.044ZM51.0368 73.068H49.1648V75.972C49.1648 76.536 49.5248 76.86 50.1248 76.86C50.4128 76.86 50.7128 76.788 50.9288 76.668V77.844C50.5688 78.012 50.0768 78.12 49.6208 78.12C48.3368 78.12 47.5808 77.4 47.5808 76.176V73.068H46.7168V71.976H47.6768V69.96H49.2608V70.464C49.2608 71.232 48.6848 71.772 47.7248 71.952V71.976H51.0368V73.068ZM56.2864 71.976H57.8704V78H56.2864V75.924H56.2624C56.2624 77.304 55.4584 78.12 54.1144 78.12C52.6024 78.12 51.7144 76.956 51.7144 74.988C51.7144 73.02 52.6024 71.856 54.1144 71.856C55.4584 71.856 56.2624 72.672 56.2624 74.04H56.2864V71.976ZM54.8464 76.86C55.8064 76.86 56.3704 76.092 56.3704 74.988C56.3704 73.872 55.8064 73.104 54.8464 73.104C53.8864 73.104 53.3224 73.812 53.3224 74.988C53.3224 76.164 53.8864 76.86 54.8464 76.86ZM59.4323 70.824V69.324H61.0163V70.824H59.4323ZM59.4323 78V71.976H61.0163V78H59.4323ZM62.5847 78V68.76H64.1687V78H62.5847ZM71.341 74.988V75.168H66.949C67.009 76.272 67.537 76.92 68.389 76.92C69.133 76.92 69.649 76.512 69.805 75.852H71.341C71.125 77.28 70.021 78.12 68.389 78.12C66.517 78.12 65.413 76.956 65.413 74.988C65.413 73.008 66.517 71.856 68.389 71.856C70.237 71.856 71.341 73.008 71.341 74.988ZM68.389 73.044C67.585 73.044 67.069 73.62 66.961 74.628H69.793C69.697 73.62 69.181 73.044 68.389 73.044ZM76.8411 68.76H78.4251V78H76.8411V75.924H76.8171C76.8171 77.304 76.0131 78.12 74.6691 78.12C73.1571 78.12 72.2691 76.956 72.2691 74.988C72.2691 73.02 73.1571 71.856 74.6691 71.856C76.0131 71.856 76.8171 72.672 76.8171 74.04H76.8411V68.76ZM75.4011 76.86C76.3611 76.86 76.9251 76.092 76.9251 74.988C76.9251 73.872 76.3611 73.104 75.4011 73.104C74.4411 73.104 73.8771 73.812 73.8771 74.988C73.8771 76.164 74.4411 76.86 75.4011 76.86Z" fill="#001A64"/>
</svg>
