<svg width="90" height="90" viewBox="0 0 90 90" fill="none" xmlns="http://www.w3.org/2000/svg">
<rect x="0.5" y="0.5" width="89" height="89" rx="7.5" fill="#FBFCFF"/>
<rect x="0.5" y="0.5" width="89" height="89" rx="7.5" stroke="#F0F0F0"/>
<path d="M46.5 26.48L42.5 22.48L35 29.99L36.5 31.49L42.5 25.48L46.5 29.48L55 19.92L53.59 18.51L46.5 26.48Z" fill="#3C57E1"/>
<path d="M31.7692 64V55.12H34.6492C37.4452 55.12 39.1012 56.776 39.1012 59.56C39.1012 62.344 37.4452 64 34.6492 64H31.7692ZM33.4252 62.716H34.7452C36.4012 62.716 37.3852 61.54 37.3852 59.56C37.3852 57.58 36.4012 56.404 34.7452 56.404H33.4252V62.716ZM44.6614 57.976H46.2454V64H44.6614V61.924H44.6374C44.6374 63.304 43.8334 64.12 42.4894 64.12C40.9774 64.12 40.0894 62.956 40.0894 60.988C40.0894 59.02 40.9774 57.856 42.4894 57.856C43.8334 57.856 44.6374 58.672 44.6374 60.04H44.6614V57.976ZM43.2214 62.86C44.1814 62.86 44.7454 62.092 44.7454 60.988C44.7454 59.872 44.1814 59.104 43.2214 59.104C42.2614 59.104 41.6974 59.812 41.6974 60.988C41.6974 62.164 42.2614 62.86 43.2214 62.86ZM51.5993 59.068H49.7273V61.972C49.7273 62.536 50.0873 62.86 50.6873 62.86C50.9753 62.86 51.2753 62.788 51.4913 62.668V63.844C51.1313 64.012 50.6393 64.12 50.1833 64.12C48.8993 64.12 48.1433 63.4 48.1433 62.176V59.068H47.2793V57.976H48.2393V55.96H49.8233V56.464C49.8233 57.232 49.2473 57.772 48.2873 57.952V57.976H51.5993V59.068ZM56.8489 57.976H58.4329V64H56.8489V61.924H56.8249C56.8249 63.304 56.0209 64.12 54.6769 64.12C53.1649 64.12 52.2769 62.956 52.2769 60.988C52.2769 59.02 53.1649 57.856 54.6769 57.856C56.0209 57.856 56.8249 58.672 56.8249 60.04H56.8489V57.976ZM55.4089 62.86C56.3689 62.86 56.9329 62.092 56.9329 60.988C56.9329 59.872 56.3689 59.104 55.4089 59.104C54.4489 59.104 53.8849 59.812 53.8849 60.988C53.8849 62.164 54.4489 62.86 55.4089 62.86ZM13.9215 78V69.12H16.8015C19.5975 69.12 21.2535 70.776 21.2535 73.56C21.2535 76.344 19.5975 78 16.8015 78H13.9215ZM15.5775 76.716H16.8975C18.5535 76.716 19.5375 75.54 19.5375 73.56C19.5375 71.58 18.5535 70.404 16.8975 70.404H15.5775V76.716ZM26.8137 71.976H28.3977V78H26.8137V75.924H26.7897C26.7897 77.304 25.9857 78.12 24.6417 78.12C23.1297 78.12 22.2417 76.956 22.2417 74.988C22.2417 73.02 23.1297 71.856 24.6417 71.856C25.9857 71.856 26.7897 72.672 26.7897 74.04H26.8137V71.976ZM25.3737 76.86C26.3337 76.86 26.8977 76.092 26.8977 74.988C26.8977 73.872 26.3337 73.104 25.3737 73.104C24.4137 73.104 23.8497 73.812 23.8497 74.988C23.8497 76.164 24.4137 76.86 25.3737 76.86ZM32.3117 78.12C30.5837 78.12 29.5757 77.352 29.5757 76.044H31.0517C31.0517 76.716 31.5197 77.112 32.3117 77.112C33.0797 77.112 33.5237 76.824 33.5237 76.32C33.5237 75.684 32.8157 75.564 32.0237 75.432C30.9797 75.264 29.7317 75.06 29.7317 73.68C29.7317 72.54 30.6917 71.856 32.3117 71.856C33.9197 71.856 34.8797 72.588 34.8797 73.836H33.4037C33.4037 73.2 33.0077 72.84 32.3117 72.84C31.6517 72.84 31.2557 73.104 31.2557 73.548C31.2557 74.088 31.9157 74.196 32.6837 74.328C33.7517 74.508 35.0477 74.724 35.0477 76.14C35.0477 77.376 34.0277 78.12 32.3117 78.12ZM39.8167 71.856C41.1487 71.856 41.9287 72.768 41.9287 74.328V78H40.3447V74.4C40.3447 73.584 39.9127 73.104 39.1687 73.104C38.3287 73.104 37.8367 73.716 37.8367 74.736V78H36.2527V68.76H37.8367V74.088H37.8607C37.8607 72.684 38.5927 71.856 39.8167 71.856ZM47.1805 71.856C48.6925 71.856 49.5925 73.02 49.5925 74.988C49.5925 76.956 48.6925 78.12 47.1805 78.12C45.8365 78.12 45.0325 77.304 45.0325 75.924H45.0085V78H43.4245V68.76H45.0085V74.04H45.0325C45.0325 72.672 45.8365 71.856 47.1805 71.856ZM46.4485 76.86C47.4085 76.86 47.9725 76.164 47.9725 74.988C47.9725 73.812 47.4085 73.104 46.4485 73.104C45.4885 73.104 44.9245 73.872 44.9245 74.988C44.9245 76.092 45.4885 76.86 46.4485 76.86ZM53.6625 78.12C51.6945 78.12 50.5185 76.956 50.5185 74.988C50.5185 73.02 51.6945 71.856 53.6625 71.856C55.6305 71.856 56.7945 73.02 56.7945 74.988C56.7945 76.956 55.6305 78.12 53.6625 78.12ZM53.6625 76.86C54.6225 76.86 55.1865 76.164 55.1865 74.988C55.1865 73.812 54.6225 73.104 53.6625 73.104C52.7025 73.104 52.1385 73.812 52.1385 74.988C52.1385 76.164 52.7025 76.86 53.6625 76.86ZM62.2981 71.976H63.8821V78H62.2981V75.924H62.2741C62.2741 77.304 61.4701 78.12 60.1261 78.12C58.6141 78.12 57.7261 76.956 57.7261 74.988C57.7261 73.02 58.6141 71.856 60.1261 71.856C61.4701 71.856 62.2741 72.672 62.2741 74.04H62.2981V71.976ZM60.8581 76.86C61.8181 76.86 62.3821 76.092 62.3821 74.988C62.3821 73.872 61.8181 73.104 60.8581 73.104C59.8981 73.104 59.3341 73.812 59.3341 74.988C59.3341 76.164 59.8981 76.86 60.8581 76.86ZM68.8761 71.856C69.2241 71.856 69.5601 71.928 69.8001 72.048L69.3441 73.464C69.1041 73.332 68.8041 73.248 68.5041 73.248C67.5801 73.248 67.0281 74.004 67.0281 75.276V78H65.4441V71.976H67.0281V74.46H67.0521C67.0521 72.816 67.7361 71.856 68.8761 71.856ZM74.6965 68.76H76.2805V78H74.6965V75.924H74.6725C74.6725 77.304 73.8685 78.12 72.5245 78.12C71.0125 78.12 70.1245 76.956 70.1245 74.988C70.1245 73.02 71.0125 71.856 72.5245 71.856C73.8685 71.856 74.6725 72.672 74.6725 74.04H74.6965V68.76ZM73.2565 76.86C74.2165 76.86 74.7805 76.092 74.7805 74.988C74.7805 73.872 74.2165 73.104 73.2565 73.104C72.2965 73.104 71.7325 73.812 71.7325 74.988C71.7325 76.164 72.2965 76.86 73.2565 76.86Z" fill="#001A64"/>
</svg>
