<svg width="90" height="90" viewBox="0 0 90 90" fill="none" xmlns="http://www.w3.org/2000/svg">
<rect x="0.5" y="0.5" width="89" height="89" rx="7.5" fill="#FFFFC8"/>
<rect x="0.5" y="0.5" width="89" height="89" rx="7.5" stroke="#F0F0F0"/>
<path opacity="0.3" d="M44.5527 29.4998H40.5V25.447L44.5527 29.4998Z" fill="#3C57E1" stroke="#C6C6C6"/>
<path d="M50.66 30.66L49.6 31.72L48.89 31.01L49.95 29.95L48.01 28.01L46.95 29.07L46.24 28.36L47.3 27.3L45.36 25.36L44.3 26.42L43.59 25.71L44.65 24.65L42.7 22.7L41.64 23.76L40.93 23.05L41.99 21.99L40.05 20.05L38.99 21.11L38.28 20.4L39.34 19.34L37 17V31C37 32.1 37.9 33 39 33H53L50.66 30.66ZM40 30V24.24L45.76 30H40Z" fill="#3C57E1"/>
<path d="M21.3092 55.12L21.6092 64H19.9532L19.6772 55.264H19.6532L17.7452 64H14.8532L13.0772 55.264H13.0532L12.7772 64H11.2052L11.5172 55.12H14.7092L16.3412 63.856H16.3652L18.1172 55.12H21.3092ZM28.7727 60.988V61.168H24.3807C24.4407 62.272 24.9687 62.92 25.8207 62.92C26.5647 62.92 27.0807 62.512 27.2367 61.852H28.7727C28.5567 63.28 27.4527 64.12 25.8207 64.12C23.9487 64.12 22.8447 62.956 22.8447 60.988C22.8447 59.008 23.9487 57.856 25.8207 57.856C27.6687 57.856 28.7727 59.008 28.7727 60.988ZM25.8207 59.044C25.0167 59.044 24.5007 59.62 24.3927 60.628H27.2247C27.1287 59.62 26.6127 59.044 25.8207 59.044ZM34.2727 57.976H35.8567V64H34.2727V61.924H34.2487C34.2487 63.304 33.4447 64.12 32.1007 64.12C30.5887 64.12 29.7007 62.956 29.7007 60.988C29.7007 59.02 30.5887 57.856 32.1007 57.856C33.4447 57.856 34.2487 58.672 34.2487 60.04H34.2727V57.976ZM32.8327 62.86C33.7927 62.86 34.3567 62.092 34.3567 60.988C34.3567 59.872 33.7927 59.104 32.8327 59.104C31.8727 59.104 31.3087 59.812 31.3087 60.988C31.3087 62.164 31.8727 62.86 32.8327 62.86ZM39.7707 64.12C38.0427 64.12 37.0347 63.352 37.0347 62.044H38.5107C38.5107 62.716 38.9787 63.112 39.7707 63.112C40.5387 63.112 40.9827 62.824 40.9827 62.32C40.9827 61.684 40.2747 61.564 39.4827 61.432C38.4387 61.264 37.1907 61.06 37.1907 59.68C37.1907 58.54 38.1507 57.856 39.7707 57.856C41.3787 57.856 42.3387 58.588 42.3387 59.836H40.8627C40.8627 59.2 40.4667 58.84 39.7707 58.84C39.1107 58.84 38.7147 59.104 38.7147 59.548C38.7147 60.088 39.3747 60.196 40.1427 60.328C41.2107 60.508 42.5067 60.724 42.5067 62.14C42.5067 63.376 41.4867 64.12 39.7707 64.12ZM47.6236 57.976H49.2076V64H47.6236V61.876H47.5996C47.5996 63.28 46.9036 64.12 45.7156 64.12C44.4196 64.12 43.6516 63.196 43.6516 61.648V57.976H45.2356V61.576C45.2356 62.392 45.6556 62.86 46.3636 62.86C47.1556 62.86 47.6236 62.26 47.6236 61.228V57.976ZM54.1983 57.856C54.5463 57.856 54.8823 57.928 55.1223 58.048L54.6663 59.464C54.4263 59.332 54.1263 59.248 53.8263 59.248C52.9023 59.248 52.3503 60.004 52.3503 61.276V64H50.7663V57.976H52.3503V60.46H52.3743C52.3743 58.816 53.0583 57.856 54.1983 57.856ZM61.3274 60.988V61.168H56.9354C56.9954 62.272 57.5234 62.92 58.3754 62.92C59.1194 62.92 59.6354 62.512 59.7914 61.852H61.3274C61.1114 63.28 60.0074 64.12 58.3754 64.12C56.5034 64.12 55.3994 62.956 55.3994 60.988C55.3994 59.008 56.5034 57.856 58.3754 57.856C60.2234 57.856 61.3274 59.008 61.3274 60.988ZM58.3754 59.044C57.5714 59.044 57.0554 59.62 56.9474 60.628H59.7794C59.6834 59.62 59.1674 59.044 58.3754 59.044ZM70.0194 57.856C71.3154 57.856 72.0834 58.744 72.0834 60.268V64H70.4994V60.34C70.4994 59.56 70.0794 59.104 69.3714 59.104C68.5794 59.104 68.1114 59.692 68.1114 60.676V64H66.5274V60.34C66.5274 59.56 66.1194 59.104 65.4114 59.104C64.6074 59.104 64.1394 59.692 64.1394 60.676V64H62.5554V57.976H64.1394V60.064H64.1634C64.1634 58.672 64.8954 57.856 66.1074 57.856C67.3674 57.856 68.1114 58.708 68.1114 60.064H68.1354C68.1354 58.672 68.8314 57.856 70.0194 57.856ZM79.1867 60.988V61.168H74.7947C74.8547 62.272 75.3827 62.92 76.2347 62.92C76.9787 62.92 77.4947 62.512 77.6507 61.852H79.1867C78.9707 63.28 77.8667 64.12 76.2347 64.12C74.3627 64.12 73.2587 62.956 73.2587 60.988C73.2587 59.008 74.3627 57.856 76.2347 57.856C78.0827 57.856 79.1867 59.008 79.1867 60.988ZM76.2347 59.044C75.4307 59.044 74.9147 59.62 74.8067 60.628H77.6387C77.5427 59.62 77.0267 59.044 76.2347 59.044ZM40.2385 71.856C41.5705 71.856 42.3505 72.768 42.3505 74.328V78H40.7665V74.4C40.7665 73.584 40.3345 73.104 39.5905 73.104C38.7505 73.104 38.2585 73.716 38.2585 74.736V78H36.6745V71.976H38.2585V74.088H38.2825C38.2825 72.684 39.0145 71.856 40.2385 71.856ZM47.5681 73.068H45.6961V75.972C45.6961 76.536 46.0561 76.86 46.6561 76.86C46.9441 76.86 47.2441 76.788 47.4601 76.668V77.844C47.1001 78.012 46.6081 78.12 46.1521 78.12C44.8681 78.12 44.1121 77.4 44.1121 76.176V73.068H43.2481V71.976H44.2081V69.96H45.7921V70.464C45.7921 71.232 45.2161 71.772 44.2561 71.952V71.976H47.5681V73.068ZM50.9445 78.12C49.2165 78.12 48.2085 77.352 48.2085 76.044H49.6845C49.6845 76.716 50.1525 77.112 50.9445 77.112C51.7125 77.112 52.1565 76.824 52.1565 76.32C52.1565 75.684 51.4485 75.564 50.6565 75.432C49.6125 75.264 48.3645 75.06 48.3645 73.68C48.3645 72.54 49.3245 71.856 50.9445 71.856C52.5525 71.856 53.5125 72.588 53.5125 73.836H52.0365C52.0365 73.2 51.6405 72.84 50.9445 72.84C50.2845 72.84 49.8885 73.104 49.8885 73.548C49.8885 74.088 50.5485 74.196 51.3165 74.328C52.3845 74.508 53.6805 74.724 53.6805 76.14C53.6805 77.376 52.6605 78.12 50.9445 78.12Z" fill="#001A64"/>
</svg>
