<svg width="90" height="90" viewBox="0 0 90 90" fill="none" xmlns="http://www.w3.org/2000/svg">
<rect x="0.5" y="0.5" width="89" height="89" rx="7.5" fill="#FBFCFF"/>
<rect x="0.5" y="0.5" width="89" height="89" rx="7.5" stroke="#F0F0F0"/>
<path d="M42 35V21.775C40.4833 21.375 39.2708 20.5375 38.3625 19.2625C37.4542 17.9875 37 16.5667 37 15H39C39 16.3833 39.4458 17.5625 40.3375 18.5375C41.2292 19.5125 42.3667 20 43.75 20H46.25C46.75 20 47.2167 20.0917 47.65 20.275C48.0833 20.4583 48.475 20.725 48.825 21.075L53.35 25.6L51.95 27L48 23.05V35H46V29H44V35H42ZM45 19C44.45 19 43.9792 18.8042 43.5875 18.4125C43.1958 18.0208 43 17.55 43 17C43 16.45 43.1958 15.9792 43.5875 15.5875C43.9792 15.1958 44.45 15 45 15C45.55 15 46.0208 15.1958 46.4125 15.5875C46.8042 15.9792 47 16.45 47 17C47 17.55 46.8042 18.0208 46.4125 18.4125C46.0208 18.8042 45.55 19 45 19Z" fill="#3C57E1"/>
<path d="M29.7664 55.12C31.8184 55.12 33.0304 56.152 33.0304 57.904C33.0304 59.656 31.8184 60.688 29.7544 60.688H28.1224V64H26.4664V55.12H29.7664ZM29.8384 59.404C30.7624 59.404 31.3144 58.84 31.3144 57.904C31.3144 56.968 30.7744 56.404 29.8384 56.404H28.1224V59.404H29.8384ZM39.4836 60.988V61.168H35.0916C35.1516 62.272 35.6796 62.92 36.5316 62.92C37.2756 62.92 37.7916 62.512 37.9476 61.852H39.4836C39.2676 63.28 38.1636 64.12 36.5316 64.12C34.6596 64.12 33.5556 62.956 33.5556 60.988C33.5556 59.008 34.6596 57.856 36.5316 57.856C38.3796 57.856 39.4836 59.008 39.4836 60.988ZM36.5316 59.044C35.7276 59.044 35.2116 59.62 35.1036 60.628H37.9356C37.8396 59.62 37.3236 59.044 36.5316 59.044ZM43.5316 64.12C41.5636 64.12 40.3876 62.956 40.3876 60.988C40.3876 59.02 41.5636 57.856 43.5316 57.856C45.4996 57.856 46.6636 59.02 46.6636 60.988C46.6636 62.956 45.4996 64.12 43.5316 64.12ZM43.5316 62.86C44.4916 62.86 45.0556 62.164 45.0556 60.988C45.0556 59.812 44.4916 59.104 43.5316 59.104C42.5716 59.104 42.0076 59.812 42.0076 60.988C42.0076 62.164 42.5716 62.86 43.5316 62.86ZM51.6512 57.856C53.1632 57.856 54.0632 59.02 54.0632 60.988C54.0632 62.956 53.1632 64.12 51.6512 64.12C50.3072 64.12 49.5032 63.304 49.5032 61.924H49.4792V66.76H47.8952V57.976H49.4792V60.04H49.5032C49.5032 58.672 50.3072 57.856 51.6512 57.856ZM50.9192 62.86C51.8792 62.86 52.4432 62.164 52.4432 60.988C52.4432 59.812 51.8792 59.116 50.9192 59.116C49.9592 59.116 49.3952 59.872 49.3952 60.988C49.3952 62.092 49.9592 62.86 50.9192 62.86ZM55.3132 64V54.76H56.8972V64H55.3132ZM64.0695 60.988V61.168H59.6775C59.7375 62.272 60.2655 62.92 61.1175 62.92C61.8615 62.92 62.3775 62.512 62.5335 61.852H64.0695C63.8535 63.28 62.7495 64.12 61.1175 64.12C59.2455 64.12 58.1415 62.956 58.1415 60.988C58.1415 59.008 59.2455 57.856 61.1175 57.856C62.9655 57.856 64.0695 59.008 64.0695 60.988ZM61.1175 59.044C60.3135 59.044 59.7975 59.62 59.6895 60.628H62.5215C62.4255 59.62 61.9095 59.044 61.1175 59.044ZM13.775 78V69.12H15.431V78H13.775ZM20.7327 71.856C22.0647 71.856 22.8447 72.768 22.8447 74.328V78H21.2607V74.4C21.2607 73.584 20.8287 73.104 20.0847 73.104C19.2447 73.104 18.7527 73.716 18.7527 74.736V78H17.1687V71.976H18.7527V74.088H18.7767C18.7767 72.684 19.5087 71.856 20.7327 71.856ZM28.0622 73.068H26.1902V75.972C26.1902 76.536 26.5502 76.86 27.1502 76.86C27.4382 76.86 27.7382 76.788 27.9542 76.668V77.844C27.5942 78.012 27.1022 78.12 26.6462 78.12C25.3622 78.12 24.6062 77.4 24.6062 76.176V73.068H23.7422V71.976H24.7022V69.96H26.2862V70.464C26.2862 71.232 25.7102 71.772 24.7502 71.952V71.976H28.0622V73.068ZM34.6203 74.988V75.168H30.2283C30.2883 76.272 30.8163 76.92 31.6683 76.92C32.4123 76.92 32.9283 76.512 33.0843 75.852H34.6203C34.4043 77.28 33.3003 78.12 31.6683 78.12C29.7963 78.12 28.6923 76.956 28.6923 74.988C28.6923 73.008 29.7963 71.856 31.6683 71.856C33.5163 71.856 34.6203 73.008 34.6203 74.988ZM31.6683 73.044C30.8643 73.044 30.3483 73.62 30.2403 74.628H33.0723C32.9763 73.62 32.4603 73.044 31.6683 73.044ZM40.1204 71.976H41.7044V78.072C41.7044 79.836 40.5764 80.88 38.6804 80.88C37.0484 80.88 35.9444 80.076 35.7284 78.72L37.2284 78.492C37.3244 79.2 37.8764 79.62 38.6804 79.62C39.5804 79.62 40.1204 79.08 40.1204 78.168V75.864H40.0964C40.0964 77.232 39.2924 78.048 37.9484 78.048C36.4364 78.048 35.5484 76.896 35.5484 74.952C35.5484 73.008 36.4364 71.856 37.9484 71.856C39.2924 71.856 40.0964 72.672 40.0964 74.04H40.1204V71.976ZM38.6804 76.788C39.6404 76.788 40.2044 76.044 40.2044 74.952C40.2044 73.86 39.6404 73.104 38.6804 73.104C37.7204 73.104 37.1564 73.8 37.1564 74.952C37.1564 76.104 37.7204 76.788 38.6804 76.788ZM46.6983 71.856C47.0463 71.856 47.3823 71.928 47.6223 72.048L47.1663 73.464C46.9263 73.332 46.6263 73.248 46.3263 73.248C45.4023 73.248 44.8503 74.004 44.8503 75.276V78H43.2663V71.976H44.8503V74.46H44.8743C44.8743 72.816 45.5583 71.856 46.6983 71.856ZM52.5188 71.976H54.1028V78H52.5188V75.924H52.4948C52.4948 77.304 51.6908 78.12 50.3468 78.12C48.8348 78.12 47.9468 76.956 47.9468 74.988C47.9468 73.02 48.8348 71.856 50.3468 71.856C51.6908 71.856 52.4948 72.672 52.4948 74.04H52.5188V71.976ZM51.0788 76.86C52.0388 76.86 52.6028 76.092 52.6028 74.988C52.6028 73.872 52.0388 73.104 51.0788 73.104C50.1188 73.104 49.5548 73.812 49.5548 74.988C49.5548 76.164 50.1188 76.86 51.0788 76.86ZM59.4568 73.068H57.5848V75.972C57.5848 76.536 57.9448 76.86 58.5448 76.86C58.8328 76.86 59.1328 76.788 59.3488 76.668V77.844C58.9888 78.012 58.4968 78.12 58.0408 78.12C56.7568 78.12 56.0008 77.4 56.0008 76.176V73.068H55.1368V71.976H56.0968V69.96H57.6808V70.464C57.6808 71.232 57.1048 71.772 56.1448 71.952V71.976H59.4568V73.068ZM60.4812 70.824V69.324H62.0652V70.824H60.4812ZM60.4812 78V71.976H62.0652V78H60.4812ZM66.4535 78.12C64.4855 78.12 63.3095 76.956 63.3095 74.988C63.3095 73.02 64.4855 71.856 66.4535 71.856C68.4215 71.856 69.5855 73.02 69.5855 74.988C69.5855 76.956 68.4215 78.12 66.4535 78.12ZM66.4535 76.86C67.4135 76.86 67.9775 76.164 67.9775 74.988C67.9775 73.812 67.4135 73.104 66.4535 73.104C65.4935 73.104 64.9295 73.812 64.9295 74.988C64.9295 76.164 65.4935 76.86 66.4535 76.86ZM74.3811 71.856C75.7131 71.856 76.4931 72.768 76.4931 74.328V78H74.9091V74.4C74.9091 73.584 74.4771 73.104 73.7331 73.104C72.8931 73.104 72.4011 73.716 72.4011 74.736V78H70.8171V71.976H72.4011V74.088H72.4251C72.4251 72.684 73.1571 71.856 74.3811 71.856Z" fill="#001A64"/>
</svg>
