<svg width="90" height="90" viewBox="0 0 90 90" fill="none" xmlns="http://www.w3.org/2000/svg">
<rect x="0.5" y="0.5" width="89" height="89" rx="7.5" fill="#FFFFC8"/>
<rect x="0.5" y="0.5" width="89" height="89" rx="7.5" stroke="#F0F0F0"/>
<path d="M48 34V31H44V21H42V24H35V16H42V19H48V16H55V24H48V21H46V29H48V26H55V34H48ZM50 22H53V18H50V22ZM50 32H53V28H50V32ZM37 22H40V18H37V22Z" fill="#3C57E1"/>
<path d="M14.4957 64V55.12H17.3757C20.1717 55.12 21.8277 56.776 21.8277 59.56C21.8277 62.344 20.1717 64 17.3757 64H14.4957ZM16.1517 62.716H17.4717C19.1277 62.716 20.1117 61.54 20.1117 59.56C20.1117 57.58 19.1277 56.404 17.4717 56.404H16.1517V62.716ZM33.2799 55.12L33.5799 64H31.9239L31.6479 55.264H31.6239L29.7159 64H26.8239L25.0479 55.264H25.0239L24.7479 64H23.1759L23.4879 55.12H26.6799L28.3119 63.856H28.3359L30.0879 55.12H33.2799ZM38.498 64.12C36.362 64.12 35.006 62.932 34.838 60.892H36.47C36.578 62.092 37.334 62.8 38.534 62.8C39.746 62.8 40.454 62.296 40.454 61.456C40.454 60.424 39.398 60.268 38.234 60.088C36.77 59.884 35.078 59.632 35.078 57.664C35.078 55.936 36.35 55 38.498 55C40.454 55 41.726 56.152 41.894 58.096H40.25C40.178 56.98 39.494 56.32 38.414 56.32C37.37 56.32 36.758 56.776 36.758 57.544C36.758 58.42 37.742 58.576 38.846 58.744C40.346 58.96 42.134 59.236 42.134 61.288C42.134 63.064 40.79 64.12 38.498 64.12ZM46.5499 54.4L47.1019 54.604L43.2619 65.68L42.6979 65.476L46.5499 54.4ZM55.6626 60.604C55.3746 62.8 53.9586 64.12 51.8346 64.12C49.2666 64.12 47.7426 62.428 47.7426 59.56C47.7426 56.692 49.2666 55 51.8346 55C53.9586 55 55.3746 56.296 55.6626 58.48H54.0786C53.8386 57.124 53.0106 56.32 51.8346 56.32C50.3466 56.32 49.4586 57.532 49.4586 59.56C49.4586 61.588 50.3466 62.8 51.8346 62.8C53.0226 62.8 53.8386 61.984 54.0786 60.604H55.6626ZM62.8065 61.648L64.1385 64H62.2905L60.3585 60.4H58.7025V64H57.0465V55.12H60.4905C62.5785 55.12 63.8265 56.068 63.8265 57.652C63.8265 59.368 62.6025 60.376 60.5265 60.376V60.4C61.4985 60.4 62.3625 60.856 62.8065 61.648ZM58.7025 59.188H60.5745C61.5465 59.188 62.1105 58.66 62.1105 57.772C62.1105 56.92 61.5465 56.404 60.5745 56.404H58.7025V59.188ZM75.3503 55.12L75.6503 64H73.9943L73.7183 55.264H73.6943L71.7863 64H68.8943L67.1183 55.264H67.0943L66.8183 64H65.2463L65.5583 55.12H68.7503L70.3823 63.856H70.4062L72.1583 55.12H75.3503ZM20.2426 74.604C19.9546 76.8 18.5386 78.12 16.4146 78.12C13.8466 78.12 12.3226 76.428 12.3226 73.56C12.3226 70.692 13.8466 69 16.4146 69C18.5386 69 19.9546 70.296 20.2426 72.48H18.6586C18.4186 71.124 17.5906 70.32 16.4146 70.32C14.9266 70.32 14.0386 71.532 14.0386 73.56C14.0386 75.588 14.9266 76.8 16.4146 76.8C17.6026 76.8 18.4186 75.984 18.6586 74.604H20.2426ZM24.2426 78.12C22.2746 78.12 21.0986 76.956 21.0986 74.988C21.0986 73.02 22.2746 71.856 24.2426 71.856C26.2106 71.856 27.3746 73.02 27.3746 74.988C27.3746 76.956 26.2106 78.12 24.2426 78.12ZM24.2426 76.86C25.2026 76.86 25.7666 76.164 25.7666 74.988C25.7666 73.812 25.2026 73.104 24.2426 73.104C23.2826 73.104 22.7186 73.812 22.7186 74.988C22.7186 76.164 23.2826 76.86 24.2426 76.86ZM32.1702 71.856C33.5022 71.856 34.2822 72.768 34.2822 74.328V78H32.6982V74.4C32.6982 73.584 32.2662 73.104 31.5222 73.104C30.6822 73.104 30.1902 73.716 30.1902 74.736V78H28.6062V71.976H30.1902V74.088H30.2142C30.2142 72.684 30.9462 71.856 32.1702 71.856ZM39.342 71.856C40.674 71.856 41.454 72.768 41.454 74.328V78H39.87V74.4C39.87 73.584 39.438 73.104 38.694 73.104C37.854 73.104 37.362 73.716 37.362 74.736V78H35.778V71.976H37.362V74.088H37.386C37.386 72.684 38.118 71.856 39.342 71.856ZM48.5539 74.988V75.168H44.1619C44.2219 76.272 44.7499 76.92 45.6019 76.92C46.3459 76.92 46.8619 76.512 47.0179 75.852H48.5539C48.3379 77.28 47.2339 78.12 45.6019 78.12C43.7299 78.12 42.6259 76.956 42.6259 74.988C42.6259 73.008 43.7299 71.856 45.6019 71.856C47.4499 71.856 48.5539 73.008 48.5539 74.988ZM45.6019 73.044C44.7979 73.044 44.2819 73.62 44.1739 74.628H47.0059C46.9099 73.62 46.3939 73.044 45.6019 73.044ZM52.566 78.12C50.622 78.12 49.458 76.956 49.458 74.988C49.458 73.02 50.622 71.856 52.566 71.856C54.21 71.856 55.278 72.72 55.518 74.208H53.958C53.754 73.512 53.274 73.104 52.566 73.104C51.63 73.104 51.078 73.812 51.078 74.988C51.078 76.164 51.63 76.86 52.566 76.86C53.31 76.86 53.802 76.428 53.982 75.684H55.542C55.314 77.232 54.246 78.12 52.566 78.12ZM60.4411 73.068H58.5691V75.972C58.5691 76.536 58.9291 76.86 59.5291 76.86C59.8171 76.86 60.1171 76.788 60.3331 76.668V77.844C59.9731 78.012 59.4811 78.12 59.0251 78.12C57.7411 78.12 56.9851 77.4 56.9851 76.176V73.068H56.1211V71.976H57.0811V69.96H58.6651V70.464C58.6651 71.232 58.0891 71.772 57.1291 71.952V71.976H60.4411V73.068ZM61.4655 70.824V69.324H63.0495V70.824H61.4655ZM61.4655 78V71.976H63.0495V78H61.4655ZM67.4379 78.12C65.4699 78.12 64.2939 76.956 64.2939 74.988C64.2939 73.02 65.4699 71.856 67.4379 71.856C69.4059 71.856 70.5699 73.02 70.5699 74.988C70.5699 76.956 69.4059 78.12 67.4379 78.12ZM67.4379 76.86C68.3979 76.86 68.9619 76.164 68.9619 74.988C68.9619 73.812 68.3979 73.104 67.4379 73.104C66.4779 73.104 65.9139 73.812 65.9139 74.988C65.9139 76.164 66.4779 76.86 67.4379 76.86ZM75.3655 71.856C76.6975 71.856 77.4775 72.768 77.4775 74.328V78H75.8935V74.4C75.8935 73.584 75.4615 73.104 74.7175 73.104C73.8775 73.104 73.3855 73.716 73.3855 74.736V78H71.8015V71.976H73.3855V74.088H73.4095C73.4095 72.684 74.1415 71.856 75.3655 71.856Z" fill="#001A64"/>
</svg>
