<svg width="90" height="90" viewBox="0 0 90 90" fill="none" xmlns="http://www.w3.org/2000/svg">
<rect x="0.5" y="0.5" width="89" height="89" rx="7.5" fill="#FBFCFF"/>
<rect x="0.5" y="0.5" width="89" height="89" rx="7.5" stroke="#F0F0F0"/>
<path fill-rule="evenodd" clip-rule="evenodd" d="M53 33C54.1 33 55 32.1 55 31V19C55 17.9 54.1 17 53 17H37C35.9 17 35 17.9 35 19V31C35 32.1 35.9 33 37 33H53ZM53 19L45 23.99L37 19H53ZM45 26L37 21V31H53V21L45 26Z" fill="#3C57E1"/>
<path d="M34.4575 60.604C34.1695 62.8 32.7535 64.12 30.6295 64.12C28.0615 64.12 26.5375 62.428 26.5375 59.56C26.5375 56.692 28.0615 55 30.6295 55C32.7535 55 34.1695 56.296 34.4575 58.48H32.8735C32.6335 57.124 31.8055 56.32 30.6295 56.32C29.1415 56.32 28.2535 57.532 28.2535 59.56C28.2535 61.588 29.1415 62.8 30.6295 62.8C31.8175 62.8 32.6335 61.984 32.8735 60.604H34.4575ZM39.9094 57.976H41.4934V64H39.9094V61.924H39.8854C39.8854 63.304 39.0814 64.12 37.7374 64.12C36.2254 64.12 35.3374 62.956 35.3374 60.988C35.3374 59.02 36.2254 57.856 37.7374 57.856C39.0814 57.856 39.8854 58.672 39.8854 60.04H39.9094V57.976ZM38.4694 62.86C39.4294 62.86 39.9934 62.092 39.9934 60.988C39.9934 59.872 39.4294 59.104 38.4694 59.104C37.5094 59.104 36.9454 59.812 36.9454 60.988C36.9454 62.164 37.5094 62.86 38.4694 62.86ZM43.0554 64V54.76H44.6394V64H43.0554ZM46.2077 64V54.76H47.7917V64H46.2077ZM57.8861 55.12V56.404H55.2941V64H53.6381V56.404H51.0341V55.12H57.8861ZM60.3949 64.12C58.4269 64.12 57.2509 62.956 57.2509 60.988C57.2509 59.02 58.4269 57.856 60.3949 57.856C62.3629 57.856 63.5269 59.02 63.5269 60.988C63.5269 62.956 62.3629 64.12 60.3949 64.12ZM60.3949 62.86C61.3549 62.86 61.9189 62.164 61.9189 60.988C61.9189 59.812 61.3549 59.104 60.3949 59.104C59.4349 59.104 58.8709 59.812 58.8709 60.988C58.8709 62.164 59.4349 62.86 60.3949 62.86ZM32.8832 78L32.2712 75.852H28.4792L27.8672 78H26.2112L28.9712 69.12H31.8992L34.6472 78H32.8832ZM28.8512 74.568H31.9112L30.3992 69.264H30.3752L28.8512 74.568ZM38.2574 78.12C36.3134 78.12 35.1494 76.956 35.1494 74.988C35.1494 73.02 36.3134 71.856 38.2574 71.856C39.9014 71.856 40.9694 72.72 41.2094 74.208H39.6494C39.4454 73.512 38.9654 73.104 38.2574 73.104C37.3214 73.104 36.7694 73.812 36.7694 74.988C36.7694 76.164 37.3214 76.86 38.2574 76.86C39.0014 76.86 39.4934 76.428 39.6734 75.684H41.2334C41.0054 77.232 39.9374 78.12 38.2574 78.12ZM46.1325 73.068H44.2605V75.972C44.2605 76.536 44.6205 76.86 45.2205 76.86C45.5085 76.86 45.8085 76.788 46.0245 76.668V77.844C45.6645 78.012 45.1725 78.12 44.7165 78.12C43.4325 78.12 42.6765 77.4 42.6765 76.176V73.068H41.8125V71.976H42.7725V69.96H44.3565V70.464C44.3565 71.232 43.7805 71.772 42.8205 71.952V71.976H46.1325V73.068ZM47.157 70.824V69.324H48.741V70.824H47.157ZM47.157 78V71.976H48.741V78H47.157ZM53.1293 78.12C51.1613 78.12 49.9853 76.956 49.9853 74.988C49.9853 73.02 51.1613 71.856 53.1293 71.856C55.0973 71.856 56.2613 73.02 56.2613 74.988C56.2613 76.956 55.0973 78.12 53.1293 78.12ZM53.1293 76.86C54.0893 76.86 54.6533 76.164 54.6533 74.988C54.6533 73.812 54.0893 73.104 53.1293 73.104C52.1693 73.104 51.6053 73.812 51.6053 74.988C51.6053 76.164 52.1693 76.86 53.1293 76.86ZM61.0569 71.856C62.3889 71.856 63.1689 72.768 63.1689 74.328V78H61.5849V74.4C61.5849 73.584 61.1529 73.104 60.4089 73.104C59.5689 73.104 59.0769 73.716 59.0769 74.736V78H57.4929V71.976H59.0769V74.088H59.1009C59.1009 72.684 59.8329 71.856 61.0569 71.856Z" fill="#001A64"/>
</svg>
