<svg width="90" height="90" viewBox="0 0 90 90" fill="none" xmlns="http://www.w3.org/2000/svg">
<rect x="0.5" y="0.5" width="89" height="89" rx="7.5" fill="#FFFFC8"/>
<rect x="0.5" y="0.5" width="89" height="89" rx="7.5" stroke="#F0F0F0"/>
<path d="M39 36C38.1667 36 37.4583 35.7083 36.875 35.125C36.2917 34.5417 36 33.8333 36 33C36 32.1667 36.2917 31.4583 36.875 30.875C37.4583 30.2917 38.1667 30 39 30C39.2333 30 39.45 30.025 39.65 30.075C39.85 30.125 40.0417 30.1917 40.225 30.275L41.65 28.5C41.1833 27.9833 40.8583 27.4 40.675 26.75C40.4917 26.1 40.45 25.45 40.55 24.8L38.525 24.125C38.2417 24.5417 37.8833 24.875 37.45 25.125C37.0167 25.375 36.5333 25.5 36 25.5C35.1667 25.5 34.4583 25.2083 33.875 24.625C33.2917 24.0417 33 23.3333 33 22.5C33 21.6667 33.2917 20.9583 33.875 20.375C34.4583 19.7917 35.1667 19.5 36 19.5C36.8333 19.5 37.5417 19.7917 38.125 20.375C38.7083 20.9583 39 21.6667 39 22.5V22.7L41.025 23.4C41.3583 22.8 41.8042 22.2917 42.3625 21.875C42.9208 21.4583 43.55 21.1917 44.25 21.075V18.9C43.6 18.7167 43.0625 18.3625 42.6375 17.8375C42.2125 17.3125 42 16.7 42 16C42 15.1667 42.2917 14.4583 42.875 13.875C43.4583 13.2917 44.1667 13 45 13C45.8333 13 46.5417 13.2917 47.125 13.875C47.7083 14.4583 48 15.1667 48 16C48 16.7 47.7833 17.3125 47.35 17.8375C46.9167 18.3625 46.3833 18.7167 45.75 18.9V21.075C46.45 21.1917 47.0792 21.4583 47.6375 21.875C48.1958 22.2917 48.6417 22.8 48.975 23.4L51 22.7V22.5C51 21.6667 51.2917 20.9583 51.875 20.375C52.4583 19.7917 53.1667 19.5 54 19.5C54.8333 19.5 55.5417 19.7917 56.125 20.375C56.7083 20.9583 57 21.6667 57 22.5C57 23.3333 56.7083 24.0417 56.125 24.625C55.5417 25.2083 54.8333 25.5 54 25.5C53.4667 25.5 52.9792 25.375 52.5375 25.125C52.0958 24.875 51.7417 24.5417 51.475 24.125L49.45 24.8C49.55 25.45 49.5083 26.0958 49.325 26.7375C49.1417 27.3792 48.8167 27.9667 48.35 28.5L49.775 30.25C49.9583 30.1667 50.15 30.1042 50.35 30.0625C50.55 30.0208 50.7667 30 51 30C51.8333 30 52.5417 30.2917 53.125 30.875C53.7083 31.4583 54 32.1667 54 33C54 33.8333 53.7083 34.5417 53.125 35.125C52.5417 35.7083 51.8333 36 51 36C50.1667 36 49.4583 35.7083 48.875 35.125C48.2917 34.5417 48 33.8333 48 33C48 32.6667 48.0542 32.3458 48.1625 32.0375C48.2708 31.7292 48.4167 31.45 48.6 31.2L47.175 29.425C46.4917 29.8083 45.7625 30 44.9875 30C44.2125 30 43.4833 29.8083 42.8 29.425L41.4 31.2C41.5833 31.45 41.7292 31.7292 41.8375 32.0375C41.9458 32.3458 42 32.6667 42 33C42 33.8333 41.7083 34.5417 41.125 35.125C40.5417 35.7083 39.8333 36 39 36ZM36 23.5C36.2833 23.5 36.5208 23.4042 36.7125 23.2125C36.9042 23.0208 37 22.7833 37 22.5C37 22.2167 36.9042 21.9792 36.7125 21.7875C36.5208 21.5958 36.2833 21.5 36 21.5C35.7167 21.5 35.4792 21.5958 35.2875 21.7875C35.0958 21.9792 35 22.2167 35 22.5C35 22.7833 35.0958 23.0208 35.2875 23.2125C35.4792 23.4042 35.7167 23.5 36 23.5ZM39 34C39.2833 34 39.5208 33.9042 39.7125 33.7125C39.9042 33.5208 40 33.2833 40 33C40 32.7167 39.9042 32.4792 39.7125 32.2875C39.5208 32.0958 39.2833 32 39 32C38.7167 32 38.4792 32.0958 38.2875 32.2875C38.0958 32.4792 38 32.7167 38 33C38 33.2833 38.0958 33.5208 38.2875 33.7125C38.4792 33.9042 38.7167 34 39 34ZM45 17C45.2833 17 45.5208 16.9042 45.7125 16.7125C45.9042 16.5208 46 16.2833 46 16C46 15.7167 45.9042 15.4792 45.7125 15.2875C45.5208 15.0958 45.2833 15 45 15C44.7167 15 44.4792 15.0958 44.2875 15.2875C44.0958 15.4792 44 15.7167 44 16C44 16.2833 44.0958 16.5208 44.2875 16.7125C44.4792 16.9042 44.7167 17 45 17ZM45 28C45.7 28 46.2917 27.7583 46.775 27.275C47.2583 26.7917 47.5 26.2 47.5 25.5C47.5 24.8 47.2583 24.2083 46.775 23.725C46.2917 23.2417 45.7 23 45 23C44.3 23 43.7083 23.2417 43.225 23.725C42.7417 24.2083 42.5 24.8 42.5 25.5C42.5 26.2 42.7417 26.7917 43.225 27.275C43.7083 27.7583 44.3 28 45 28ZM51 34C51.2833 34 51.5208 33.9042 51.7125 33.7125C51.9042 33.5208 52 33.2833 52 33C52 32.7167 51.9042 32.4792 51.7125 32.2875C51.5208 32.0958 51.2833 32 51 32C50.7167 32 50.4792 32.0958 50.2875 32.2875C50.0958 32.4792 50 32.7167 50 33C50 33.2833 50.0958 33.5208 50.2875 33.7125C50.4792 33.9042 50.7167 34 51 34ZM54 23.5C54.2833 23.5 54.5208 23.4042 54.7125 23.2125C54.9042 23.0208 55 22.7833 55 22.5C55 22.2167 54.9042 21.9792 54.7125 21.7875C54.5208 21.5958 54.2833 21.5 54 21.5C53.7167 21.5 53.4792 21.5958 53.2875 21.7875C53.0958 21.9792 53 22.2167 53 22.5C53 22.7833 53.0958 23.0208 53.2875 23.2125C53.4792 23.4042 53.7167 23.5 54 23.5Z" fill="#3C57E1"/>
<path d="M23.0692 55.12C25.1212 55.12 26.3332 56.152 26.3332 57.904C26.3332 59.656 25.1212 60.688 23.0572 60.688H21.4252V64H19.7692V55.12H23.0692ZM23.1412 59.404C24.0652 59.404 24.6172 58.84 24.6172 57.904C24.6172 56.968 24.0772 56.404 23.1412 56.404H21.4252V59.404H23.1412ZM30.837 57.856C31.185 57.856 31.521 57.928 31.761 58.048L31.305 59.464C31.065 59.332 30.765 59.248 30.465 59.248C29.541 59.248 28.989 60.004 28.989 61.276V64H27.405V57.976H28.989V60.46H29.013C29.013 58.816 29.697 57.856 30.837 57.856ZM35.182 64.12C33.214 64.12 32.038 62.956 32.038 60.988C32.038 59.02 33.214 57.856 35.182 57.856C37.15 57.856 38.314 59.02 38.314 60.988C38.314 62.956 37.15 64.12 35.182 64.12ZM35.182 62.86C36.142 62.86 36.706 62.164 36.706 60.988C36.706 59.812 36.142 59.104 35.182 59.104C34.222 59.104 33.658 59.812 33.658 60.988C33.658 62.164 34.222 62.86 35.182 62.86ZM43.8176 54.76H45.4016V64H43.8176V61.924H43.7936C43.7936 63.304 42.9896 64.12 41.6456 64.12C40.1336 64.12 39.2456 62.956 39.2456 60.988C39.2456 59.02 40.1336 57.856 41.6456 57.856C42.9896 57.856 43.7936 58.672 43.7936 60.04H43.8176V54.76ZM42.3776 62.86C43.3376 62.86 43.9016 62.092 43.9016 60.988C43.9016 59.872 43.3376 59.104 42.3776 59.104C41.4176 59.104 40.8536 59.812 40.8536 60.988C40.8536 62.164 41.4176 62.86 42.3776 62.86ZM50.8756 57.976H52.4596V64H50.8756V61.876H50.8516C50.8516 63.28 50.1556 64.12 48.9676 64.12C47.6716 64.12 46.9036 63.196 46.9036 61.648V57.976H48.4876V61.576C48.4876 62.392 48.9076 62.86 49.6156 62.86C50.4076 62.86 50.8756 62.26 50.8756 61.228V57.976ZM56.8023 64.12C54.8583 64.12 53.6943 62.956 53.6943 60.988C53.6943 59.02 54.8583 57.856 56.8023 57.856C58.4463 57.856 59.5143 58.72 59.7543 60.208H58.1943C57.9903 59.512 57.5103 59.104 56.8023 59.104C55.8663 59.104 55.3143 59.812 55.3143 60.988C55.3143 62.164 55.8663 62.86 56.8023 62.86C57.5463 62.86 58.0383 62.428 58.2183 61.684H59.7783C59.5503 63.232 58.4823 64.12 56.8023 64.12ZM64.6775 59.068H62.8055V61.972C62.8055 62.536 63.1655 62.86 63.7655 62.86C64.0535 62.86 64.3535 62.788 64.5695 62.668V63.844C64.2095 64.012 63.7175 64.12 63.2615 64.12C61.9775 64.12 61.2215 63.4 61.2215 62.176V59.068H60.3575V57.976H61.3175V55.96H62.9015V56.464C62.9015 57.232 62.3255 57.772 61.3655 57.952V57.976H64.6775V59.068ZM68.0539 64.12C66.3259 64.12 65.3179 63.352 65.3179 62.044H66.7939C66.7939 62.716 67.2619 63.112 68.0539 63.112C68.8219 63.112 69.2659 62.824 69.2659 62.32C69.2659 61.684 68.5579 61.564 67.7659 61.432C66.7219 61.264 65.4739 61.06 65.4739 59.68C65.4739 58.54 66.4339 57.856 68.0539 57.856C69.6619 57.856 70.6219 58.588 70.6219 59.836H69.1459C69.1459 59.2 68.7499 58.84 68.0539 58.84C67.3939 58.84 66.9979 59.104 66.9979 59.548C66.9979 60.088 67.6579 60.196 68.4259 60.328C69.4939 60.508 70.7899 60.724 70.7899 62.14C70.7899 63.376 69.7699 64.12 68.0539 64.12ZM13.775 78V69.12H15.431V78H13.775ZM20.7327 71.856C22.0647 71.856 22.8447 72.768 22.8447 74.328V78H21.2607V74.4C21.2607 73.584 20.8287 73.104 20.0847 73.104C19.2447 73.104 18.7527 73.716 18.7527 74.736V78H17.1687V71.976H18.7527V74.088H18.7767C18.7767 72.684 19.5087 71.856 20.7327 71.856ZM28.0622 73.068H26.1902V75.972C26.1902 76.536 26.5502 76.86 27.1502 76.86C27.4382 76.86 27.7382 76.788 27.9542 76.668V77.844C27.5942 78.012 27.1022 78.12 26.6462 78.12C25.3622 78.12 24.6062 77.4 24.6062 76.176V73.068H23.7422V71.976H24.7022V69.96H26.2862V70.464C26.2862 71.232 25.7102 71.772 24.7502 71.952V71.976H28.0622V73.068ZM34.6203 74.988V75.168H30.2283C30.2883 76.272 30.8163 76.92 31.6683 76.92C32.4123 76.92 32.9283 76.512 33.0843 75.852H34.6203C34.4043 77.28 33.3003 78.12 31.6683 78.12C29.7963 78.12 28.6923 76.956 28.6923 74.988C28.6923 73.008 29.7963 71.856 31.6683 71.856C33.5163 71.856 34.6203 73.008 34.6203 74.988ZM31.6683 73.044C30.8643 73.044 30.3483 73.62 30.2403 74.628H33.0723C32.9763 73.62 32.4603 73.044 31.6683 73.044ZM40.1204 71.976H41.7044V78.072C41.7044 79.836 40.5764 80.88 38.6804 80.88C37.0484 80.88 35.9444 80.076 35.7284 78.72L37.2284 78.492C37.3244 79.2 37.8764 79.62 38.6804 79.62C39.5804 79.62 40.1204 79.08 40.1204 78.168V75.864H40.0964C40.0964 77.232 39.2924 78.048 37.9484 78.048C36.4364 78.048 35.5484 76.896 35.5484 74.952C35.5484 73.008 36.4364 71.856 37.9484 71.856C39.2924 71.856 40.0964 72.672 40.0964 74.04H40.1204V71.976ZM38.6804 76.788C39.6404 76.788 40.2044 76.044 40.2044 74.952C40.2044 73.86 39.6404 73.104 38.6804 73.104C37.7204 73.104 37.1564 73.8 37.1564 74.952C37.1564 76.104 37.7204 76.788 38.6804 76.788ZM46.6983 71.856C47.0463 71.856 47.3823 71.928 47.6223 72.048L47.1663 73.464C46.9263 73.332 46.6263 73.248 46.3263 73.248C45.4023 73.248 44.8503 74.004 44.8503 75.276V78H43.2663V71.976H44.8503V74.46H44.8743C44.8743 72.816 45.5583 71.856 46.6983 71.856ZM52.5188 71.976H54.1028V78H52.5188V75.924H52.4948C52.4948 77.304 51.6908 78.12 50.3468 78.12C48.8348 78.12 47.9468 76.956 47.9468 74.988C47.9468 73.02 48.8348 71.856 50.3468 71.856C51.6908 71.856 52.4948 72.672 52.4948 74.04H52.5188V71.976ZM51.0788 76.86C52.0388 76.86 52.6028 76.092 52.6028 74.988C52.6028 73.872 52.0388 73.104 51.0788 73.104C50.1188 73.104 49.5548 73.812 49.5548 74.988C49.5548 76.164 50.1188 76.86 51.0788 76.86ZM59.4568 73.068H57.5848V75.972C57.5848 76.536 57.9448 76.86 58.5448 76.86C58.8328 76.86 59.1328 76.788 59.3488 76.668V77.844C58.9888 78.012 58.4968 78.12 58.0408 78.12C56.7568 78.12 56.0008 77.4 56.0008 76.176V73.068H55.1368V71.976H56.0968V69.96H57.6808V70.464C57.6808 71.232 57.1048 71.772 56.1448 71.952V71.976H59.4568V73.068ZM60.4812 70.824V69.324H62.0652V70.824H60.4812ZM60.4812 78V71.976H62.0652V78H60.4812ZM66.4535 78.12C64.4855 78.12 63.3095 76.956 63.3095 74.988C63.3095 73.02 64.4855 71.856 66.4535 71.856C68.4215 71.856 69.5855 73.02 69.5855 74.988C69.5855 76.956 68.4215 78.12 66.4535 78.12ZM66.4535 76.86C67.4135 76.86 67.9775 76.164 67.9775 74.988C67.9775 73.812 67.4135 73.104 66.4535 73.104C65.4935 73.104 64.9295 73.812 64.9295 74.988C64.9295 76.164 65.4935 76.86 66.4535 76.86ZM74.3811 71.856C75.7131 71.856 76.4931 72.768 76.4931 74.328V78H74.9091V74.4C74.9091 73.584 74.4771 73.104 73.7331 73.104C72.8931 73.104 72.4011 73.716 72.4011 74.736V78H70.8171V71.976H72.4011V74.088H72.4251C72.4251 72.684 73.1571 71.856 74.3811 71.856Z" fill="#001A64"/>
</svg>
