<svg width="90" height="90" viewBox="0 0 90 90" fill="none" xmlns="http://www.w3.org/2000/svg">
<rect x="0.5" y="0.5" width="89" height="89" rx="7.5" fill="#FFFFC8"/>
<rect x="0.5" y="0.5" width="89" height="89" rx="7.5" stroke="#F0F0F0"/>
<path fill-rule="evenodd" clip-rule="evenodd" d="M45 15L36 22L37.63 23.27L45 29L52.36 23.27L54 22L45 15ZM52.37 25.8L44.99 31.54L37.62 25.81L36 27.07L45 34.07L54 27.07L52.37 25.8ZM39.26 22L45 26.47L50.74 22L45 17.53L39.26 22Z" fill="#3C57E1"/>
<path d="M21.5096 56.404H17.4056V58.9H20.8856V60.184H17.4056V64H15.7496V55.12H21.5096V56.404ZM22.5769 64V54.76H24.1609V64H22.5769ZM28.5492 64.12C26.5812 64.12 25.4052 62.956 25.4052 60.988C25.4052 59.02 26.5812 57.856 28.5492 57.856C30.5172 57.856 31.6812 59.02 31.6812 60.988C31.6812 62.956 30.5172 64.12 28.5492 64.12ZM28.5492 62.86C29.5092 62.86 30.0732 62.164 30.0732 60.988C30.0732 59.812 29.5092 59.104 28.5492 59.104C27.5892 59.104 27.0252 59.812 27.0252 60.988C27.0252 62.164 27.5892 62.86 28.5492 62.86ZM35.7328 64.12C33.7648 64.12 32.5888 62.956 32.5888 60.988C32.5888 59.02 33.7648 57.856 35.7328 57.856C37.7008 57.856 38.8648 59.02 38.8648 60.988C38.8648 62.956 37.7008 64.12 35.7328 64.12ZM35.7328 62.86C36.6928 62.86 37.2568 62.164 37.2568 60.988C37.2568 59.812 36.6928 59.104 35.7328 59.104C34.7728 59.104 34.2088 59.812 34.2088 60.988C34.2088 62.164 34.7728 62.86 35.7328 62.86ZM43.5284 57.856C43.8764 57.856 44.2124 57.928 44.4524 58.048L43.9964 59.464C43.7564 59.332 43.4564 59.248 43.1564 59.248C42.2324 59.248 41.6804 60.004 41.6804 61.276V64H40.0964V57.976H41.6804V60.46H41.7044C41.7044 58.816 42.3884 57.856 43.5284 57.856ZM52.9677 55.12H54.6357L52.1277 64H49.1637L46.6797 55.12H48.4437L50.6877 63.856H50.7117L52.9677 55.12ZM55.5769 56.824V55.324H57.1609V56.824H55.5769ZM55.5769 64V57.976H57.1609V64H55.5769ZM64.3332 60.988V61.168H59.9412C60.0012 62.272 60.5292 62.92 61.3812 62.92C62.1252 62.92 62.6412 62.512 62.7972 61.852H64.3332C64.1172 63.28 63.0132 64.12 61.3812 64.12C59.5092 64.12 58.4052 62.956 58.4052 60.988C58.4052 59.008 59.5092 57.856 61.3812 57.856C63.2292 57.856 64.3332 59.008 64.3332 60.988ZM61.3812 59.044C60.5772 59.044 60.0612 59.62 59.9532 60.628H62.7852C62.6892 59.62 62.1732 59.044 61.3812 59.044ZM73.2909 57.976H74.9349L73.6749 64H70.9149L69.9789 58.084H69.9549L69.0309 64H66.2709L65.0109 57.976H66.7029L67.7469 63.892H67.7709L68.6949 57.976H71.2989L72.2109 63.892H72.2349L73.2909 57.976Z" fill="#001A64"/>
</svg>
