<svg width="90" height="90" viewBox="0 0 90 90" fill="none" xmlns="http://www.w3.org/2000/svg">
<rect x="0.5" y="0.5" width="89" height="89" rx="7.5" fill="#FFFFC8"/>
<rect x="0.5" y="0.5" width="89" height="89" rx="7.5" stroke="#F0F0F0"/>
<path fill-rule="evenodd" clip-rule="evenodd" d="M55.2233 22.2609C55.2137 20.6122 53.8743 19.2787 52.2234 19.2787H37.7975C36.1407 19.2787 34.7975 20.6218 34.7975 22.2787V22.4079H34.7498C34.3452 22.4079 34.0173 22.7359 34.0173 23.1405V27.1535C34.0173 27.5581 34.3452 27.886 34.7498 27.886H34.802C34.8876 29.4662 36.196 30.7212 37.7975 30.7212H39.9587C41.0041 30.7212 41.9741 30.177 42.519 29.2849L43.0183 28.4674C43.3529 27.9195 43.9486 27.5854 44.5906 27.5854C45.2274 27.5854 45.819 27.9142 46.1552 28.4551L46.6835 29.305C47.231 30.1857 48.1944 30.7212 49.2314 30.7212H52.2234C53.8743 30.7212 55.2137 29.3877 55.2233 27.739H55.2502C55.6548 27.739 55.9827 27.4111 55.9827 27.0065V22.9934C55.9827 22.5889 55.6548 22.2609 55.2502 22.2609H55.2233ZM37.7975 21.2787H52.2234C52.7757 21.2787 53.2234 21.7264 53.2234 22.2787V27.7212C53.2234 28.2735 52.7757 28.7212 52.2234 28.7212H49.2314C48.8857 28.7212 48.5646 28.5427 48.3821 28.2491L47.8538 27.3992C47.1526 26.2713 45.9187 25.5854 44.5906 25.5854C43.2517 25.5854 42.0094 26.2823 41.3115 27.4249L40.8121 28.2424C40.6305 28.5398 40.3072 28.7212 39.9587 28.7212H37.7975C37.2453 28.7212 36.7975 28.2735 36.7975 27.7212V22.2787C36.7975 21.7264 37.2453 21.2787 37.7975 21.2787Z" fill="#3C57E1"/>
<path d="M43.1415 55.12H44.8095L42.3015 64H39.3375L36.8535 55.12H38.6175L40.8615 63.856H40.8855L43.1415 55.12ZM51.7147 61.648L53.0467 64H51.1987L49.2667 60.4H47.6107V64H45.9547V55.12H49.3987C51.4867 55.12 52.7347 56.068 52.7347 57.652C52.7347 59.368 51.5107 60.376 49.4347 60.376V60.4C50.4067 60.4 51.2707 60.856 51.7147 61.648ZM47.6107 59.188H49.4827C50.4547 59.188 51.0187 58.66 51.0187 57.772C51.0187 56.92 50.4547 56.404 49.4827 56.404H47.6107V59.188Z" fill="#001A64"/>
</svg>
