<svg width="90" height="90" viewBox="0 0 90 90" fill="none" xmlns="http://www.w3.org/2000/svg">
<rect x="0.5" y="0.5" width="89" height="89" rx="7.5" fill="#FBFCFF"/>
<rect x="0.5" y="0.5" width="89" height="89" rx="7.5" stroke="#F0F0F0"/>
<path d="M52 16H38C36.9 16 36 16.9 36 18V32C36 33.1 36.9 34 38 34H52C53.1 34 54 33.1 54 32V18C54 16.9 53.1 16 52 16ZM52 32H38V18H52V32ZM47.14 24.86L44.14 28.72L42 26.14L39 30H51L47.14 24.86Z" fill="#3C57E1"/>
<path d="M22.1014 61.648L23.4334 64H21.5854L19.6534 60.4H17.9974V64H16.3414V55.12H19.7854C21.8734 55.12 23.1214 56.068 23.1214 57.652C23.1214 59.368 21.8974 60.376 19.8214 60.376V60.4C20.7934 60.4 21.6574 60.856 22.1014 61.648ZM17.9974 59.188H19.8694C20.8414 59.188 21.4054 58.66 21.4054 57.772C21.4054 56.92 20.8414 56.404 19.8694 56.404H17.9974V59.188ZM29.8742 60.988V61.168H25.4822C25.5422 62.272 26.0702 62.92 26.9222 62.92C27.6662 62.92 28.1822 62.512 28.3382 61.852H29.8742C29.6582 63.28 28.5542 64.12 26.9222 64.12C25.0502 64.12 23.9462 62.956 23.9462 60.988C23.9462 59.008 25.0502 57.856 26.9222 57.856C28.7702 57.856 29.8742 59.008 29.8742 60.988ZM26.9222 59.044C26.1182 59.044 25.6022 59.62 25.4942 60.628H28.3262C28.2302 59.62 27.7142 59.044 26.9222 59.044ZM34.6663 57.856C35.9983 57.856 36.7783 58.768 36.7783 60.328V64H35.1943V60.4C35.1943 59.584 34.7623 59.104 34.0183 59.104C33.1783 59.104 32.6863 59.716 32.6863 60.736V64H31.1023V57.976H32.6863V60.088H32.7103C32.7103 58.684 33.4423 57.856 34.6663 57.856ZM42.5461 54.76H44.1301V64H42.5461V61.924H42.5221C42.5221 63.304 41.7181 64.12 40.3741 64.12C38.8621 64.12 37.9741 62.956 37.9741 60.988C37.9741 59.02 38.8621 57.856 40.3741 57.856C41.7181 57.856 42.5221 58.672 42.5221 60.04H42.5461V54.76ZM41.1061 62.86C42.0661 62.86 42.6301 62.092 42.6301 60.988C42.6301 59.872 42.0661 59.104 41.1061 59.104C40.1461 59.104 39.5821 59.812 39.5821 60.988C39.5821 62.164 40.1461 62.86 41.1061 62.86ZM51.2961 60.988V61.168H46.9041C46.9641 62.272 47.4921 62.92 48.3441 62.92C49.0881 62.92 49.6041 62.512 49.7601 61.852H51.2961C51.0801 63.28 49.9761 64.12 48.3441 64.12C46.4721 64.12 45.3681 62.956 45.3681 60.988C45.3681 59.008 46.4721 57.856 48.3441 57.856C50.1921 57.856 51.2961 59.008 51.2961 60.988ZM48.3441 59.044C47.5401 59.044 47.0241 59.62 46.9161 60.628H49.7481C49.6521 59.62 49.1361 59.044 48.3441 59.044ZM55.9561 57.856C56.3041 57.856 56.6401 57.928 56.8801 58.048L56.4241 59.464C56.1841 59.332 55.8841 59.248 55.5841 59.248C54.6601 59.248 54.1081 60.004 54.1081 61.276V64H52.5241V57.976H54.1081V60.46H54.1321C54.1321 58.816 54.8161 57.856 55.9561 57.856ZM57.6804 56.824V55.324H59.2644V56.824H57.6804ZM57.6804 64V57.976H59.2644V64H57.6804ZM64.3967 57.856C65.7287 57.856 66.5087 58.768 66.5087 60.328V64H64.9247V60.4C64.9247 59.584 64.4927 59.104 63.7487 59.104C62.9087 59.104 62.4167 59.716 62.4167 60.736V64H60.8327V57.976H62.4167V60.088H62.4407C62.4407 58.684 63.1727 57.856 64.3967 57.856ZM72.2766 57.976H73.8606V64.072C73.8606 65.836 72.7326 66.88 70.8366 66.88C69.2046 66.88 68.1006 66.076 67.8846 64.72L69.3846 64.492C69.4806 65.2 70.0326 65.62 70.8366 65.62C71.7366 65.62 72.2766 65.08 72.2766 64.168V61.864H72.2526C72.2526 63.232 71.4486 64.048 70.1046 64.048C68.5926 64.048 67.7046 62.896 67.7046 60.952C67.7046 59.008 68.5926 57.856 70.1046 57.856C71.4486 57.856 72.2526 58.672 72.2526 60.04H72.2766V57.976ZM70.8366 62.788C71.7966 62.788 72.3606 62.044 72.3606 60.952C72.3606 59.86 71.7966 59.104 70.8366 59.104C69.8766 59.104 69.3126 59.8 69.3126 60.952C69.3126 62.104 69.8766 62.788 70.8366 62.788Z" fill="#001A64"/>
</svg>
