<svg width="90" height="90" viewBox="0 0 90 90" fill="none" xmlns="http://www.w3.org/2000/svg">
<rect x="0.5" y="0.5" width="89" height="89" rx="7.5" fill="#FCFCFC"/>
<rect x="0.5" y="0.5" width="89" height="89" rx="7.5" stroke="#F0F0F0"/>
<path d="M29.309 49L28.697 46.852H24.905L24.293 49H22.637L25.397 40.12H28.325L31.073 49H29.309ZM25.277 45.568H28.337L26.825 40.264H26.801L25.277 45.568ZM36.1829 39.76H37.7669V49H36.1829V46.924H36.1589C36.1589 48.304 35.3549 49.12 34.0109 49.12C32.4989 49.12 31.6109 47.956 31.6109 45.988C31.6109 44.02 32.4989 42.856 34.0109 42.856C35.3549 42.856 36.1589 43.672 36.1589 45.04H36.1829V39.76ZM34.7429 47.86C35.7029 47.86 36.2669 47.092 36.2669 45.988C36.2669 44.872 35.7029 44.104 34.7429 44.104C33.7829 44.104 33.2189 44.812 33.2189 45.988C33.2189 47.164 33.7829 47.86 34.7429 47.86ZM43.6008 39.76H45.1848V49H43.6008V46.924H43.5768C43.5768 48.304 42.7728 49.12 41.4288 49.12C39.9168 49.12 39.0288 47.956 39.0288 45.988C39.0288 44.02 39.9168 42.856 41.4288 42.856C42.7728 42.856 43.5768 43.672 43.5768 45.04H43.6008V39.76ZM42.1608 47.86C43.1208 47.86 43.6848 47.092 43.6848 45.988C43.6848 44.872 43.1208 44.104 42.1608 44.104C41.2008 44.104 40.6368 44.812 40.6368 45.988C40.6368 47.164 41.2008 47.86 42.1608 47.86ZM46.6748 45.676H50.3108V46.204H46.6748V45.676ZM55.6616 49.12C53.0696 49.12 51.5336 47.428 51.5336 44.56C51.5336 41.692 53.0696 40 55.6616 40C58.2296 40 59.7656 41.692 59.7656 44.56C59.7656 47.428 58.2296 49.12 55.6616 49.12ZM55.6616 47.8C57.1616 47.8 58.0496 46.588 58.0496 44.56C58.0496 42.532 57.1616 41.32 55.6616 41.32C54.1376 41.32 53.2496 42.532 53.2496 44.56C53.2496 46.588 54.1376 47.8 55.6616 47.8ZM64.6311 42.856C65.9631 42.856 66.7431 43.768 66.7431 45.328V49H65.1591V45.4C65.1591 44.584 64.7271 44.104 63.9831 44.104C63.1431 44.104 62.6511 44.716 62.6511 45.736V49H61.0671V42.976H62.6511V45.088H62.6751C62.6751 43.684 63.4071 42.856 64.6311 42.856Z" fill="#001A64"/>
</svg>
