<svg width="90" height="90" viewBox="0 0 90 90" fill="none" xmlns="http://www.w3.org/2000/svg">
<rect x="0.5" y="0.5" width="89" height="89" rx="7.5" fill="#FBFCFF"/>
<rect x="0.5" y="0.5" width="89" height="89" rx="7.5" stroke="#F0F0F0"/>
<path d="M38.5 28.4C39.5833 28.2667 40.6625 28.1667 41.7375 28.1C42.8125 28.0333 43.9 28 45 28C46.1 28 47.1875 28.0333 48.2625 28.1C49.3375 28.1667 50.4167 28.2667 51.5 28.4L47 23L44.15 26.4L42.15 24L38.5 28.4ZM36 33C35.7167 33 35.4792 32.9042 35.2875 32.7125C35.0958 32.5208 35 32.2833 35 32V18C35 17.7167 35.0958 17.4792 35.2875 17.2875C35.4792 17.0958 35.7167 17 36 17C36.1333 17 36.4292 17.0792 36.8875 17.2375C37.3458 17.3958 37.9583 17.5667 38.725 17.75C39.4917 17.9333 40.3958 18.1042 41.4375 18.2625C42.4792 18.4208 43.6667 18.5 45 18.5C46.3333 18.5 47.5208 18.4208 48.5625 18.2625C49.6042 18.1042 50.5083 17.9333 51.275 17.75C52.0417 17.5667 52.6542 17.3958 53.1125 17.2375C53.5708 17.0792 53.8667 17 54 17C54.2833 17 54.5208 17.0958 54.7125 17.2875C54.9042 17.4792 55 17.7167 55 18V32C55 32.2833 54.9042 32.5208 54.7125 32.7125C54.5208 32.9042 54.2833 33 54 33C53.8667 33 53.5708 32.9208 53.1125 32.7625C52.6542 32.6042 52.0417 32.4333 51.275 32.25C50.5083 32.0667 49.6042 31.8958 48.5625 31.7375C47.5208 31.5792 46.3333 31.5 45 31.5C43.6667 31.5 42.4792 31.5792 41.4375 31.7375C40.3958 31.8958 39.4917 32.0667 38.725 32.25C37.9583 32.4333 37.3458 32.6042 36.8875 32.7625C36.4292 32.9208 36.1333 33 36 33ZM37 30.65C38.3 30.2667 39.6208 29.9792 40.9625 29.7875C42.3042 29.5958 43.65 29.5 45 29.5C46.35 29.5 47.6958 29.5958 49.0375 29.7875C50.3792 29.9792 51.7 30.2667 53 30.65V19.375C51.7 19.7583 50.3792 20.0417 49.0375 20.225C47.6958 20.4083 46.35 20.5 45 20.5C43.65 20.5 42.3042 20.4083 40.9625 20.225C39.6208 20.0417 38.3 19.7583 37 19.375V30.65Z" fill="#3C57E1"/>
<path d="M10.9783 58.9C12.9103 58.9 14.0503 59.812 14.0503 61.372C14.0503 63.028 12.8503 64 10.8103 64H7.05431V55.12H10.9063C12.4783 55.12 13.4023 55.84 13.4023 57.064C13.4023 58.192 12.4303 58.876 10.7983 58.876V58.9H10.9783ZM11.6863 57.64C11.6863 56.872 11.1943 56.404 10.3663 56.404H8.71031V58.876H10.3663C11.1943 58.876 11.6863 58.408 11.6863 57.64ZM10.8943 62.716C11.7943 62.716 12.3343 62.212 12.3343 61.372C12.3343 60.532 11.7943 60.028 10.8943 60.028H8.71031V62.716H10.8943ZM19.5364 57.976H21.1204V64H19.5364V61.924H19.5124C19.5124 63.304 18.7084 64.12 17.3644 64.12C15.8524 64.12 14.9644 62.956 14.9644 60.988C14.9644 59.02 15.8524 57.856 17.3644 57.856C18.7084 57.856 19.5124 58.672 19.5124 60.04H19.5364V57.976ZM18.0964 62.86C19.0564 62.86 19.6204 62.092 19.6204 60.988C19.6204 59.872 19.0564 59.104 18.0964 59.104C17.1364 59.104 16.5724 59.812 16.5724 60.988C16.5724 62.164 17.1364 62.86 18.0964 62.86ZM22.6823 64V54.76H24.2663V64H22.6823ZM28.6187 64.12C26.6747 64.12 25.5107 62.956 25.5107 60.988C25.5107 59.02 26.6747 57.856 28.6187 57.856C30.2627 57.856 31.3307 58.72 31.5707 60.208H30.0107C29.8067 59.512 29.3267 59.104 28.6187 59.104C27.6827 59.104 27.1307 59.812 27.1307 60.988C27.1307 62.164 27.6827 62.86 28.6187 62.86C29.3627 62.86 29.8547 62.428 30.0347 61.684H31.5947C31.3667 63.232 30.2987 64.12 28.6187 64.12ZM35.557 64.12C33.589 64.12 32.413 62.956 32.413 60.988C32.413 59.02 33.589 57.856 35.557 57.856C37.525 57.856 38.689 59.02 38.689 60.988C38.689 62.956 37.525 64.12 35.557 64.12ZM35.557 62.86C36.517 62.86 37.081 62.164 37.081 60.988C37.081 59.812 36.517 59.104 35.557 59.104C34.597 59.104 34.033 59.812 34.033 60.988C34.033 62.164 34.597 62.86 35.557 62.86ZM43.4846 57.856C44.8166 57.856 45.5966 58.768 45.5966 60.328V64H44.0126V60.4C44.0126 59.584 43.5806 59.104 42.8366 59.104C41.9966 59.104 41.5046 59.716 41.5046 60.736V64H39.9206V57.976H41.5046V60.088H41.5286C41.5286 58.684 42.2606 57.856 43.4846 57.856ZM50.9348 57.976H52.6268L50.3228 66.76H48.6308L49.3628 64H48.0548L46.4828 57.976H48.1748L49.5428 63.892H49.5668L50.9348 57.976ZM61.663 55.12H63.331L60.823 64H57.859L55.375 55.12H57.139L59.383 63.856H59.407L61.663 55.12ZM64.2722 56.824V55.324H65.8562V56.824H64.2722ZM64.2722 64V57.976H65.8562V64H64.2722ZM73.0285 60.988V61.168H68.6365C68.6965 62.272 69.2245 62.92 70.0765 62.92C70.8205 62.92 71.3365 62.512 71.4925 61.852H73.0285C72.8125 63.28 71.7085 64.12 70.0765 64.12C68.2045 64.12 67.1005 62.956 67.1005 60.988C67.1005 59.008 68.2045 57.856 70.0765 57.856C71.9245 57.856 73.0285 59.008 73.0285 60.988ZM70.0765 59.044C69.2725 59.044 68.7565 59.62 68.6485 60.628H71.4805C71.3845 59.62 70.8685 59.044 70.0765 59.044ZM81.9863 57.976H83.6303L82.3703 64H79.6103L78.6743 58.084H78.6503L77.7263 64H74.9663L73.7063 57.976H75.3983L76.4423 63.892H76.4663L77.3903 57.976H79.9943L80.9062 63.892H80.9303L81.9863 57.976ZM19.1317 69.12C21.1837 69.12 22.3957 70.152 22.3957 71.904C22.3957 73.656 21.1837 74.688 19.1197 74.688H17.4877V78H15.8317V69.12H19.1317ZM19.2037 73.404C20.1277 73.404 20.6797 72.84 20.6797 71.904C20.6797 70.968 20.1397 70.404 19.2037 70.404H17.4877V73.404H19.2037ZM27.5872 71.976H29.1712V78H27.5872V75.924H27.5632C27.5632 77.304 26.7592 78.12 25.4152 78.12C23.9032 78.12 23.0152 76.956 23.0152 74.988C23.0152 73.02 23.9032 71.856 25.4152 71.856C26.7592 71.856 27.5632 72.672 27.5632 74.04H27.5872V71.976ZM26.1472 76.86C27.1072 76.86 27.6712 76.092 27.6712 74.988C27.6712 73.872 27.1072 73.104 26.1472 73.104C25.1872 73.104 24.6232 73.812 24.6232 74.988C24.6232 76.164 25.1872 76.86 26.1472 76.86ZM34.2971 71.856C35.6291 71.856 36.4091 72.768 36.4091 74.328V78H34.8251V74.4C34.8251 73.584 34.3931 73.104 33.6491 73.104C32.8091 73.104 32.3171 73.716 32.3171 74.736V78H30.7331V71.976H32.3171V74.088H32.3411C32.3411 72.684 33.0731 71.856 34.2971 71.856ZM40.725 78.12C38.757 78.12 37.581 76.956 37.581 74.988C37.581 73.02 38.757 71.856 40.725 71.856C42.693 71.856 43.857 73.02 43.857 74.988C43.857 76.956 42.693 78.12 40.725 78.12ZM40.725 76.86C41.685 76.86 42.249 76.164 42.249 74.988C42.249 73.812 41.685 73.104 40.725 73.104C39.765 73.104 39.201 73.812 39.201 74.988C39.201 76.164 39.765 76.86 40.725 76.86ZM48.5206 71.856C48.8686 71.856 49.2046 71.928 49.4446 72.048L48.9886 73.464C48.7486 73.332 48.4486 73.248 48.1486 73.248C47.2246 73.248 46.6726 74.004 46.6726 75.276V78H45.0886V71.976H46.6726V74.46H46.6966C46.6966 72.816 47.3806 71.856 48.5206 71.856ZM54.3411 71.976H55.9251V78H54.3411V75.924H54.3171C54.3171 77.304 53.5131 78.12 52.1691 78.12C50.6571 78.12 49.7691 76.956 49.7691 74.988C49.7691 73.02 50.6571 71.856 52.1691 71.856C53.5131 71.856 54.3171 72.672 54.3171 74.04H54.3411V71.976ZM52.9011 76.86C53.8611 76.86 54.4251 76.092 54.4251 74.988C54.4251 73.872 53.8611 73.104 52.9011 73.104C51.9411 73.104 51.3771 73.812 51.3771 74.988C51.3771 76.164 51.9411 76.86 52.9011 76.86ZM64.951 71.856C66.247 71.856 67.015 72.744 67.015 74.268V78H65.431V74.34C65.431 73.56 65.011 73.104 64.303 73.104C63.511 73.104 63.043 73.692 63.043 74.676V78H61.459V74.34C61.459 73.56 61.051 73.104 60.343 73.104C59.539 73.104 59.071 73.692 59.071 74.676V78H57.487V71.976H59.071V74.064H59.095C59.095 72.672 59.827 71.856 61.039 71.856C62.299 71.856 63.043 72.708 63.043 74.064H63.067C63.067 72.672 63.763 71.856 64.951 71.856ZM72.7864 71.976H74.3704V78H72.7864V75.924H72.7624C72.7624 77.304 71.9584 78.12 70.6144 78.12C69.1024 78.12 68.2144 76.956 68.2144 74.988C68.2144 73.02 69.1024 71.856 70.6144 71.856C71.9584 71.856 72.7624 72.672 72.7624 74.04H72.7864V71.976ZM71.3464 76.86C72.3064 76.86 72.8704 76.092 72.8704 74.988C72.8704 73.872 72.3064 73.104 71.3464 73.104C70.3864 73.104 69.8224 73.812 69.8224 74.988C69.8224 76.164 70.3864 76.86 71.3464 76.86Z" fill="#001A64"/>
</svg>
