<svg width="90" height="90" viewBox="0 0 90 90" fill="none" xmlns="http://www.w3.org/2000/svg">
<rect x="0.5" y="0.5" width="89" height="89" rx="7.5" fill="#FFFFC8"/>
<rect x="0.5" y="0.5" width="89" height="89" rx="7.5" stroke="#F0F0F0"/>
<path d="M42 26H52L48.55 21.5L46.25 24.5L44.7 22.5L42 26ZM36 34C35.45 34 34.9792 33.8042 34.5875 33.4125C34.1958 33.0208 34 32.55 34 32V19H36V32H53V34H36ZM40 30C39.45 30 38.9792 29.8042 38.5875 29.4125C38.1958 29.0208 38 28.55 38 28V17C38 16.45 38.1958 15.9792 38.5875 15.5875C38.9792 15.1958 39.45 15 40 15H45L47 17H54C54.55 17 55.0208 17.1958 55.4125 17.5875C55.8042 17.9792 56 18.45 56 19V28C56 28.55 55.8042 29.0208 55.4125 29.4125C55.0208 29.8042 54.55 30 54 30H40ZM40 28H54V19H46.175L44.175 17H40V28Z" fill="#3C57E1"/>
<path d="M22.1014 61.648L23.4334 64H21.5854L19.6534 60.4H17.9974V64H16.3414V55.12H19.7854C21.8734 55.12 23.1214 56.068 23.1214 57.652C23.1214 59.368 21.8974 60.376 19.8214 60.376V60.4C20.7934 60.4 21.6574 60.856 22.1014 61.648ZM17.9974 59.188H19.8694C20.8414 59.188 21.4054 58.66 21.4054 57.772C21.4054 56.92 20.8414 56.404 19.8694 56.404H17.9974V59.188ZM29.8742 60.988V61.168H25.4822C25.5422 62.272 26.0702 62.92 26.9222 62.92C27.6662 62.92 28.1822 62.512 28.3382 61.852H29.8742C29.6582 63.28 28.5542 64.12 26.9222 64.12C25.0502 64.12 23.9462 62.956 23.9462 60.988C23.9462 59.008 25.0502 57.856 26.9222 57.856C28.7702 57.856 29.8742 59.008 29.8742 60.988ZM26.9222 59.044C26.1182 59.044 25.6022 59.62 25.4942 60.628H28.3262C28.2302 59.62 27.7142 59.044 26.9222 59.044ZM34.6663 57.856C35.9983 57.856 36.7783 58.768 36.7783 60.328V64H35.1943V60.4C35.1943 59.584 34.7623 59.104 34.0183 59.104C33.1783 59.104 32.6863 59.716 32.6863 60.736V64H31.1023V57.976H32.6863V60.088H32.7103C32.7103 58.684 33.4423 57.856 34.6663 57.856ZM42.5461 54.76H44.1301V64H42.5461V61.924H42.5221C42.5221 63.304 41.7181 64.12 40.3741 64.12C38.8621 64.12 37.9741 62.956 37.9741 60.988C37.9741 59.02 38.8621 57.856 40.3741 57.856C41.7181 57.856 42.5221 58.672 42.5221 60.04H42.5461V54.76ZM41.1061 62.86C42.0661 62.86 42.6301 62.092 42.6301 60.988C42.6301 59.872 42.0661 59.104 41.1061 59.104C40.1461 59.104 39.5821 59.812 39.5821 60.988C39.5821 62.164 40.1461 62.86 41.1061 62.86ZM51.2961 60.988V61.168H46.9041C46.9641 62.272 47.4921 62.92 48.3441 62.92C49.0881 62.92 49.6041 62.512 49.7601 61.852H51.2961C51.0801 63.28 49.9761 64.12 48.3441 64.12C46.4721 64.12 45.3681 62.956 45.3681 60.988C45.3681 59.008 46.4721 57.856 48.3441 57.856C50.1921 57.856 51.2961 59.008 51.2961 60.988ZM48.3441 59.044C47.5401 59.044 47.0241 59.62 46.9161 60.628H49.7481C49.6521 59.62 49.1361 59.044 48.3441 59.044ZM55.9561 57.856C56.3041 57.856 56.6401 57.928 56.8801 58.048L56.4241 59.464C56.1841 59.332 55.8841 59.248 55.5841 59.248C54.6601 59.248 54.1081 60.004 54.1081 61.276V64H52.5241V57.976H54.1081V60.46H54.1321C54.1321 58.816 54.8161 57.856 55.9561 57.856ZM57.6804 56.824V55.324H59.2644V56.824H57.6804ZM57.6804 64V57.976H59.2644V64H57.6804ZM64.3967 57.856C65.7287 57.856 66.5087 58.768 66.5087 60.328V64H64.9247V60.4C64.9247 59.584 64.4927 59.104 63.7487 59.104C62.9087 59.104 62.4167 59.716 62.4167 60.736V64H60.8327V57.976H62.4167V60.088H62.4407C62.4407 58.684 63.1727 57.856 64.3967 57.856ZM72.2766 57.976H73.8606V64.072C73.8606 65.836 72.7326 66.88 70.8366 66.88C69.2046 66.88 68.1006 66.076 67.8846 64.72L69.3846 64.492C69.4806 65.2 70.0326 65.62 70.8366 65.62C71.7366 65.62 72.2766 65.08 72.2766 64.168V61.864H72.2526C72.2526 63.232 71.4486 64.048 70.1046 64.048C68.5926 64.048 67.7046 62.896 67.7046 60.952C67.7046 59.008 68.5926 57.856 70.1046 57.856C71.4486 57.856 72.2526 58.672 72.2526 60.04H72.2766V57.976ZM70.8366 62.788C71.7966 62.788 72.3606 62.044 72.3606 60.952C72.3606 59.86 71.7966 59.104 70.8366 59.104C69.8766 59.104 69.3126 59.8 69.3126 60.952C69.3126 62.104 69.8766 62.788 70.8366 62.788ZM24.1297 69.12C26.1817 69.12 27.3937 70.152 27.3937 71.904C27.3937 73.656 26.1817 74.688 24.1177 74.688H22.4857V78H20.8297V69.12H24.1297ZM24.2017 73.404C25.1257 73.404 25.6777 72.84 25.6777 71.904C25.6777 70.968 25.1377 70.404 24.2017 70.404H22.4857V73.404H24.2017ZM32.5852 71.976H34.1692V78H32.5852V75.924H32.5612C32.5612 77.304 31.7572 78.12 30.4132 78.12C28.9012 78.12 28.0132 76.956 28.0132 74.988C28.0132 73.02 28.9012 71.856 30.4132 71.856C31.7572 71.856 32.5612 72.672 32.5612 74.04H32.5852V71.976ZM31.1452 76.86C32.1052 76.86 32.6692 76.092 32.6692 74.988C32.6692 73.872 32.1052 73.104 31.1452 73.104C30.1852 73.104 29.6212 73.812 29.6212 74.988C29.6212 76.164 30.1852 76.86 31.1452 76.86ZM38.5152 78.12C36.5712 78.12 35.4072 76.956 35.4072 74.988C35.4072 73.02 36.5712 71.856 38.5152 71.856C40.1592 71.856 41.2272 72.72 41.4672 74.208H39.9072C39.7032 73.512 39.2232 73.104 38.5152 73.104C37.5792 73.104 37.0272 73.812 37.0272 74.988C37.0272 76.164 37.5792 76.86 38.5152 76.86C39.2592 76.86 39.7512 76.428 39.9312 75.684H41.4912C41.2632 77.232 40.1952 78.12 38.5152 78.12ZM45.9935 74.844L48.8255 78H46.8815L44.2415 74.916H44.2175V78H42.6335V68.76H44.2175V74.808H44.2415L46.6775 71.976H48.5495L45.9935 74.844ZM53.5383 71.976H55.1223V78H53.5383V75.924H53.5143C53.5143 77.304 52.7103 78.12 51.3663 78.12C49.8543 78.12 48.9663 76.956 48.9663 74.988C48.9663 73.02 49.8543 71.856 51.3663 71.856C52.7103 71.856 53.5143 72.672 53.5143 74.04H53.5383V71.976ZM52.0983 76.86C53.0583 76.86 53.6223 76.092 53.6223 74.988C53.6223 73.872 53.0583 73.104 52.0983 73.104C51.1383 73.104 50.5743 73.812 50.5743 74.988C50.5743 76.164 51.1383 76.86 52.0983 76.86ZM60.9563 71.976H62.5403V78.072C62.5403 79.836 61.4123 80.88 59.5163 80.88C57.8843 80.88 56.7803 80.076 56.5643 78.72L58.0643 78.492C58.1603 79.2 58.7123 79.62 59.5163 79.62C60.4163 79.62 60.9563 79.08 60.9563 78.168V75.864H60.9323C60.9323 77.232 60.1283 78.048 58.7843 78.048C57.2723 78.048 56.3843 76.896 56.3843 74.952C56.3843 73.008 57.2723 71.856 58.7843 71.856C60.1283 71.856 60.9323 72.672 60.9323 74.04H60.9563V71.976ZM59.5163 76.788C60.4763 76.788 61.0403 76.044 61.0403 74.952C61.0403 73.86 60.4763 73.104 59.5163 73.104C58.5563 73.104 57.9923 73.8 57.9923 74.952C57.9923 76.104 58.5563 76.788 59.5163 76.788ZM69.7063 74.988V75.168H65.3143C65.3743 76.272 65.9023 76.92 66.7543 76.92C67.4983 76.92 68.0143 76.512 68.1703 75.852H69.7063C69.4903 77.28 68.3863 78.12 66.7543 78.12C64.8823 78.12 63.7783 76.956 63.7783 74.988C63.7783 73.008 64.8823 71.856 66.7543 71.856C68.6023 71.856 69.7063 73.008 69.7063 74.988ZM66.7543 73.044C65.9503 73.044 65.4343 73.62 65.3263 74.628H68.1583C68.0623 73.62 67.5463 73.044 66.7543 73.044Z" fill="#001A64"/>
</svg>
