<svg width="90" height="90" viewBox="0 0 90 90" fill="none" xmlns="http://www.w3.org/2000/svg">
<rect x="0.5" y="0.5" width="89" height="89" rx="7.5" fill="#FFFFC8"/>
<rect x="0.5" y="0.5" width="89" height="89" rx="7.5" stroke="#F0F0F0"/>
<path d="M35 31.5V29.5H45V31.5H35ZM35 26.5V24.5H40V26.5H35ZM35 21.5V19.5H40V21.5H35ZM53.6 31.5L49.75 27.65C49.35 27.9333 48.9125 28.1458 48.4375 28.2875C47.9625 28.4292 47.4833 28.5 47 28.5C45.6167 28.5 44.4375 28.0125 43.4625 27.0375C42.4875 26.0625 42 24.8833 42 23.5C42 22.1167 42.4875 20.9375 43.4625 19.9625C44.4375 18.9875 45.6167 18.5 47 18.5C48.3833 18.5 49.5625 18.9875 50.5375 19.9625C51.5125 20.9375 52 22.1167 52 23.5C52 23.9833 51.9292 24.4625 51.7875 24.9375C51.6458 25.4125 51.4333 25.85 51.15 26.25L55 30.1L53.6 31.5ZM47 26.5C47.8333 26.5 48.5417 26.2083 49.125 25.625C49.7083 25.0417 50 24.3333 50 23.5C50 22.6667 49.7083 21.9583 49.125 21.375C48.5417 20.7917 47.8333 20.5 47 20.5C46.1667 20.5 45.4583 20.7917 44.875 21.375C44.2917 21.9583 44 22.6667 44 23.5C44 24.3333 44.2917 25.0417 44.875 25.625C45.4583 26.2083 46.1667 26.5 47 26.5Z" fill="#3C57E1"/>
<path d="M28.3495 64.12C26.2135 64.12 24.8575 62.932 24.6895 60.892H26.3215C26.4295 62.092 27.1855 62.8 28.3855 62.8C29.5975 62.8 30.3055 62.296 30.3055 61.456C30.3055 60.424 29.2495 60.268 28.0855 60.088C26.6215 59.884 24.9295 59.632 24.9295 57.664C24.9295 55.936 26.2015 55 28.3495 55C30.3055 55 31.5775 56.152 31.7455 58.096H30.1015C30.0295 56.98 29.3455 56.32 28.2655 56.32C27.2215 56.32 26.6095 56.776 26.6095 57.544C26.6095 58.42 27.5935 58.576 28.6975 58.744C30.1975 58.96 31.9855 59.236 31.9855 61.288C31.9855 63.064 30.6415 64.12 28.3495 64.12ZM38.8332 60.988V61.168H34.4412C34.5012 62.272 35.0292 62.92 35.8812 62.92C36.6252 62.92 37.1412 62.512 37.2972 61.852H38.8332C38.6172 63.28 37.5132 64.12 35.8812 64.12C34.0092 64.12 32.9052 62.956 32.9052 60.988C32.9052 59.008 34.0092 57.856 35.8812 57.856C37.7292 57.856 38.8332 59.008 38.8332 60.988ZM35.8812 59.044C35.0772 59.044 34.5612 59.62 34.4532 60.628H37.2852C37.1892 59.62 36.6732 59.044 35.8812 59.044ZM44.3333 57.976H45.9173V64H44.3333V61.924H44.3093C44.3093 63.304 43.5053 64.12 42.1613 64.12C40.6493 64.12 39.7613 62.956 39.7613 60.988C39.7613 59.02 40.6493 57.856 42.1613 57.856C43.5053 57.856 44.3093 58.672 44.3093 60.04H44.3333V57.976ZM42.8933 62.86C43.8533 62.86 44.4173 62.092 44.4173 60.988C44.4173 59.872 43.8533 59.104 42.8933 59.104C41.9333 59.104 41.3693 59.812 41.3693 60.988C41.3693 62.164 41.9333 62.86 42.8933 62.86ZM50.9112 57.856C51.2592 57.856 51.5952 57.928 51.8352 58.048L51.3792 59.464C51.1392 59.332 50.8392 59.248 50.5392 59.248C49.6152 59.248 49.0632 60.004 49.0632 61.276V64H47.4792V57.976H49.0632V60.46H49.0872C49.0872 58.816 49.7712 57.856 50.9112 57.856ZM55.2203 64.12C53.2763 64.12 52.1123 62.956 52.1123 60.988C52.1123 59.02 53.2763 57.856 55.2203 57.856C56.8643 57.856 57.9323 58.72 58.1723 60.208H56.6123C56.4083 59.512 55.9283 59.104 55.2203 59.104C54.2843 59.104 53.7323 59.812 53.7323 60.988C53.7323 62.164 54.2843 62.86 55.2203 62.86C55.9643 62.86 56.4563 62.428 56.6363 61.684H58.1963C57.9683 63.232 56.9003 64.12 55.2203 64.12ZM62.9026 57.856C64.2346 57.856 65.0146 58.768 65.0146 60.328V64H63.4306V60.4C63.4306 59.584 62.9986 59.104 62.2546 59.104C61.4146 59.104 60.9226 59.716 60.9226 60.736V64H59.3386V54.76H60.9226V60.088H60.9466C60.9466 58.684 61.6786 57.856 62.9026 57.856Z" fill="#001A64"/>
</svg>
