<svg width="90" height="90" viewBox="0 0 90 90" fill="none" xmlns="http://www.w3.org/2000/svg">
<rect x="0.5" y="0.5" width="89" height="89" rx="7.5" fill="#FBFCFF"/>
<rect x="0.5" y="0.5" width="89" height="89" rx="7.5" stroke="#F0F0F0"/>
<path d="M38.5 28.4C39.5833 28.2667 40.6625 28.1667 41.7375 28.1C42.8125 28.0333 43.9 28 45 28C46.1 28 47.1875 28.0333 48.2625 28.1C49.3375 28.1667 50.4167 28.2667 51.5 28.4L47 23L44.15 26.4L42.15 24L38.5 28.4ZM36 33C35.7167 33 35.4792 32.9042 35.2875 32.7125C35.0958 32.5208 35 32.2833 35 32V18C35 17.7167 35.0958 17.4792 35.2875 17.2875C35.4792 17.0958 35.7167 17 36 17C36.1333 17 36.4292 17.0792 36.8875 17.2375C37.3458 17.3958 37.9583 17.5667 38.725 17.75C39.4917 17.9333 40.3958 18.1042 41.4375 18.2625C42.4792 18.4208 43.6667 18.5 45 18.5C46.3333 18.5 47.5208 18.4208 48.5625 18.2625C49.6042 18.1042 50.5083 17.9333 51.275 17.75C52.0417 17.5667 52.6542 17.3958 53.1125 17.2375C53.5708 17.0792 53.8667 17 54 17C54.2833 17 54.5208 17.0958 54.7125 17.2875C54.9042 17.4792 55 17.7167 55 18V32C55 32.2833 54.9042 32.5208 54.7125 32.7125C54.5208 32.9042 54.2833 33 54 33C53.8667 33 53.5708 32.9208 53.1125 32.7625C52.6542 32.6042 52.0417 32.4333 51.275 32.25C50.5083 32.0667 49.6042 31.8958 48.5625 31.7375C47.5208 31.5792 46.3333 31.5 45 31.5C43.6667 31.5 42.4792 31.5792 41.4375 31.7375C40.3958 31.8958 39.4917 32.0667 38.725 32.25C37.9583 32.4333 37.3458 32.6042 36.8875 32.7625C36.4292 32.9208 36.1333 33 36 33ZM37 30.65C38.3 30.2667 39.6208 29.9792 40.9625 29.7875C42.3042 29.5958 43.65 29.5 45 29.5C46.35 29.5 47.6958 29.5958 49.0375 29.7875C50.3792 29.9792 51.7 30.2667 53 30.65V19.375C51.7 19.7583 50.3792 20.0417 49.0375 20.225C47.6958 20.4083 46.35 20.5 45 20.5C43.65 20.5 42.3042 20.4083 40.9625 20.225C39.6208 20.0417 38.3 19.7583 37 19.375V30.65Z" fill="#3C57E1"/>
<path d="M18.7147 58.9C20.6707 58.9 21.8347 59.836 21.8347 61.42C21.8347 63.112 20.6107 64.12 18.5227 64.12C16.6747 64.12 15.5227 63.028 15.3907 61.168H16.9867C17.0347 62.2 17.6107 62.8 18.5467 62.8C19.5427 62.8 20.1187 62.296 20.1187 61.42C20.1187 60.544 19.4947 60.028 18.4507 60.028H18.2227V58.876C19.2547 58.78 19.8667 58.276 19.8667 57.52C19.8667 56.764 19.3747 56.32 18.5227 56.32C17.7067 56.32 17.1907 56.932 17.1307 57.964H15.5707C15.7027 56.104 16.8427 55 18.6667 55C20.5027 55 21.5827 55.792 21.5827 56.98C21.5827 58.168 20.4787 58.876 18.6067 58.876V58.9H18.7147ZM27.1172 58.3C28.7612 58.3 29.7092 59.284 29.7092 60.976C29.7092 62.944 28.4012 64.12 26.3132 64.12C24.1052 64.12 22.9172 62.572 22.9172 59.716C22.9172 56.752 24.2372 55 26.4932 55C28.2452 55 29.3612 55.984 29.5052 57.652H27.8972C27.8012 56.824 27.2852 56.32 26.4932 56.32C25.2932 56.32 24.5852 57.568 24.5852 59.668V60.556H24.6092C24.6092 59.14 25.5452 58.3 27.1172 58.3ZM26.2892 62.8C27.3572 62.8 28.0052 62.164 28.0052 61.108C28.0052 60.112 27.3572 59.536 26.2892 59.536C25.2332 59.536 24.5972 60.1 24.5972 61.06C24.5972 62.14 25.2812 62.8 26.2892 62.8ZM34.2125 64.12C32.0525 64.12 30.7805 62.428 30.7805 59.56C30.7805 56.692 32.0525 55 34.2125 55C36.3725 55 37.6565 56.692 37.6565 59.56C37.6565 62.428 36.3725 64.12 34.2125 64.12ZM34.2125 62.8C35.3045 62.8 35.9405 61.588 35.9405 59.56C35.9405 57.532 35.3045 56.32 34.2125 56.32C33.1325 56.32 32.4845 57.532 32.4845 59.56C32.4845 61.588 33.1325 62.8 34.2125 62.8ZM40.597 58.828C39.373 58.828 38.653 58.132 38.653 56.944C38.653 55.756 39.373 55.048 40.597 55.048C41.797 55.048 42.517 55.756 42.517 56.944C42.517 58.132 41.797 58.828 40.597 58.828ZM40.597 57.964C41.101 57.964 41.401 57.58 41.401 56.944C41.401 56.308 41.101 55.924 40.597 55.924C40.081 55.924 39.769 56.308 39.769 56.944C39.769 57.58 40.081 57.964 40.597 57.964ZM49.8524 55.12C51.9044 55.12 53.1164 56.152 53.1164 57.904C53.1164 59.656 51.9044 60.688 49.8404 60.688H48.2084V64H46.5524V55.12H49.8524ZM49.9244 59.404C50.8484 59.404 51.4004 58.84 51.4004 57.904C51.4004 56.968 50.8604 56.404 49.9244 56.404H48.2084V59.404H49.9244ZM58.3079 57.976H59.8919V64H58.3079V61.924H58.2839C58.2839 63.304 57.4799 64.12 56.1359 64.12C54.6239 64.12 53.7359 62.956 53.7359 60.988C53.7359 59.02 54.6239 57.856 56.1359 57.856C57.4799 57.856 58.2839 58.672 58.2839 60.04H58.3079V57.976ZM56.8679 62.86C57.8279 62.86 58.3919 62.092 58.3919 60.988C58.3919 59.872 57.8279 59.104 56.8679 59.104C55.9079 59.104 55.3439 59.812 55.3439 60.988C55.3439 62.164 55.9079 62.86 56.8679 62.86ZM65.0178 57.856C66.3498 57.856 67.1298 58.768 67.1298 60.328V64H65.5458V60.4C65.5458 59.584 65.1138 59.104 64.3698 59.104C63.5298 59.104 63.0378 59.716 63.0378 60.736V64H61.4538V57.976H63.0378V60.088H63.0618C63.0618 58.684 63.7938 57.856 65.0178 57.856ZM71.4457 64.12C69.4777 64.12 68.3017 62.956 68.3017 60.988C68.3017 59.02 69.4777 57.856 71.4457 57.856C73.4137 57.856 74.5777 59.02 74.5777 60.988C74.5777 62.956 73.4137 64.12 71.4457 64.12ZM71.4457 62.86C72.4057 62.86 72.9697 62.164 72.9697 60.988C72.9697 59.812 72.4057 59.104 71.4457 59.104C70.4857 59.104 69.9217 59.812 69.9217 60.988C69.9217 62.164 70.4857 62.86 71.4457 62.86ZM24.1966 76.716H28.8766V78H22.5406V69.12H28.7446V70.404H24.1966V72.804H28.3246V74.088H24.1966V76.716ZM34.4016 74.844L36.0336 78H34.2216L32.7936 74.916H32.7696L31.3296 78H29.5296L31.1616 74.844L29.7336 71.976H31.4736L32.7696 74.808H32.7936L34.0896 71.976H35.8296L34.4016 74.844ZM40.7888 73.068H38.9168V75.972C38.9168 76.536 39.2768 76.86 39.8768 76.86C40.1648 76.86 40.4648 76.788 40.6808 76.668V77.844C40.3208 78.012 39.8288 78.12 39.3728 78.12C38.0888 78.12 37.3328 77.4 37.3328 76.176V73.068H36.4688V71.976H37.4288V69.96H39.0128V70.464C39.0128 71.232 38.4368 71.772 37.4768 71.952V71.976H40.7888V73.068ZM47.3469 74.988V75.168H42.9549C43.0149 76.272 43.5429 76.92 44.3949 76.92C45.1389 76.92 45.6549 76.512 45.8109 75.852H47.3469C47.1309 77.28 46.0269 78.12 44.3949 78.12C42.5229 78.12 41.4189 76.956 41.4189 74.988C41.4189 73.008 42.5229 71.856 44.3949 71.856C46.2429 71.856 47.3469 73.008 47.3469 74.988ZM44.3949 73.044C43.5909 73.044 43.0749 73.62 42.9669 74.628H45.7989C45.7029 73.62 45.1869 73.044 44.3949 73.044ZM52.0069 71.856C52.3549 71.856 52.6909 71.928 52.9309 72.048L52.4749 73.464C52.2349 73.332 51.9349 73.248 51.6349 73.248C50.7109 73.248 50.1589 74.004 50.1589 75.276V78H48.5749V71.976H50.1589V74.46H50.1829C50.1829 72.816 50.8669 71.856 52.0069 71.856ZM53.7312 70.824V69.324H55.3152V70.824H53.7312ZM53.7312 78V71.976H55.3152V78H53.7312ZM59.7035 78.12C57.7355 78.12 56.5595 76.956 56.5595 74.988C56.5595 73.02 57.7355 71.856 59.7035 71.856C61.6715 71.856 62.8355 73.02 62.8355 74.988C62.8355 76.956 61.6715 78.12 59.7035 78.12ZM59.7035 76.86C60.6635 76.86 61.2275 76.164 61.2275 74.988C61.2275 73.812 60.6635 73.104 59.7035 73.104C58.7435 73.104 58.1795 73.812 58.1795 74.988C58.1795 76.164 58.7435 76.86 59.7035 76.86ZM67.4991 71.856C67.8471 71.856 68.1831 71.928 68.4231 72.048L67.9671 73.464C67.7271 73.332 67.4271 73.248 67.1271 73.248C66.2031 73.248 65.6511 74.004 65.6511 75.276V78H64.0671V71.976H65.6511V74.46H65.6751C65.6751 72.816 66.3591 71.856 67.4991 71.856Z" fill="#001A64"/>
</svg>
