<svg width="90" height="92" viewBox="0 0 90 92" fill="none" xmlns="http://www.w3.org/2000/svg">
<rect x="0.5" y="0.5" width="89" height="89" rx="7.5" fill="#FBFCFF"/>
<rect x="0.5" y="0.5" width="89" height="89" rx="7.5" stroke="#F0F0F0"/>
<path d="M45 36C43.6167 36 42.3167 35.7375 41.1 35.2125C39.8833 34.6875 38.825 33.975 37.925 33.075C37.025 32.175 36.3125 31.1167 35.7875 29.9C35.2625 28.6833 35 27.3833 35 26C35 24.6167 35.2625 23.3167 35.7875 22.1C36.3125 20.8833 37.025 19.825 37.925 18.925C38.825 18.025 39.8833 17.3125 41.1 16.7875C42.3167 16.2625 43.6167 16 45 16C46.3833 16 47.6833 16.2625 48.9 16.7875C50.1167 17.3125 51.175 18.025 52.075 18.925C52.975 19.825 53.6875 20.8833 54.2125 22.1C54.7375 23.3167 55 24.6167 55 26C55 27.3833 54.7375 28.6833 54.2125 29.9C53.6875 31.1167 52.975 32.175 52.075 33.075C51.175 33.975 50.1167 34.6875 48.9 35.2125C47.6833 35.7375 46.3833 36 45 36ZM45 34C45.9333 34 46.8125 33.8542 47.6375 33.5625C48.4625 33.2708 49.2167 32.8583 49.9 32.325L48.475 30.9C47.9917 31.25 47.4542 31.5208 46.8625 31.7125C46.2708 31.9042 45.65 32 45 32C43.3333 32 41.9167 31.4167 40.75 30.25C39.5833 29.0833 39 27.6667 39 26C39 24.3333 39.5833 22.9167 40.75 21.75C41.9167 20.5833 43.3333 20 45 20C46.6667 20 48.0833 20.5833 49.25 21.75C50.4167 22.9167 51 24.3333 51 26C51 26.65 50.9 27.275 50.7 27.875C50.5 28.475 50.225 29.0167 49.875 29.5L51.3 30.925C51.8333 30.2417 52.25 29.4833 52.55 28.65C52.85 27.8167 53 26.9333 53 26C53 23.7667 52.225 21.875 50.675 20.325C49.125 18.775 47.2333 18 45 18C42.7667 18 40.875 18.775 39.325 20.325C37.775 21.875 37 23.7667 37 26C37 28.2333 37.775 30.125 39.325 31.675C40.875 33.225 42.7667 34 45 34ZM45 30C45.3667 30 45.7208 29.9542 46.0625 29.8625C46.4042 29.7708 46.725 29.6333 47.025 29.45L45.5 27.925C45.4167 27.9583 45.3333 27.9792 45.25 27.9875C45.1667 27.9958 45.0833 28 45 28C44.45 28 43.9792 27.8042 43.5875 27.4125C43.1958 27.0208 43 26.55 43 26C43 25.45 43.1958 24.9792 43.5875 24.5875C43.9792 24.1958 44.45 24 45 24C45.55 24 46.0208 24.1958 46.4125 24.5875C46.8042 24.9792 47 25.45 47 26C47 26.1 46.9958 26.1958 46.9875 26.2875C46.9792 26.3792 46.9583 26.4667 46.925 26.55L48.425 28.05C48.6083 27.75 48.75 27.4292 48.85 27.0875C48.95 26.7458 49 26.3833 49 26C49 24.9 48.6083 23.9583 47.825 23.175C47.0417 22.3917 46.1 22 45 22C43.9 22 42.9583 22.3917 42.175 23.175C41.3917 23.9583 41 24.9 41 26C41 27.1 41.3917 28.0417 42.175 28.825C42.9583 29.6083 43.9 30 45 30Z" fill="#3C57E1"/>
<path d="M17.6269 61.12C15.4909 61.12 14.1349 59.932 13.9669 57.892H15.5989C15.7069 59.092 16.4629 59.8 17.6629 59.8C18.8749 59.8 19.5829 59.296 19.5829 58.456C19.5829 57.424 18.5269 57.268 17.3629 57.088C15.8989 56.884 14.2069 56.632 14.2069 54.664C14.2069 52.936 15.4789 52 17.6269 52C19.5829 52 20.8549 53.152 21.0229 55.096H19.3789C19.3069 53.98 18.6229 53.32 17.5429 53.32C16.4989 53.32 15.8869 53.776 15.8869 54.544C15.8869 55.42 16.8709 55.576 17.9749 55.744C19.4749 55.96 21.2629 56.236 21.2629 58.288C21.2629 60.064 19.9189 61.12 17.6269 61.12ZM28.1106 57.988V58.168H23.7186C23.7786 59.272 24.3066 59.92 25.1586 59.92C25.9026 59.92 26.4186 59.512 26.5746 58.852H28.1106C27.8946 60.28 26.7906 61.12 25.1586 61.12C23.2866 61.12 22.1826 59.956 22.1826 57.988C22.1826 56.008 23.2866 54.856 25.1586 54.856C27.0066 54.856 28.1106 56.008 28.1106 57.988ZM25.1586 56.044C24.3546 56.044 23.8386 56.62 23.7306 57.628H26.5626C26.4666 56.62 25.9506 56.044 25.1586 56.044ZM32.1226 61.12C30.1786 61.12 29.0146 59.956 29.0146 57.988C29.0146 56.02 30.1786 54.856 32.1226 54.856C33.7666 54.856 34.8346 55.72 35.0746 57.208H33.5146C33.3106 56.512 32.8306 56.104 32.1226 56.104C31.1866 56.104 30.6346 56.812 30.6346 57.988C30.6346 59.164 31.1866 59.86 32.1226 59.86C32.8666 59.86 33.3586 59.428 33.5386 58.684H35.0986C34.8706 60.232 33.8026 61.12 32.1226 61.12ZM39.0609 61.12C37.0929 61.12 35.9169 59.956 35.9169 57.988C35.9169 56.02 37.0929 54.856 39.0609 54.856C41.0289 54.856 42.1929 56.02 42.1929 57.988C42.1929 59.956 41.0289 61.12 39.0609 61.12ZM39.0609 59.86C40.0209 59.86 40.5849 59.164 40.5849 57.988C40.5849 56.812 40.0209 56.104 39.0609 56.104C38.1009 56.104 37.5369 56.812 37.5369 57.988C37.5369 59.164 38.1009 59.86 39.0609 59.86ZM46.9885 54.856C48.3205 54.856 49.1005 55.768 49.1005 57.328V61H47.5165V57.4C47.5165 56.584 47.0845 56.104 46.3405 56.104C45.5005 56.104 45.0085 56.716 45.0085 57.736V61H43.4245V54.976H45.0085V57.088H45.0325C45.0325 55.684 45.7645 54.856 46.9885 54.856ZM54.8684 51.76H56.4524V61H54.8684V58.924H54.8444C54.8444 60.304 54.0404 61.12 52.6964 61.12C51.1844 61.12 50.2964 59.956 50.2964 57.988C50.2964 56.02 51.1844 54.856 52.6964 54.856C54.0404 54.856 54.8444 55.672 54.8444 57.04H54.8684V51.76ZM53.4284 59.86C54.3884 59.86 54.9524 59.092 54.9524 57.988C54.9524 56.872 54.3884 56.104 53.4284 56.104C52.4684 56.104 51.9044 56.812 51.9044 57.988C51.9044 59.164 52.4684 59.86 53.4284 59.86ZM62.2864 54.976H63.8704V61H62.2864V58.924H62.2624C62.2624 60.304 61.4584 61.12 60.1144 61.12C58.6024 61.12 57.7144 59.956 57.7144 57.988C57.7144 56.02 58.6024 54.856 60.1144 54.856C61.4584 54.856 62.2624 55.672 62.2624 57.04H62.2864V54.976ZM60.8464 59.86C61.8064 59.86 62.3704 59.092 62.3704 57.988C62.3704 56.872 61.8064 56.104 60.8464 56.104C59.8864 56.104 59.3224 56.812 59.3224 57.988C59.3224 59.164 59.8864 59.86 60.8464 59.86ZM68.8643 54.856C69.2123 54.856 69.5483 54.928 69.7883 55.048L69.3323 56.464C69.0923 56.332 68.7923 56.248 68.4923 56.248C67.5683 56.248 67.0163 57.004 67.0163 58.276V61H65.4323V54.976H67.0163V57.46H67.0403C67.0403 55.816 67.7243 54.856 68.8643 54.856ZM74.5246 54.976H76.2166L73.9126 63.76H72.2206L72.9526 61H71.6446L70.0726 54.976H71.7646L73.1326 60.892H73.1566L74.5246 54.976ZM34.9803 72.648L36.3123 75H34.4643L32.5323 71.4H30.8763V75H29.2203V66.12H32.6643C34.7523 66.12 36.0003 67.068 36.0003 68.652C36.0003 70.368 34.7763 71.376 32.7003 71.376V71.4C33.6723 71.4 34.5363 71.856 34.9803 72.648ZM30.8763 70.188H32.7483C33.7203 70.188 34.2843 69.66 34.2843 68.772C34.2843 67.92 33.7203 67.404 32.7483 67.404H30.8763V70.188ZM39.9691 75.12C38.0011 75.12 36.8251 73.956 36.8251 71.988C36.8251 70.02 38.0011 68.856 39.9691 68.856C41.9371 68.856 43.1011 70.02 43.1011 71.988C43.1011 73.956 41.9371 75.12 39.9691 75.12ZM39.9691 73.86C40.9291 73.86 41.4931 73.164 41.4931 71.988C41.4931 70.812 40.9291 70.104 39.9691 70.104C39.0091 70.104 38.4451 70.812 38.4451 71.988C38.4451 73.164 39.0091 73.86 39.9691 73.86ZM47.1527 75.12C45.1847 75.12 44.0087 73.956 44.0087 71.988C44.0087 70.02 45.1847 68.856 47.1527 68.856C49.1207 68.856 50.2847 70.02 50.2847 71.988C50.2847 73.956 49.1207 75.12 47.1527 75.12ZM47.1527 73.86C48.1127 73.86 48.6767 73.164 48.6767 71.988C48.6767 70.812 48.1127 70.104 47.1527 70.104C46.1927 70.104 45.6287 70.812 45.6287 71.988C45.6287 73.164 46.1927 73.86 47.1527 73.86ZM58.9803 68.856C60.2763 68.856 61.0443 69.744 61.0443 71.268V75H59.4603V71.34C59.4603 70.56 59.0403 70.104 58.3323 70.104C57.5403 70.104 57.0723 70.692 57.0723 71.676V75H55.4883V71.34C55.4883 70.56 55.0803 70.104 54.3723 70.104C53.5683 70.104 53.1003 70.692 53.1003 71.676V75H51.5163V68.976H53.1003V71.064H53.1243C53.1243 69.672 53.8563 68.856 55.0683 68.856C56.3283 68.856 57.0723 69.708 57.0723 71.064H57.0963C57.0963 69.672 57.7923 68.856 58.9803 68.856ZM22.4362 80.12H24.0082V89H21.2722L18.4402 80.264H18.4162L18.4762 89H16.8922V80.12H19.6522L22.4842 88.856H22.5082L22.4362 80.12ZM29.9954 82.976H31.5794V89H29.9954V86.924H29.9714C29.9714 88.304 29.1674 89.12 27.8234 89.12C26.3114 89.12 25.4234 87.956 25.4234 85.988C25.4234 84.02 26.3114 82.856 27.8234 82.856C29.1674 82.856 29.9714 83.672 29.9714 85.04H29.9954V82.976ZM28.5554 87.86C29.5154 87.86 30.0794 87.092 30.0794 85.988C30.0794 84.872 29.5154 84.104 28.5554 84.104C27.5954 84.104 27.0314 84.812 27.0314 85.988C27.0314 87.164 27.5954 87.86 28.5554 87.86ZM37.0653 82.976H38.7573L37.1853 89H34.1973L32.6133 82.976H34.3053L35.6853 88.892H35.7093L37.0653 82.976ZM39.7976 81.824V80.324H41.3816V81.824H39.7976ZM39.7976 89V82.976H41.3816V89H39.7976ZM47.2219 82.976H48.8059V89.072C48.8059 90.836 47.6779 91.88 45.7819 91.88C44.1499 91.88 43.0459 91.076 42.8299 89.72L44.3299 89.492C44.4259 90.2 44.9779 90.62 45.7819 90.62C46.6819 90.62 47.2219 90.08 47.2219 89.168V86.864H47.1979C47.1979 88.232 46.3939 89.048 45.0499 89.048C43.5379 89.048 42.6499 87.896 42.6499 85.952C42.6499 84.008 43.5379 82.856 45.0499 82.856C46.3939 82.856 47.1979 83.672 47.1979 85.04H47.2219V82.976ZM45.7819 87.788C46.7419 87.788 47.3059 87.044 47.3059 85.952C47.3059 84.86 46.7419 84.104 45.7819 84.104C44.8219 84.104 44.2579 84.8 44.2579 85.952C44.2579 87.104 44.8219 87.788 45.7819 87.788ZM54.6399 82.976H56.2239V89H54.6399V86.924H54.6159C54.6159 88.304 53.8119 89.12 52.4679 89.12C50.9559 89.12 50.0679 87.956 50.0679 85.988C50.0679 84.02 50.9559 82.856 52.4679 82.856C53.8119 82.856 54.6159 83.672 54.6159 85.04H54.6399V82.976ZM53.1999 87.86C54.1599 87.86 54.7239 87.092 54.7239 85.988C54.7239 84.872 54.1599 84.104 53.1999 84.104C52.2399 84.104 51.6759 84.812 51.6759 85.988C51.6759 87.164 52.2399 87.86 53.1999 87.86ZM61.5779 84.068H59.7059V86.972C59.7059 87.536 60.0659 87.86 60.6659 87.86C60.9539 87.86 61.2539 87.788 61.4699 87.668V88.844C61.1099 89.012 60.6179 89.12 60.1619 89.12C58.8779 89.12 58.1219 88.4 58.1219 87.176V84.068H57.2579V82.976H58.2179V80.96H59.8019V81.464C59.8019 82.232 59.2259 82.772 58.2659 82.952V82.976H61.5779V84.068ZM65.352 89.12C63.384 89.12 62.208 87.956 62.208 85.988C62.208 84.02 63.384 82.856 65.352 82.856C67.32 82.856 68.484 84.02 68.484 85.988C68.484 87.956 67.32 89.12 65.352 89.12ZM65.352 87.86C66.312 87.86 66.876 87.164 66.876 85.988C66.876 84.812 66.312 84.104 65.352 84.104C64.392 84.104 63.828 84.812 63.828 85.988C63.828 87.164 64.392 87.86 65.352 87.86ZM73.1475 82.856C73.4955 82.856 73.8315 82.928 74.0715 83.048L73.6155 84.464C73.3755 84.332 73.0755 84.248 72.7755 84.248C71.8515 84.248 71.2995 85.004 71.2995 86.276V89H69.7155V82.976H71.2995V85.46H71.3235C71.3235 83.816 72.0075 82.856 73.1475 82.856Z" fill="#001A64"/>
</svg>
