<svg width="90" height="90" viewBox="0 0 90 90" fill="none" xmlns="http://www.w3.org/2000/svg">
<rect x="0.5" y="0.5" width="89" height="89" rx="7.5" fill="#FFFFC8"/>
<rect x="0.5" y="0.5" width="89" height="89" rx="7.5" stroke="#F0F0F0"/>
<path d="M37.725 33C36.725 33 35.8708 32.6417 35.1625 31.925C34.4542 31.2083 34.0833 30.3417 34.05 29.325C34.05 29.175 34.0583 29.025 34.075 28.875C34.0917 28.725 34.1167 28.575 34.15 28.425L36.25 20.025C36.4833 19.125 36.9583 18.3958 37.675 17.8375C38.3917 17.2792 39.2083 17 40.125 17H49.875C50.7917 17 51.6083 17.2792 52.325 17.8375C53.0417 18.3958 53.5167 19.125 53.75 20.025L55.85 28.425C55.8833 28.575 55.9125 28.7292 55.9375 28.8875C55.9625 29.0458 55.975 29.2 55.975 29.35C55.975 30.3667 55.6125 31.2292 54.8875 31.9375C54.1625 32.6458 53.2917 33 52.275 33C51.575 33 50.925 32.8167 50.325 32.45C49.725 32.0833 49.275 31.5833 48.975 30.95L48.275 29.5C48.1917 29.3333 48.0667 29.2083 47.9 29.125C47.7333 29.0417 47.5583 29 47.375 29H42.625C42.4417 29 42.2667 29.0417 42.1 29.125C41.9333 29.2083 41.8083 29.3333 41.725 29.5L41.025 30.95C40.725 31.5833 40.275 32.0833 39.675 32.45C39.075 32.8167 38.425 33 37.725 33ZM37.8 31C38.1167 31 38.4042 30.9167 38.6625 30.75C38.9208 30.5833 39.1167 30.3583 39.25 30.075L39.95 28.65C40.2 28.1333 40.5667 27.7292 41.05 27.4375C41.5333 27.1458 42.0583 27 42.625 27H47.375C47.9417 27 48.4667 27.15 48.95 27.45C49.4333 27.75 49.8083 28.15 50.075 28.65L50.775 30.075C50.9083 30.3583 51.1042 30.5833 51.3625 30.75C51.6208 30.9167 51.9083 31 52.225 31C52.6917 31 53.0917 30.8458 53.425 30.5375C53.7583 30.2292 53.9333 29.8417 53.95 29.375C53.95 29.3917 53.9333 29.2333 53.9 28.9L51.8 20.525C51.6833 20.075 51.45 19.7083 51.1 19.425C50.75 19.1417 50.3417 19 49.875 19H40.125C39.6583 19 39.2458 19.1417 38.8875 19.425C38.5292 19.7083 38.3 20.075 38.2 20.525L36.1 28.9C36.0667 29 36.05 29.15 36.05 29.35C36.05 29.8167 36.2208 30.2083 36.5625 30.525C36.9042 30.8417 37.3167 31 37.8 31ZM46.5 24C46.7833 24 47.0208 23.9042 47.2125 23.7125C47.4042 23.5208 47.5 23.2833 47.5 23C47.5 22.7167 47.4042 22.4792 47.2125 22.2875C47.0208 22.0958 46.7833 22 46.5 22C46.2167 22 45.9792 22.0958 45.7875 22.2875C45.5958 22.4792 45.5 22.7167 45.5 23C45.5 23.2833 45.5958 23.5208 45.7875 23.7125C45.9792 23.9042 46.2167 24 46.5 24ZM48.5 22C48.7833 22 49.0208 21.9042 49.2125 21.7125C49.4042 21.5208 49.5 21.2833 49.5 21C49.5 20.7167 49.4042 20.4792 49.2125 20.2875C49.0208 20.0958 48.7833 20 48.5 20C48.2167 20 47.9792 20.0958 47.7875 20.2875C47.5958 20.4792 47.5 20.7167 47.5 21C47.5 21.2833 47.5958 21.5208 47.7875 21.7125C47.9792 21.9042 48.2167 22 48.5 22ZM48.5 26C48.7833 26 49.0208 25.9042 49.2125 25.7125C49.4042 25.5208 49.5 25.2833 49.5 25C49.5 24.7167 49.4042 24.4792 49.2125 24.2875C49.0208 24.0958 48.7833 24 48.5 24C48.2167 24 47.9792 24.0958 47.7875 24.2875C47.5958 24.4792 47.5 24.7167 47.5 25C47.5 25.2833 47.5958 25.5208 47.7875 25.7125C47.9792 25.9042 48.2167 26 48.5 26ZM50.5 24C50.7833 24 51.0208 23.9042 51.2125 23.7125C51.4042 23.5208 51.5 23.2833 51.5 23C51.5 22.7167 51.4042 22.4792 51.2125 22.2875C51.0208 22.0958 50.7833 22 50.5 22C50.2167 22 49.9792 22.0958 49.7875 22.2875C49.5958 22.4792 49.5 22.7167 49.5 23C49.5 23.2833 49.5958 23.5208 49.7875 23.7125C49.9792 23.9042 50.2167 24 50.5 24ZM41.5 25.5C41.7167 25.5 41.8958 25.4292 42.0375 25.2875C42.1792 25.1458 42.25 24.9667 42.25 24.75V23.75H43.25C43.4667 23.75 43.6458 23.6792 43.7875 23.5375C43.9292 23.3958 44 23.2167 44 23C44 22.7833 43.9292 22.6042 43.7875 22.4625C43.6458 22.3208 43.4667 22.25 43.25 22.25H42.25V21.25C42.25 21.0333 42.1792 20.8542 42.0375 20.7125C41.8958 20.5708 41.7167 20.5 41.5 20.5C41.2833 20.5 41.1042 20.5708 40.9625 20.7125C40.8208 20.8542 40.75 21.0333 40.75 21.25V22.25H39.75C39.5333 22.25 39.3542 22.3208 39.2125 22.4625C39.0708 22.6042 39 22.7833 39 23C39 23.2167 39.0708 23.3958 39.2125 23.5375C39.3542 23.6792 39.5333 23.75 39.75 23.75H40.75V24.75C40.75 24.9667 40.8208 25.1458 40.9625 25.2875C41.1042 25.4292 41.2833 25.5 41.5 25.5Z" fill="#3C57E1"/>
<path d="M21.8727 64V55.12H24.7527C27.5487 55.12 29.2047 56.776 29.2047 59.56C29.2047 62.344 27.5487 64 24.7527 64H21.8727ZM23.5287 62.716H24.8487C26.5047 62.716 27.4887 61.54 27.4887 59.56C27.4887 57.58 26.5047 56.404 24.8487 56.404H23.5287V62.716ZM36.0969 60.988V61.168H31.7049C31.7649 62.272 32.2929 62.92 33.1449 62.92C33.8889 62.92 34.4049 62.512 34.5609 61.852H36.0969C35.8809 63.28 34.7769 64.12 33.1449 64.12C31.2729 64.12 30.1689 62.956 30.1689 60.988C30.1689 59.008 31.2729 57.856 33.1449 57.856C34.9929 57.856 36.0969 59.008 36.0969 60.988ZM33.1449 59.044C32.3409 59.044 31.8249 59.62 31.7169 60.628H34.5489C34.4529 59.62 33.9369 59.044 33.1449 59.044ZM39.6769 64.12C37.9489 64.12 36.9409 63.352 36.9409 62.044H38.4169C38.4169 62.716 38.8849 63.112 39.6769 63.112C40.4449 63.112 40.8889 62.824 40.8889 62.32C40.8889 61.684 40.1809 61.564 39.3889 61.432C38.3449 61.264 37.0969 61.06 37.0969 59.68C37.0969 58.54 38.0569 57.856 39.6769 57.856C41.2849 57.856 42.2449 58.588 42.2449 59.836H40.7689C40.7689 59.2 40.3729 58.84 39.6769 58.84C39.0169 58.84 38.6209 59.104 38.6209 59.548C38.6209 60.088 39.2809 60.196 40.0489 60.328C41.1169 60.508 42.4129 60.724 42.4129 62.14C42.4129 63.376 41.3929 64.12 39.6769 64.12ZM46.9779 60.844L49.8099 64H47.8659L45.2259 60.916H45.2019V64H43.6179V54.76H45.2019V60.808H45.2259L47.6619 57.976H49.5339L46.9779 60.844ZM54.3357 59.068H52.4637V61.972C52.4637 62.536 52.8237 62.86 53.4237 62.86C53.7117 62.86 54.0117 62.788 54.2277 62.668V63.844C53.8677 64.012 53.3757 64.12 52.9197 64.12C51.6357 64.12 50.8797 63.4 50.8797 62.176V59.068H50.0157V57.976H50.9757V55.96H52.5597V56.464C52.5597 57.232 51.9837 57.772 51.0237 57.952V57.976H54.3357V59.068ZM58.1098 64.12C56.1418 64.12 54.9658 62.956 54.9658 60.988C54.9658 59.02 56.1418 57.856 58.1098 57.856C60.0778 57.856 61.2418 59.02 61.2418 60.988C61.2418 62.956 60.0778 64.12 58.1098 64.12ZM58.1098 62.86C59.0698 62.86 59.6338 62.164 59.6338 60.988C59.6338 59.812 59.0698 59.104 58.1098 59.104C57.1498 59.104 56.5858 59.812 56.5858 60.988C56.5858 62.164 57.1498 62.86 58.1098 62.86ZM66.2294 57.856C67.7414 57.856 68.6414 59.02 68.6414 60.988C68.6414 62.956 67.7414 64.12 66.2294 64.12C64.8854 64.12 64.0814 63.304 64.0814 61.924H64.0574V66.76H62.4734V57.976H64.0574V60.04H64.0814C64.0814 58.672 64.8854 57.856 66.2294 57.856ZM65.4974 62.86C66.4574 62.86 67.0214 62.164 67.0214 60.988C67.0214 59.812 66.4574 59.116 65.4974 59.116C64.5374 59.116 63.9734 59.872 63.9734 60.988C63.9734 62.092 64.5374 62.86 65.4974 62.86Z" fill="#001A64"/>
</svg>
