<svg width="90" height="90" viewBox="0 0 90 90" fill="none" xmlns="http://www.w3.org/2000/svg">
<rect x="0.5" y="0.5" width="89" height="89" rx="7.5" fill="#FBFCFF"/>
<rect x="0.5" y="0.5" width="89" height="89" rx="7.5" stroke="#F0F0F0"/>
<path d="M38 34C37.45 34 36.9792 33.8042 36.5875 33.4125C36.1958 33.0208 36 32.55 36 32V26H38V32H44V34H38ZM46 34V32H52V26H54V32C54 32.55 53.8042 33.0208 53.4125 33.4125C53.0208 33.8042 52.55 34 52 34H46ZM39 30L42 26L44.25 29L47.25 25L51 30H39ZM36 24V18C36 17.45 36.1958 16.9792 36.5875 16.5875C36.9792 16.1958 37.45 16 38 16H44V18H38V24H36ZM52 24V18H46V16H52C52.55 16 53.0208 16.1958 53.4125 16.5875C53.8042 16.9792 54 17.45 54 18V24H52ZM48.5 23C48.0667 23 47.7083 22.8583 47.425 22.575C47.1417 22.2917 47 21.9333 47 21.5C47 21.0667 47.1417 20.7083 47.425 20.425C47.7083 20.1417 48.0667 20 48.5 20C48.9333 20 49.2917 20.1417 49.575 20.425C49.8583 20.7083 50 21.0667 50 21.5C50 21.9333 49.8583 22.2917 49.575 22.575C49.2917 22.8583 48.9333 23 48.5 23Z" fill="#3C57E1"/>
<path d="M10.9783 58.9C12.9103 58.9 14.0503 59.812 14.0503 61.372C14.0503 63.028 12.8503 64 10.8103 64H7.05431V55.12H10.9063C12.4783 55.12 13.4023 55.84 13.4023 57.064C13.4023 58.192 12.4303 58.876 10.7983 58.876V58.9H10.9783ZM11.6863 57.64C11.6863 56.872 11.1943 56.404 10.3663 56.404H8.71031V58.876H10.3663C11.1943 58.876 11.6863 58.408 11.6863 57.64ZM10.8943 62.716C11.7943 62.716 12.3343 62.212 12.3343 61.372C12.3343 60.532 11.7943 60.028 10.8943 60.028H8.71031V62.716H10.8943ZM19.5364 57.976H21.1204V64H19.5364V61.924H19.5124C19.5124 63.304 18.7084 64.12 17.3644 64.12C15.8524 64.12 14.9644 62.956 14.9644 60.988C14.9644 59.02 15.8524 57.856 17.3644 57.856C18.7084 57.856 19.5124 58.672 19.5124 60.04H19.5364V57.976ZM18.0964 62.86C19.0564 62.86 19.6204 62.092 19.6204 60.988C19.6204 59.872 19.0564 59.104 18.0964 59.104C17.1364 59.104 16.5724 59.812 16.5724 60.988C16.5724 62.164 17.1364 62.86 18.0964 62.86ZM22.6823 64V54.76H24.2663V64H22.6823ZM28.6187 64.12C26.6747 64.12 25.5107 62.956 25.5107 60.988C25.5107 59.02 26.6747 57.856 28.6187 57.856C30.2627 57.856 31.3307 58.72 31.5707 60.208H30.0107C29.8067 59.512 29.3267 59.104 28.6187 59.104C27.6827 59.104 27.1307 59.812 27.1307 60.988C27.1307 62.164 27.6827 62.86 28.6187 62.86C29.3627 62.86 29.8547 62.428 30.0347 61.684H31.5947C31.3667 63.232 30.2987 64.12 28.6187 64.12ZM35.557 64.12C33.589 64.12 32.413 62.956 32.413 60.988C32.413 59.02 33.589 57.856 35.557 57.856C37.525 57.856 38.689 59.02 38.689 60.988C38.689 62.956 37.525 64.12 35.557 64.12ZM35.557 62.86C36.517 62.86 37.081 62.164 37.081 60.988C37.081 59.812 36.517 59.104 35.557 59.104C34.597 59.104 34.033 59.812 34.033 60.988C34.033 62.164 34.597 62.86 35.557 62.86ZM43.4846 57.856C44.8166 57.856 45.5966 58.768 45.5966 60.328V64H44.0126V60.4C44.0126 59.584 43.5806 59.104 42.8366 59.104C41.9966 59.104 41.5046 59.716 41.5046 60.736V64H39.9206V57.976H41.5046V60.088H41.5286C41.5286 58.684 42.2606 57.856 43.4846 57.856ZM50.9348 57.976H52.6268L50.3228 66.76H48.6308L49.3628 64H48.0548L46.4828 57.976H48.1748L49.5428 63.892H49.5668L50.9348 57.976ZM61.663 55.12H63.331L60.823 64H57.859L55.375 55.12H57.139L59.383 63.856H59.407L61.663 55.12ZM64.2722 56.824V55.324H65.8562V56.824H64.2722ZM64.2722 64V57.976H65.8562V64H64.2722ZM73.0285 60.988V61.168H68.6365C68.6965 62.272 69.2245 62.92 70.0765 62.92C70.8205 62.92 71.3365 62.512 71.4925 61.852H73.0285C72.8125 63.28 71.7085 64.12 70.0765 64.12C68.2045 64.12 67.1005 62.956 67.1005 60.988C67.1005 59.008 68.2045 57.856 70.0765 57.856C71.9245 57.856 73.0285 59.008 73.0285 60.988ZM70.0765 59.044C69.2725 59.044 68.7565 59.62 68.6485 60.628H71.4805C71.3845 59.62 70.8685 59.044 70.0765 59.044ZM81.9863 57.976H83.6303L82.3703 64H79.6103L78.6743 58.084H78.6503L77.7263 64H74.9663L73.7063 57.976H75.3983L76.4423 63.892H76.4663L77.3903 57.976H79.9943L80.9062 63.892H80.9303L81.9863 57.976ZM28.5067 69.12C30.5587 69.12 31.7707 70.152 31.7707 71.904C31.7707 73.656 30.5587 74.688 28.4947 74.688H26.8627V78H25.2067V69.12H28.5067ZM28.5787 73.404C29.5027 73.404 30.0547 72.84 30.0547 71.904C30.0547 70.968 29.5147 70.404 28.5787 70.404H26.8627V73.404H28.5787ZM32.8777 70.824V69.324H34.4617V70.824H32.8777ZM32.8777 78V71.976H34.4617V78H32.8777ZM38.814 78.12C36.87 78.12 35.706 76.956 35.706 74.988C35.706 73.02 36.87 71.856 38.814 71.856C40.458 71.856 41.526 72.72 41.766 74.208H40.206C40.002 73.512 39.522 73.104 38.814 73.104C37.878 73.104 37.326 73.812 37.326 74.988C37.326 76.164 37.878 76.86 38.814 76.86C39.558 76.86 40.05 76.428 40.23 75.684H41.79C41.562 77.232 40.494 78.12 38.814 78.12ZM46.6892 73.068H44.8172V75.972C44.8172 76.536 45.1772 76.86 45.7772 76.86C46.0652 76.86 46.3652 76.788 46.5812 76.668V77.844C46.2212 78.012 45.7292 78.12 45.2732 78.12C43.9892 78.12 43.2332 77.4 43.2332 76.176V73.068H42.3692V71.976H43.3292V69.96H44.9132V70.464C44.9132 71.232 44.3372 71.772 43.3772 71.952V71.976H46.6892V73.068ZM51.6256 71.976H53.2096V78H51.6256V75.876H51.6016C51.6016 77.28 50.9056 78.12 49.7176 78.12C48.4216 78.12 47.6536 77.196 47.6536 75.648V71.976H49.2376V75.576C49.2376 76.392 49.6576 76.86 50.3656 76.86C51.1576 76.86 51.6256 76.26 51.6256 75.228V71.976ZM58.2003 71.856C58.5483 71.856 58.8843 71.928 59.1243 72.048L58.6683 73.464C58.4283 73.332 58.1283 73.248 57.8283 73.248C56.9043 73.248 56.3523 74.004 56.3523 75.276V78H54.7683V71.976H56.3523V74.46H56.3763C56.3763 72.816 57.0603 71.856 58.2003 71.856ZM65.3293 74.988V75.168H60.9373C60.9973 76.272 61.5253 76.92 62.3773 76.92C63.1213 76.92 63.6373 76.512 63.7933 75.852H65.3293C65.1133 77.28 64.0093 78.12 62.3773 78.12C60.5053 78.12 59.4013 76.956 59.4013 74.988C59.4013 73.008 60.5053 71.856 62.3773 71.856C64.2253 71.856 65.3293 73.008 65.3293 74.988ZM62.3773 73.044C61.5733 73.044 61.0573 73.62 60.9493 74.628H63.7813C63.6853 73.62 63.1693 73.044 62.3773 73.044Z" fill="#001A64"/>
</svg>
