<svg width="90" height="90" viewBox="0 0 90 90" fill="none" xmlns="http://www.w3.org/2000/svg">
<rect x="0.5" y="0.5" width="89" height="89" rx="7.5" fill="#FBFCFF"/>
<rect x="0.5" y="0.5" width="89" height="89" rx="7.5" stroke="#F0F0F0"/>
<path d="M53 33H48C48 32.6667 47.9875 32.3333 47.9625 32C47.9375 31.6667 47.9 31.3333 47.85 31H53V19H37V20.15C36.6667 20.1 36.3333 20.0625 36 20.0375C35.6667 20.0125 35.3333 20 35 20V19C35 18.45 35.1958 17.9792 35.5875 17.5875C35.9792 17.1958 36.45 17 37 17H53C53.55 17 54.0208 17.1958 54.4125 17.5875C54.8042 17.9792 55 18.45 55 19V31C55 31.55 54.8042 32.0208 54.4125 32.4125C54.0208 32.8042 53.55 33 53 33ZM35 33V30C35.8333 30 36.5417 30.2917 37.125 30.875C37.7083 31.4583 38 32.1667 38 33H35ZM40 33C40 31.6167 39.5125 30.4375 38.5375 29.4625C37.5625 28.4875 36.3833 28 35 28V26C36.95 26 38.6042 26.6792 39.9625 28.0375C41.3208 29.3958 42 31.05 42 33H40ZM44 33C44 31.75 43.7625 30.5792 43.2875 29.4875C42.8125 28.3958 42.1708 27.4458 41.3625 26.6375C40.5542 25.8292 39.6042 25.1875 38.5125 24.7125C37.4208 24.2375 36.25 24 35 24V22C36.5167 22 37.9417 22.2875 39.275 22.8625C40.6083 23.4375 41.775 24.225 42.775 25.225C43.775 26.225 44.5625 27.3917 45.1375 28.725C45.7125 30.0583 46 31.4833 46 33H44Z" fill="#3C57E1"/>
<path d="M13.8524 55.12C15.9044 55.12 17.1164 56.152 17.1164 57.904C17.1164 59.656 15.9044 60.688 13.8404 60.688H12.2084V64H10.5524V55.12H13.8524ZM13.9244 59.404C14.8484 59.404 15.4004 58.84 15.4004 57.904C15.4004 56.968 14.8604 56.404 13.9244 56.404H12.2084V59.404H13.9244ZM18.2234 56.824V55.324H19.8074V56.824H18.2234ZM18.2234 64V57.976H19.8074V64H18.2234ZM25.6477 60.844L27.2797 64H25.4677L24.0397 60.916H24.0157L22.5757 64H20.7757L22.4077 60.844L20.9797 57.976H22.7197L24.0157 60.808H24.0397L25.3357 57.976H27.0757L25.6477 60.844ZM33.636 60.988V61.168H29.244C29.304 62.272 29.832 62.92 30.684 62.92C31.428 62.92 31.944 62.512 32.1 61.852H33.636C33.42 63.28 32.316 64.12 30.684 64.12C28.812 64.12 27.708 62.956 27.708 60.988C27.708 59.008 28.812 57.856 30.684 57.856C32.532 57.856 33.636 59.008 33.636 60.988ZM30.684 59.044C29.88 59.044 29.364 59.62 29.256 60.628H32.088C31.992 59.62 31.476 59.044 30.684 59.044ZM34.864 64V54.76H36.448V64H34.864ZM41.3163 64.12C39.1803 64.12 37.8243 62.932 37.6563 60.892H39.2883C39.3963 62.092 40.1523 62.8 41.3523 62.8C42.5643 62.8 43.2723 62.296 43.2723 61.456C43.2723 60.424 42.2163 60.268 41.0523 60.088C39.5883 59.884 37.8963 59.632 37.8963 57.664C37.8963 55.936 39.1683 55 41.3163 55C43.2723 55 44.5443 56.152 44.7123 58.096H43.0683C42.9963 56.98 42.3123 56.32 41.2323 56.32C40.1883 56.32 39.5763 56.776 39.5763 57.544C39.5763 58.42 40.5603 58.576 41.6643 58.744C43.1643 58.96 44.9523 59.236 44.9523 61.288C44.9523 63.064 43.6083 64.12 41.3163 64.12ZM49.9529 59.068H48.0809V61.972C48.0809 62.536 48.4409 62.86 49.0409 62.86C49.3289 62.86 49.6289 62.788 49.8449 62.668V63.844C49.4849 64.012 48.9929 64.12 48.5369 64.12C47.2529 64.12 46.4969 63.4 46.4969 62.176V59.068H45.6329V57.976H46.5929V55.96H48.1769V56.464C48.1769 57.232 47.6009 57.772 46.6409 57.952V57.976H49.9529V59.068ZM54.4093 57.856C54.7573 57.856 55.0933 57.928 55.3333 58.048L54.8773 59.464C54.6373 59.332 54.3373 59.248 54.0373 59.248C53.1133 59.248 52.5613 60.004 52.5613 61.276V64H50.9773V57.976H52.5613V60.46H52.5853C52.5853 58.816 53.2693 57.856 54.4093 57.856ZM61.5383 60.988V61.168H57.1463C57.2063 62.272 57.7343 62.92 58.5863 62.92C59.3303 62.92 59.8463 62.512 60.0023 61.852H61.5383C61.3223 63.28 60.2183 64.12 58.5863 64.12C56.7143 64.12 55.6103 62.956 55.6103 60.988C55.6103 59.008 56.7143 57.856 58.5863 57.856C60.4343 57.856 61.5383 59.008 61.5383 60.988ZM58.5863 59.044C57.7823 59.044 57.2663 59.62 57.1583 60.628H59.9903C59.8943 59.62 59.3783 59.044 58.5863 59.044ZM67.0383 57.976H68.6223V64H67.0383V61.924H67.0143C67.0143 63.304 66.2103 64.12 64.8663 64.12C63.3543 64.12 62.4663 62.956 62.4663 60.988C62.4663 59.02 63.3543 57.856 64.8663 57.856C66.2103 57.856 67.0143 58.672 67.0143 60.04H67.0383V57.976ZM65.5983 62.86C66.5583 62.86 67.1223 62.092 67.1223 60.988C67.1223 59.872 66.5583 59.104 65.5983 59.104C64.6383 59.104 64.0743 59.812 64.0743 60.988C64.0743 62.164 64.6383 62.86 65.5983 62.86ZM77.6483 57.856C78.9443 57.856 79.7123 58.744 79.7123 60.268V64H78.1283V60.34C78.1283 59.56 77.7083 59.104 77.0003 59.104C76.2083 59.104 75.7403 59.692 75.7403 60.676V64H74.1563V60.34C74.1563 59.56 73.7483 59.104 73.0403 59.104C72.2363 59.104 71.7683 59.692 71.7683 60.676V64H70.1843V57.976H71.7683V60.064H71.7923C71.7923 58.672 72.5243 57.856 73.7363 57.856C74.9963 57.856 75.7403 58.708 75.7403 60.064H75.7643C75.7643 58.672 76.4603 57.856 77.6483 57.856ZM36.9089 70.824V69.324H38.4929V70.824H36.9089ZM36.9089 78V71.976H38.4929V78H36.9089ZM43.6253 71.856C44.9573 71.856 45.7373 72.768 45.7373 74.328V78H44.1533V74.4C44.1533 73.584 43.7213 73.104 42.9773 73.104C42.1373 73.104 41.6453 73.716 41.6453 74.736V78H40.0613V71.976H41.6453V74.088H41.6693C41.6693 72.684 42.4013 71.856 43.6253 71.856ZM51.5051 71.976H53.0891V78.072C53.0891 79.836 51.9611 80.88 50.0651 80.88C48.4331 80.88 47.3291 80.076 47.1131 78.72L48.6131 78.492C48.7091 79.2 49.2611 79.62 50.0651 79.62C50.9651 79.62 51.5051 79.08 51.5051 78.168V75.864H51.4811C51.4811 77.232 50.6771 78.048 49.3331 78.048C47.8211 78.048 46.9331 76.896 46.9331 74.952C46.9331 73.008 47.8211 71.856 49.3331 71.856C50.6771 71.856 51.4811 72.672 51.4811 74.04H51.5051V71.976ZM50.0651 76.788C51.0251 76.788 51.5891 76.044 51.5891 74.952C51.5891 73.86 51.0251 73.104 50.0651 73.104C49.1051 73.104 48.5411 73.8 48.5411 74.952C48.5411 76.104 49.1051 76.788 50.0651 76.788Z" fill="#AAAAAA"/>
</svg>
