<svg width="90" height="90" viewBox="0 0 90 90" fill="none" xmlns="http://www.w3.org/2000/svg">
<rect x="0.5" y="0.5" width="89" height="89" rx="7.5" fill="#FFFFC8"/>
<rect x="0.5" y="0.5" width="89" height="89" rx="7.5" stroke="#F0F0F0"/>
<path d="M51 25.5C51.5523 25.5 52 25.0523 52 24.5C52 23.9477 51.5523 23.5 51 23.5C50.4477 23.5 50 23.9477 50 24.5C50 25.0523 50.4477 25.5 51 25.5Z" fill="#777777"/>
<path d="M52 21H51V16H39V21H38C36.34 21 35 22.34 35 24V30H39V34H51V30H55V24C55 22.34 53.66 21 52 21ZM41 18H49V21H41V18ZM49 32H41V28H49V32ZM53 28H51V26H39V28H37V24C37 23.45 37.45 23 38 23H52C52.55 23 53 23.45 53 24V28Z" fill="#3C57E1"/>
<path d="M35.2508 55.12C37.3028 55.12 38.5148 56.152 38.5148 57.904C38.5148 59.656 37.3028 60.688 35.2388 60.688H33.6068V64H31.9508V55.12H35.2508ZM35.3228 59.404C36.2468 59.404 36.7988 58.84 36.7988 57.904C36.7988 56.968 36.2588 56.404 35.3228 56.404H33.6068V59.404H35.3228ZM43.0186 57.856C43.3666 57.856 43.7026 57.928 43.9426 58.048L43.4866 59.464C43.2466 59.332 42.9466 59.248 42.6466 59.248C41.7226 59.248 41.1706 60.004 41.1706 61.276V64H39.5866V57.976H41.1706V60.46H41.1946C41.1946 58.816 41.8786 57.856 43.0186 57.856ZM44.7429 56.824V55.324H46.3269V56.824H44.7429ZM44.7429 64V57.976H46.3269V64H44.7429ZM51.4592 57.856C52.7912 57.856 53.5712 58.768 53.5712 60.328V64H51.9872V60.4C51.9872 59.584 51.5552 59.104 50.8112 59.104C49.9712 59.104 49.4792 59.716 49.4792 60.736V64H47.8952V57.976H49.4792V60.088H49.5032C49.5032 58.684 50.2352 57.856 51.4592 57.856ZM58.7888 59.068H56.9168V61.972C56.9168 62.536 57.2768 62.86 57.8768 62.86C58.1648 62.86 58.4648 62.788 58.6808 62.668V63.844C58.3208 64.012 57.8288 64.12 57.3728 64.12C56.0888 64.12 55.3328 63.4 55.3328 62.176V59.068H54.4688V57.976H55.4288V55.96H57.0128V56.464C57.0128 57.232 56.4368 57.772 55.4768 57.952V57.976H58.7888V59.068Z" fill="#001A64"/>
</svg>
