<svg width="90" height="90" viewBox="0 0 90 90" fill="none" xmlns="http://www.w3.org/2000/svg">
<rect x="0.5" y="0.5" width="89" height="89" rx="7.5" fill="#FCFCFC"/>
<rect x="0.5" y="0.5" width="89" height="89" rx="7.5" stroke="#F0F0F0"/>
<path d="M40.5 18.5C40.0833 18.5 39.7292 18.6458 39.4375 18.9375C39.1458 19.2292 39 19.5833 39 20C39 20.4167 39.1458 20.7708 39.4375 21.0625C39.7292 21.3542 40.0833 21.5 40.5 21.5C40.9167 21.5 41.2708 21.3542 41.5625 21.0625C41.8542 20.7708 42 20.4167 42 20C42 19.5833 41.8542 19.2292 41.5625 18.9375C41.2708 18.6458 40.9167 18.5 40.5 18.5ZM40.5 28.5C40.0833 28.5 39.7292 28.6458 39.4375 28.9375C39.1458 29.2292 39 29.5833 39 30C39 30.4167 39.1458 30.7708 39.4375 31.0625C39.7292 31.3542 40.0833 31.5 40.5 31.5C40.9167 31.5 41.2708 31.3542 41.5625 31.0625C41.8542 30.7708 42 30.4167 42 30C42 29.5833 41.8542 29.2292 41.5625 28.9375C41.2708 28.6458 40.9167 28.5 40.5 28.5ZM37 15.5H53C53.2833 15.5 53.5208 15.5958 53.7125 15.7875C53.9042 15.9792 54 16.2167 54 16.5V23.5C54 23.7833 53.9042 24.0208 53.7125 24.2125C53.5208 24.4042 53.2833 24.5 53 24.5H37C36.7167 24.5 36.4792 24.4042 36.2875 24.2125C36.0958 24.0208 36 23.7833 36 23.5V16.5C36 16.2167 36.0958 15.9792 36.2875 15.7875C36.4792 15.5958 36.7167 15.5 37 15.5ZM38 17.5V22.5H52V17.5H38ZM37 25.5H53C53.2833 25.5 53.5208 25.5958 53.7125 25.7875C53.9042 25.9792 54 26.2167 54 26.5V33.5C54 33.7833 53.9042 34.0208 53.7125 34.2125C53.5208 34.4042 53.2833 34.5 53 34.5H37C36.7167 34.5 36.4792 34.4042 36.2875 34.2125C36.0958 34.0208 36 33.7833 36 33.5V26.5C36 26.2167 36.0958 25.9792 36.2875 25.7875C36.4792 25.5958 36.7167 25.5 37 25.5ZM38 27.5V32.5H52V27.5H38Z" fill="#3C57E1"/>
<path d="M20.0905 55.12L20.3905 64H18.7345L18.4585 55.264H18.4345L16.5265 64H13.6345L11.8585 55.264H11.8345L11.5585 64H9.98648L10.2985 55.12H13.4905L15.1225 63.856H15.1465L16.8985 55.12H20.0905ZM26.2454 57.976H27.8294V64H26.2454V61.924H26.2214C26.2214 63.304 25.4174 64.12 24.0734 64.12C22.5614 64.12 21.6734 62.956 21.6734 60.988C21.6734 59.02 22.5614 57.856 24.0734 57.856C25.4174 57.856 26.2214 58.672 26.2214 60.04H26.2454V57.976ZM24.8054 62.86C25.7654 62.86 26.3294 62.092 26.3294 60.988C26.3294 59.872 25.7654 59.104 24.8054 59.104C23.8454 59.104 23.2814 59.812 23.2814 60.988C23.2814 62.164 23.8454 62.86 24.8054 62.86ZM33.1833 59.068H31.3113V61.972C31.3113 62.536 31.6713 62.86 32.2713 62.86C32.5593 62.86 32.8593 62.788 33.0753 62.668V63.844C32.7153 64.012 32.2233 64.12 31.7673 64.12C30.4833 64.12 29.7273 63.4 29.7273 62.176V59.068H28.8633V57.976H29.8233V55.96H31.4073V56.464C31.4073 57.232 30.8313 57.772 29.8713 57.952V57.976H33.1833V59.068ZM39.7414 60.988V61.168H35.3494C35.4094 62.272 35.9374 62.92 36.7894 62.92C37.5334 62.92 38.0494 62.512 38.2054 61.852H39.7414C39.5254 63.28 38.4214 64.12 36.7894 64.12C34.9174 64.12 33.8134 62.956 33.8134 60.988C33.8134 59.008 34.9174 57.856 36.7894 57.856C38.6374 57.856 39.7414 59.008 39.7414 60.988ZM36.7894 59.044C35.9854 59.044 35.4694 59.62 35.3614 60.628H38.1934C38.0974 59.62 37.5814 59.044 36.7894 59.044ZM44.4015 57.856C44.7495 57.856 45.0855 57.928 45.3255 58.048L44.8695 59.464C44.6295 59.332 44.3295 59.248 44.0295 59.248C43.1055 59.248 42.5535 60.004 42.5535 61.276V64H40.9695V57.976H42.5535V60.46H42.5775C42.5775 58.816 43.2615 57.856 44.4015 57.856ZM46.1257 56.824V55.324H47.7097V56.824H46.1257ZM46.1257 64V57.976H47.7097V64H46.1257ZM53.55 57.976H55.134V64H53.55V61.924H53.526C53.526 63.304 52.722 64.12 51.378 64.12C49.866 64.12 48.978 62.956 48.978 60.988C48.978 59.02 49.866 57.856 51.378 57.856C52.722 57.856 53.526 58.672 53.526 60.04H53.55V57.976ZM52.11 62.86C53.07 62.86 53.634 62.092 53.634 60.988C53.634 59.872 53.07 59.104 52.11 59.104C51.15 59.104 50.586 59.812 50.586 60.988C50.586 62.164 51.15 62.86 52.11 62.86ZM56.696 64V54.76H58.28V64H56.696ZM59.8484 56.824V55.324H61.4324V56.824H59.8484ZM59.8484 64V57.976H61.4324V64H59.8484ZM62.8807 62.896H68.2567V64H62.7247V61.444L67.8727 59.092V59.068H62.7967V57.976H68.0287V60.532L62.8807 62.872V62.896ZM73.6711 57.976H75.2551V64H73.6711V61.924H73.6471C73.6471 63.304 72.8431 64.12 71.4991 64.12C69.9871 64.12 69.0991 62.956 69.0991 60.988C69.0991 59.02 69.9871 57.856 71.4991 57.856C72.8431 57.856 73.6471 58.672 73.6471 60.04H73.6711V57.976ZM72.2311 62.86C73.1911 62.86 73.7551 62.092 73.7551 60.988C73.7551 59.872 73.1911 59.104 72.2311 59.104C71.2711 59.104 70.7071 59.812 70.7071 60.988C70.7071 62.164 71.2711 62.86 72.2311 62.86ZM80.6091 59.068H78.7371V61.972C78.7371 62.536 79.0971 62.86 79.6971 62.86C79.9851 62.86 80.2851 62.788 80.5011 62.668V63.844C80.1411 64.012 79.6491 64.12 79.1931 64.12C77.9091 64.12 77.1531 63.4 77.1531 62.176V59.068H76.2891V57.976H77.2491V55.96H78.8331V56.464C78.8331 57.232 78.2571 57.772 77.2971 57.952V57.976H80.6091V59.068ZM7.42453 70.824V69.324H9.00853V70.824H7.42453ZM7.42453 78V71.976H9.00853V78H7.42453ZM13.3969 78.12C11.4289 78.12 10.2529 76.956 10.2529 74.988C10.2529 73.02 11.4289 71.856 13.3969 71.856C15.3649 71.856 16.5289 73.02 16.5289 74.988C16.5289 76.956 15.3649 78.12 13.3969 78.12ZM13.3969 76.86C14.3569 76.86 14.9209 76.164 14.9209 74.988C14.9209 73.812 14.3569 73.104 13.3969 73.104C12.4369 73.104 11.8729 73.812 11.8729 74.988C11.8729 76.164 12.4369 76.86 13.3969 76.86ZM21.3245 71.856C22.6565 71.856 23.4365 72.768 23.4365 74.328V78H21.8525V74.4C21.8525 73.584 21.4205 73.104 20.6765 73.104C19.8365 73.104 19.3445 73.716 19.3445 74.736V78H17.7605V71.976H19.3445V74.088H19.3685C19.3685 72.684 20.1005 71.856 21.3245 71.856ZM31.0379 69.12C33.0899 69.12 34.3019 70.152 34.3019 71.904C34.3019 73.656 33.0899 74.688 31.0259 74.688H29.3939V78H27.7379V69.12H31.0379ZM31.1099 73.404C32.0339 73.404 32.5859 72.84 32.5859 71.904C32.5859 70.968 32.0459 70.404 31.1099 70.404H29.3939V73.404H31.1099ZM39.4934 71.976H41.0774V78H39.4934V75.924H39.4694C39.4694 77.304 38.6654 78.12 37.3214 78.12C35.8094 78.12 34.9214 76.956 34.9214 74.988C34.9214 73.02 35.8094 71.856 37.3214 71.856C38.6654 71.856 39.4694 72.672 39.4694 74.04H39.4934V71.976ZM38.0534 76.86C39.0134 76.86 39.5774 76.092 39.5774 74.988C39.5774 73.872 39.0134 73.104 38.0534 73.104C37.0934 73.104 36.5294 73.812 36.5294 74.988C36.5294 76.164 37.0934 76.86 38.0534 76.86ZM45.4234 78.12C43.4794 78.12 42.3154 76.956 42.3154 74.988C42.3154 73.02 43.4794 71.856 45.4234 71.856C47.0674 71.856 48.1354 72.72 48.3754 74.208H46.8154C46.6114 73.512 46.1314 73.104 45.4234 73.104C44.4874 73.104 43.9354 73.812 43.9354 74.988C43.9354 76.164 44.4874 76.86 45.4234 76.86C46.1674 76.86 46.6594 76.428 46.8394 75.684H48.3994C48.1714 77.232 47.1034 78.12 45.4234 78.12ZM52.9017 74.844L55.7337 78H53.7897L51.1497 74.916H51.1257V78H49.5417V68.76H51.1257V74.808H51.1497L53.5857 71.976H55.4577L52.9017 74.844ZM60.4465 71.976H62.0305V78H60.4465V75.924H60.4225C60.4225 77.304 59.6185 78.12 58.2745 78.12C56.7625 78.12 55.8745 76.956 55.8745 74.988C55.8745 73.02 56.7625 71.856 58.2745 71.856C59.6185 71.856 60.4225 72.672 60.4225 74.04H60.4465V71.976ZM59.0065 76.86C59.9665 76.86 60.5305 76.092 60.5305 74.988C60.5305 73.872 59.9665 73.104 59.0065 73.104C58.0465 73.104 57.4825 73.812 57.4825 74.988C57.4825 76.164 58.0465 76.86 59.0065 76.86ZM67.8645 71.976H69.4485V78.072C69.4485 79.836 68.3205 80.88 66.4245 80.88C64.7925 80.88 63.6885 80.076 63.4725 78.72L64.9725 78.492C65.0685 79.2 65.6205 79.62 66.4245 79.62C67.3245 79.62 67.8645 79.08 67.8645 78.168V75.864H67.8405C67.8405 77.232 67.0365 78.048 65.6925 78.048C64.1805 78.048 63.2925 76.896 63.2925 74.952C63.2925 73.008 64.1805 71.856 65.6925 71.856C67.0365 71.856 67.8405 72.672 67.8405 74.04H67.8645V71.976ZM66.4245 76.788C67.3845 76.788 67.9485 76.044 67.9485 74.952C67.9485 73.86 67.3845 73.104 66.4245 73.104C65.4645 73.104 64.9005 73.8 64.9005 74.952C64.9005 76.104 65.4645 76.788 66.4245 76.788ZM76.6145 74.988V75.168H72.2225C72.2825 76.272 72.8105 76.92 73.6625 76.92C74.4065 76.92 74.9225 76.512 75.0785 75.852H76.6145C76.3985 77.28 75.2945 78.12 73.6625 78.12C71.7905 78.12 70.6865 76.956 70.6865 74.988C70.6865 73.008 71.7905 71.856 73.6625 71.856C75.5105 71.856 76.6145 73.008 76.6145 74.988ZM73.6625 73.044C72.8585 73.044 72.3425 73.62 72.2345 74.628H75.0665C74.9705 73.62 74.4545 73.044 73.6625 73.044ZM80.1945 78.12C78.4665 78.12 77.4585 77.352 77.4585 76.044H78.9345C78.9345 76.716 79.4025 77.112 80.1945 77.112C80.9625 77.112 81.4065 76.824 81.4065 76.32C81.4065 75.684 80.6985 75.564 79.9065 75.432C78.8625 75.264 77.6145 75.06 77.6145 73.68C77.6145 72.54 78.5745 71.856 80.1945 71.856C81.8025 71.856 82.7625 72.588 82.7625 73.836H81.2865C81.2865 73.2 80.8905 72.84 80.1945 72.84C79.5345 72.84 79.1385 73.104 79.1385 73.548C79.1385 74.088 79.7985 74.196 80.5665 74.328C81.6345 74.508 82.9305 74.724 82.9305 76.14C82.9305 77.376 81.9105 78.12 80.1945 78.12Z" fill="#001A64"/>
</svg>
