<svg width="90" height="90" viewBox="0 0 90 90" fill="none" xmlns="http://www.w3.org/2000/svg">
<rect x="0.5" y="0.5" width="89" height="89" rx="7.5" fill="#FBFCFF"/>
<rect x="0.5" y="0.5" width="89" height="89" rx="7.5" stroke="#F0F0F0"/>
<path d="M39 27V25H41V27H39ZM44 21V19H46V21H44ZM39 31V29H41V31H39ZM39 35V33H41V35H39ZM35 35V21H40V15H50V22H48V17H42V23H37V35H35Z" fill="#3C57E1"/>
<path d="M53.1143 35L49.8997 31.7854C49.5657 32.022 49.2004 32.1994 48.8038 32.3177C48.4072 32.436 48.0071 32.4951 47.6035 32.4951C46.4485 32.4951 45.464 32.0881 44.6499 31.274C43.8358 30.4599 43.4287 29.4753 43.4287 28.3203C43.4287 27.1653 43.8358 26.1807 44.6499 25.3666C45.464 24.5526 46.4485 24.1455 47.6035 24.1455C48.7586 24.1455 49.7431 24.5526 50.5572 25.3666C51.3713 26.1807 51.7784 27.1653 51.7784 28.3203C51.7784 28.7239 51.7192 29.124 51.6009 29.5206C51.4826 29.9172 51.3052 30.2825 51.0686 30.6165L54.2832 33.8311L53.1143 35ZM47.6035 30.8252C48.2993 30.8252 48.8908 30.5817 49.3778 30.0946C49.8649 29.6075 50.1084 29.0161 50.1084 28.3203C50.1084 27.6245 49.8649 27.0331 49.3778 26.546C48.8908 26.059 48.2993 25.8154 47.6035 25.8154C46.9077 25.8154 46.3163 26.059 45.8293 26.546C45.3422 27.0331 45.0987 27.6245 45.0987 28.3203C45.0987 29.0161 45.3422 29.6075 45.8293 30.0946C46.3163 30.5817 46.9077 30.8252 47.6035 30.8252Z" fill="#3C57E1"/>
<path d="M26.4412 58.9C28.3732 58.9 29.5132 59.812 29.5132 61.372C29.5132 63.028 28.3132 64 26.2732 64H22.5172V55.12H26.3692C27.9412 55.12 28.8652 55.84 28.8652 57.064C28.8652 58.192 27.8932 58.876 26.2612 58.876V58.9H26.4412ZM27.1492 57.64C27.1492 56.872 26.6572 56.404 25.8292 56.404H24.1732V58.876H25.8292C26.6572 58.876 27.1492 58.408 27.1492 57.64ZM26.3572 62.716C27.2572 62.716 27.7972 62.212 27.7972 61.372C27.7972 60.532 27.2572 60.028 26.3572 60.028H24.1732V62.716H26.3572ZM34.6393 57.976H36.2233V64H34.6393V61.876H34.6153C34.6153 63.28 33.9193 64.12 32.7313 64.12C31.4353 64.12 30.6673 63.196 30.6673 61.648V57.976H32.2513V61.576C32.2513 62.392 32.6713 62.86 33.3793 62.86C34.1713 62.86 34.6393 62.26 34.6393 61.228V57.976ZM37.782 56.824V55.324H39.366V56.824H37.782ZM37.782 64V57.976H39.366V64H37.782ZM40.9343 64V54.76H42.5183V64H40.9343ZM48.3586 54.76H49.9426V64H48.3586V61.924H48.3346C48.3346 63.304 47.5306 64.12 46.1866 64.12C44.6746 64.12 43.7866 62.956 43.7866 60.988C43.7866 59.02 44.6746 57.856 46.1866 57.856C47.5306 57.856 48.3346 58.672 48.3346 60.04H48.3586V54.76ZM46.9186 62.86C47.8786 62.86 48.4426 62.092 48.4426 60.988C48.4426 59.872 47.8786 59.104 46.9186 59.104C45.9586 59.104 45.3946 59.812 45.3946 60.988C45.3946 62.164 45.9586 62.86 46.9186 62.86ZM51.5046 56.824V55.324H53.0886V56.824H51.5046ZM51.5046 64V57.976H53.0886V64H51.5046ZM58.221 57.856C59.553 57.856 60.333 58.768 60.333 60.328V64H58.749V60.4C58.749 59.584 58.317 59.104 57.573 59.104C56.733 59.104 56.241 59.716 56.241 60.736V64H54.657V57.976H56.241V60.088H56.265C56.265 58.684 56.997 57.856 58.221 57.856ZM66.1008 57.976H67.6848V64.072C67.6848 65.836 66.5568 66.88 64.6608 66.88C63.0288 66.88 61.9248 66.076 61.7088 64.72L63.2088 64.492C63.3048 65.2 63.8568 65.62 64.6608 65.62C65.5608 65.62 66.1008 65.08 66.1008 64.168V61.864H66.0768C66.0768 63.232 65.2728 64.048 63.9288 64.048C62.4168 64.048 61.5288 62.896 61.5288 60.952C61.5288 59.008 62.4168 57.856 63.9288 57.856C65.2728 57.856 66.0768 58.672 66.0768 60.04H66.1008V57.976ZM64.6608 62.788C65.6208 62.788 66.1848 62.044 66.1848 60.952C66.1848 59.86 65.6208 59.104 64.6608 59.104C63.7008 59.104 63.1368 59.8 63.1368 60.952C63.1368 62.104 63.7008 62.788 64.6608 62.788ZM22.0768 69.12H23.7328V78H22.0768V74.148H18.2728V78H16.6168V69.12H18.2728V72.852H22.0768V69.12ZM25.4714 70.824V69.324H27.0554V70.824H25.4714ZM25.4714 78V71.976H27.0554V78H25.4714ZM32.8958 71.976H34.4798V78.072C34.4798 79.836 33.3518 80.88 31.4558 80.88C29.8238 80.88 28.7198 80.076 28.5038 78.72L30.0038 78.492C30.0998 79.2 30.6518 79.62 31.4558 79.62C32.3558 79.62 32.8958 79.08 32.8958 78.168V75.864H32.8718C32.8718 77.232 32.0678 78.048 30.7238 78.048C29.2118 78.048 28.3238 76.896 28.3238 74.952C28.3238 73.008 29.2118 71.856 30.7238 71.856C32.0678 71.856 32.8718 72.672 32.8718 74.04H32.8958V71.976ZM31.4558 76.788C32.4158 76.788 32.9798 76.044 32.9798 74.952C32.9798 73.86 32.4158 73.104 31.4558 73.104C30.4958 73.104 29.9318 73.8 29.9318 74.952C29.9318 76.104 30.4958 76.788 31.4558 76.788ZM39.6057 71.856C40.9377 71.856 41.7177 72.768 41.7177 74.328V78H40.1337V74.4C40.1337 73.584 39.7017 73.104 38.9577 73.104C38.1177 73.104 37.6257 73.716 37.6257 74.736V78H36.0417V68.76H37.6257V74.088H37.6497C37.6497 72.684 38.3817 71.856 39.6057 71.856ZM43.2136 78V68.76H44.7976V78H43.2136ZM46.3659 70.824V69.324H47.9499V70.824H46.3659ZM46.3659 78V71.976H47.9499V78H46.3659ZM53.7903 71.976H55.3743V78.072C55.3743 79.836 54.2463 80.88 52.3503 80.88C50.7183 80.88 49.6143 80.076 49.3983 78.72L50.8983 78.492C50.9943 79.2 51.5463 79.62 52.3503 79.62C53.2503 79.62 53.7903 79.08 53.7903 78.168V75.864H53.7663C53.7663 77.232 52.9623 78.048 51.6183 78.048C50.1063 78.048 49.2183 76.896 49.2183 74.952C49.2183 73.008 50.1063 71.856 51.6183 71.856C52.9623 71.856 53.7663 72.672 53.7663 74.04H53.7903V71.976ZM52.3503 76.788C53.3103 76.788 53.8743 76.044 53.8743 74.952C53.8743 73.86 53.3103 73.104 52.3503 73.104C51.3903 73.104 50.8263 73.8 50.8263 74.952C50.8263 76.104 51.3903 76.788 52.3503 76.788ZM60.5003 71.856C61.8323 71.856 62.6123 72.768 62.6123 74.328V78H61.0283V74.4C61.0283 73.584 60.5963 73.104 59.8523 73.104C59.0123 73.104 58.5203 73.716 58.5203 74.736V78H56.9363V68.76H58.5203V74.088H58.5443C58.5443 72.684 59.2763 71.856 60.5003 71.856ZM67.8298 73.068H65.9578V75.972C65.9578 76.536 66.3178 76.86 66.9178 76.86C67.2058 76.86 67.5058 76.788 67.7218 76.668V77.844C67.3618 78.012 66.8698 78.12 66.4138 78.12C65.1298 78.12 64.3738 77.4 64.3738 76.176V73.068H63.5098V71.976H64.4698V69.96H66.0538V70.464C66.0538 71.232 65.4778 71.772 64.5178 71.952V71.976H67.8298V73.068ZM71.2062 78.12C69.4782 78.12 68.4702 77.352 68.4702 76.044H69.9462C69.9462 76.716 70.4142 77.112 71.2062 77.112C71.9742 77.112 72.4182 76.824 72.4182 76.32C72.4182 75.684 71.7102 75.564 70.9182 75.432C69.8742 75.264 68.6262 75.06 68.6262 73.68C68.6262 72.54 69.5862 71.856 71.2062 71.856C72.8142 71.856 73.7742 72.588 73.7742 73.836H72.2982C72.2982 73.2 71.9022 72.84 71.2062 72.84C70.5462 72.84 70.1502 73.104 70.1502 73.548C70.1502 74.088 70.8102 74.196 71.5782 74.328C72.6462 74.508 73.9422 74.724 73.9422 76.14C73.9422 77.376 72.9222 78.12 71.2062 78.12Z" fill="#001A64"/>
</svg>
