<svg width="90" height="90" viewBox="0 0 90 90" fill="none" xmlns="http://www.w3.org/2000/svg">
<rect x="0.5" y="0.5" width="89" height="89" rx="7.5" fill="#FCFCFC"/>
<rect x="0.5" y="0.5" width="89" height="89" rx="7.5" stroke="#F0F0F0"/>
<path d="M41 24C41.2833 24 41.5208 23.9042 41.7125 23.7125C41.9042 23.5208 42 23.2833 42 23C42 22.7167 41.9042 22.4792 41.7125 22.2875C41.5208 22.0958 41.2833 22 41 22C40.7167 22 40.4792 22.0958 40.2875 22.2875C40.0958 22.4792 40 22.7167 40 23C40 23.2833 40.0958 23.5208 40.2875 23.7125C40.4792 23.9042 40.7167 24 41 24ZM45 24C45.2833 24 45.5208 23.9042 45.7125 23.7125C45.9042 23.5208 46 23.2833 46 23C46 22.7167 45.9042 22.4792 45.7125 22.2875C45.5208 22.0958 45.2833 22 45 22C44.7167 22 44.4792 22.0958 44.2875 22.2875C44.0958 22.4792 44 22.7167 44 23C44 23.2833 44.0958 23.5208 44.2875 23.7125C44.4792 23.9042 44.7167 24 45 24ZM49 24C49.2833 24 49.5208 23.9042 49.7125 23.7125C49.9042 23.5208 50 23.2833 50 23C50 22.7167 49.9042 22.4792 49.7125 22.2875C49.5208 22.0958 49.2833 22 49 22C48.7167 22 48.4792 22.0958 48.2875 22.2875C48.0958 22.4792 48 22.7167 48 23C48 23.2833 48.0958 23.5208 48.2875 23.7125C48.4792 23.9042 48.7167 24 49 24ZM35 35V17C35 16.45 35.1958 15.9792 35.5875 15.5875C35.9792 15.1958 36.45 15 37 15H53C53.55 15 54.0208 15.1958 54.4125 15.5875C54.8042 15.9792 55 16.45 55 17V29C55 29.55 54.8042 30.0208 54.4125 30.4125C54.0208 30.8042 53.55 31 53 31H39L35 35ZM38.15 29H53V17H37V30.125L38.15 29Z" fill="#3C57E1"/>
<path d="M29.6528 60.604C29.3648 62.8 27.9488 64.12 25.8248 64.12C23.2568 64.12 21.7328 62.428 21.7328 59.56C21.7328 56.692 23.2568 55 25.8248 55C27.9488 55 29.3648 56.296 29.6528 58.48H28.0688C27.8288 57.124 27.0008 56.32 25.8248 56.32C24.3368 56.32 23.4488 57.532 23.4488 59.56C23.4488 61.588 24.3368 62.8 25.8248 62.8C27.0128 62.8 27.8288 61.984 28.0688 60.604H29.6528ZM34.3967 57.856C35.7287 57.856 36.5087 58.768 36.5087 60.328V64H34.9247V60.4C34.9247 59.584 34.4927 59.104 33.7487 59.104C32.9087 59.104 32.4167 59.716 32.4167 60.736V64H30.8327V54.76H32.4167V60.088H32.4407C32.4407 58.684 33.1727 57.856 34.3967 57.856ZM42.2766 57.976H43.8606V64H42.2766V61.924H42.2526C42.2526 63.304 41.4486 64.12 40.1046 64.12C38.5926 64.12 37.7046 62.956 37.7046 60.988C37.7046 59.02 38.5926 57.856 40.1046 57.856C41.4486 57.856 42.2526 58.672 42.2526 60.04H42.2766V57.976ZM40.8366 62.86C41.7966 62.86 42.3606 62.092 42.3606 60.988C42.3606 59.872 41.7966 59.104 40.8366 59.104C39.8766 59.104 39.3126 59.812 39.3126 60.988C39.3126 62.164 39.8766 62.86 40.8366 62.86ZM49.2146 59.068H47.3426V61.972C47.3426 62.536 47.7026 62.86 48.3026 62.86C48.5906 62.86 48.8906 62.788 49.1066 62.668V63.844C48.7466 64.012 48.2546 64.12 47.7986 64.12C46.5146 64.12 45.7586 63.4 45.7586 62.176V59.068H44.8946V57.976H45.8546V55.96H47.4386V56.464C47.4386 57.232 46.8626 57.772 45.9026 57.952V57.976H49.2146V59.068ZM53.995 57.856C55.507 57.856 56.407 59.02 56.407 60.988C56.407 62.956 55.507 64.12 53.995 64.12C52.651 64.12 51.847 63.304 51.847 61.924H51.823V64H50.239V54.76H51.823V60.04H51.847C51.847 58.672 52.651 57.856 53.995 57.856ZM53.263 62.86C54.223 62.86 54.787 62.164 54.787 60.988C54.787 59.812 54.223 59.104 53.263 59.104C52.303 59.104 51.739 59.872 51.739 60.988C51.739 62.092 52.303 62.86 53.263 62.86ZM60.477 64.12C58.509 64.12 57.333 62.956 57.333 60.988C57.333 59.02 58.509 57.856 60.477 57.856C62.445 57.856 63.609 59.02 63.609 60.988C63.609 62.956 62.445 64.12 60.477 64.12ZM60.477 62.86C61.437 62.86 62.001 62.164 62.001 60.988C62.001 59.812 61.437 59.104 60.477 59.104C59.517 59.104 58.953 59.812 58.953 60.988C58.953 62.164 59.517 62.86 60.477 62.86ZM68.5388 59.068H66.6668V61.972C66.6668 62.536 67.0268 62.86 67.6268 62.86C67.9148 62.86 68.2148 62.788 68.4308 62.668V63.844C68.0708 64.012 67.5788 64.12 67.1228 64.12C65.8388 64.12 65.0828 63.4 65.0828 62.176V59.068H64.2188V57.976H65.1788V55.96H66.7628V56.464C66.7628 57.232 66.1868 57.772 65.2268 57.952V57.976H68.5388V59.068Z" fill="#AAAAAA"/>
</svg>
