<svg width="90" height="90" viewBox="0 0 90 90" fill="none" xmlns="http://www.w3.org/2000/svg">
<rect x="0.5" y="0.5" width="89" height="89" rx="7.5" fill="#FFFFC8"/>
<rect x="0.5" y="0.5" width="89" height="89" rx="7.5" stroke="#F0F0F0"/>
<path fill-rule="evenodd" clip-rule="evenodd" d="M45 14L49 16.877L45 19.76V18C40.5817 18 37 21.5817 37 26C37 30.4183 40.5817 34 45 34C49.4183 34 53 30.4183 53 26C53 24.3483 52.4995 22.8136 51.6418 21.5391L53.3023 20.4239C54.3743 22.017 55 23.9354 55 26C55 31.5228 50.5228 36 45 36C39.4772 36 35 31.5228 35 26C35 20.4771 39.4772 16 45 16V14ZM45 31C47.7614 31 50 28.7614 50 26C50 23.2386 47.7614 21 45 21C42.2386 21 40 23.2386 40 26C40 28.7614 42.2386 31 45 31ZM45 29C46.6569 29 48 27.6569 48 26C48 24.3431 46.6569 23 45 23C43.3431 23 42 24.3431 42 26C42 27.6569 43.3431 29 45 29Z" fill="#3C57E1"/>
<path d="M27.6675 55.12H29.3235L27.6435 64H24.6675L23.2995 55.264H23.2755L21.9075 64H18.9315L17.2635 55.12H19.0155L20.5275 63.856H20.5515L21.9795 55.12H24.6795L26.1195 63.856H26.1435L27.6675 55.12ZM35.7102 60.988V61.168H31.3182C31.3782 62.272 31.9062 62.92 32.7582 62.92C33.5022 62.92 34.0182 62.512 34.1742 61.852H35.7102C35.4942 63.28 34.3902 64.12 32.7582 64.12C30.8862 64.12 29.7822 62.956 29.7822 60.988C29.7822 59.008 30.8862 57.856 32.7582 57.856C34.6062 57.856 35.7102 59.008 35.7102 60.988ZM32.7582 59.044C31.9542 59.044 31.4382 59.62 31.3302 60.628H34.1622C34.0662 59.62 33.5502 59.044 32.7582 59.044ZM40.6942 57.856C42.2062 57.856 43.1062 59.02 43.1062 60.988C43.1062 62.956 42.2062 64.12 40.6942 64.12C39.3502 64.12 38.5462 63.304 38.5462 61.924H38.5222V64H36.9382V54.76H38.5222V60.04H38.5462C38.5462 58.672 39.3502 57.856 40.6942 57.856ZM39.9622 62.86C40.9222 62.86 41.4862 62.164 41.4862 60.988C41.4862 59.812 40.9222 59.104 39.9622 59.104C39.0022 59.104 38.4382 59.872 38.4382 60.988C38.4382 62.092 39.0022 62.86 39.9622 62.86ZM44.2842 60.676H47.9202V61.204H44.2842V60.676ZM54.7572 55.12V56.404H52.1652V64H50.5092V56.404H47.9052V55.12H54.7572ZM57.266 64.12C55.298 64.12 54.122 62.956 54.122 60.988C54.122 59.02 55.298 57.856 57.266 57.856C59.234 57.856 60.398 59.02 60.398 60.988C60.398 62.956 59.234 64.12 57.266 64.12ZM57.266 62.86C58.226 62.86 58.79 62.164 58.79 60.988C58.79 59.812 58.226 59.104 57.266 59.104C56.306 59.104 55.742 59.812 55.742 60.988C55.742 62.164 56.306 62.86 57.266 62.86ZM65.5416 57.976H67.1256V64H65.5416V61.876H65.5176C65.5176 63.28 64.8216 64.12 63.6336 64.12C62.3376 64.12 61.5696 63.196 61.5696 61.648V57.976H63.1536V61.576C63.1536 62.392 63.5736 62.86 64.2816 62.86C65.0736 62.86 65.5416 62.26 65.5416 61.228V57.976ZM72.1163 57.856C72.4643 57.856 72.8003 57.928 73.0403 58.048L72.5843 59.464C72.3443 59.332 72.0443 59.248 71.7443 59.248C70.8203 59.248 70.2683 60.004 70.2683 61.276V64H68.6843V57.976H70.2683V60.46H70.2923C70.2923 58.816 70.9763 57.856 72.1163 57.856Z" fill="#001A64"/>
</svg>
