<svg width="90" height="90" viewBox="0 0 90 90" fill="none" xmlns="http://www.w3.org/2000/svg">
<rect x="0.5" y="0.5" width="89" height="89" rx="7.5" fill="#FFFFC8"/>
<rect x="0.5" y="0.5" width="89" height="89" rx="7.5" stroke="#F0F0F0"/>
<path fill-rule="evenodd" clip-rule="evenodd" d="M36 18V20H54V18H36ZM43 32H47V30H43V32ZM51 26H39V24H51V26Z" fill="#3C57E1"/>
<path d="M36.7264 56.404H32.6224V58.9H36.1024V60.184H32.6224V64H30.9664V55.12H36.7264V56.404ZM37.7585 56.824V55.324H39.3425V56.824H37.7585ZM37.7585 64V57.976H39.3425V64H37.7585ZM40.9109 64V54.76H42.4949V64H40.9109ZM47.8552 59.068H45.9832V61.972C45.9832 62.536 46.3432 62.86 46.9432 62.86C47.2312 62.86 47.5312 62.788 47.7472 62.668V63.844C47.3872 64.012 46.8952 64.12 46.4392 64.12C45.1552 64.12 44.3992 63.4 44.3992 62.176V59.068H43.5352V57.976H44.4952V55.96H46.0792V56.464C46.0792 57.232 45.5032 57.772 44.5432 57.952V57.976H47.8552V59.068ZM54.4133 60.988V61.168H50.0213C50.0813 62.272 50.6093 62.92 51.4613 62.92C52.2053 62.92 52.7213 62.512 52.8773 61.852H54.4133C54.1973 63.28 53.0933 64.12 51.4613 64.12C49.5893 64.12 48.4853 62.956 48.4853 60.988C48.4853 59.008 49.5893 57.856 51.4613 57.856C53.3093 57.856 54.4133 59.008 54.4133 60.988ZM51.4613 59.044C50.6573 59.044 50.1413 59.62 50.0333 60.628H52.8653C52.7693 59.62 52.2533 59.044 51.4613 59.044ZM59.0733 57.856C59.4213 57.856 59.7573 57.928 59.9973 58.048L59.5413 59.464C59.3013 59.332 59.0013 59.248 58.7013 59.248C57.7773 59.248 57.2253 60.004 57.2253 61.276V64H55.6413V57.976H57.2253V60.46H57.2493C57.2493 58.816 57.9333 57.856 59.0733 57.856Z" fill="#001A64"/>
</svg>
