<svg width="90" height="90" viewBox="0 0 90 90" fill="none" xmlns="http://www.w3.org/2000/svg">
<rect x="0.5" y="0.5" width="89" height="89" rx="7.5" fill="#FCFCFC"/>
<rect x="0.5" y="0.5" width="89" height="89" rx="7.5" stroke="#F0F0F0"/>
<path d="M36 34H44V26H36V34ZM38 28H42V32H38V28Z" fill="#3C57E1"/>
<path d="M36 24H44V16H36V24ZM38 18H42V22H38V18Z" fill="#3C57E1"/>
<path d="M46 34H54V26H46V34ZM48 28H52V32H48V28Z" fill="#3C57E1"/>
<path d="M46 16V24H54V16H46ZM52 22H48V18H52V22Z" fill="#3C57E1"/>
<path d="M25.0493 64L24.4373 61.852H20.6453L20.0333 64H18.3773L21.1373 55.12H24.0653L26.8133 64H25.0493ZM21.0173 60.568H24.0773L22.5653 55.264H22.5413L21.0173 60.568ZM27.6863 64V54.76H29.2703V64H27.6863ZM30.8386 64V54.76H32.4226V64H30.8386ZM33.9189 60.676H37.5549V61.204H33.9189V60.676ZM42.3417 64.12C40.2057 64.12 38.8497 62.932 38.6817 60.892H40.3137C40.4217 62.092 41.1777 62.8 42.3777 62.8C43.5897 62.8 44.2977 62.296 44.2977 61.456C44.2977 60.424 43.2417 60.268 42.0777 60.088C40.6137 59.884 38.9217 59.632 38.9217 57.664C38.9217 55.936 40.1937 55 42.3417 55C44.2977 55 45.5697 56.152 45.7377 58.096H44.0937C44.0217 56.98 43.3377 56.32 42.2577 56.32C41.2137 56.32 40.6017 56.776 40.6017 57.544C40.6017 58.42 41.5857 58.576 42.6897 58.744C44.1897 58.96 45.9777 59.236 45.9777 61.288C45.9777 63.064 44.6337 64.12 42.3417 64.12ZM51.4934 57.976H53.0774V64H51.4934V61.924H51.4694C51.4694 63.304 50.6654 64.12 49.3214 64.12C47.8094 64.12 46.9214 62.956 46.9214 60.988C46.9214 59.02 47.8094 57.856 49.3214 57.856C50.6654 57.856 51.4694 58.672 51.4694 60.04H51.4934V57.976ZM50.0534 62.86C51.0134 62.86 51.5774 62.092 51.5774 60.988C51.5774 59.872 51.0134 59.104 50.0534 59.104C49.0934 59.104 48.5294 59.812 48.5294 60.988C48.5294 62.164 49.0934 62.86 50.0534 62.86ZM62.1034 57.856C63.3994 57.856 64.1674 58.744 64.1674 60.268V64H62.5834V60.34C62.5834 59.56 62.1634 59.104 61.4554 59.104C60.6634 59.104 60.1954 59.692 60.1954 60.676V64H58.6114V60.34C58.6114 59.56 58.2034 59.104 57.4954 59.104C56.6914 59.104 56.2234 59.692 56.2234 60.676V64H54.6394V57.976H56.2234V60.064H56.2474C56.2474 58.672 56.9794 57.856 58.1914 57.856C59.4514 57.856 60.1954 58.708 60.1954 60.064H60.2194C60.2194 58.672 60.9154 57.856 62.1034 57.856ZM71.2707 60.988V61.168H66.8787C66.9387 62.272 67.4667 62.92 68.3187 62.92C69.0627 62.92 69.5787 62.512 69.7347 61.852H71.2707C71.0547 63.28 69.9507 64.12 68.3187 64.12C66.4467 64.12 65.3427 62.956 65.3427 60.988C65.3427 59.008 66.4467 57.856 68.3187 57.856C70.1667 57.856 71.2707 59.008 71.2707 60.988ZM68.3187 59.044C67.5147 59.044 66.9987 59.62 66.8907 60.628H69.7227C69.6267 59.62 69.1107 59.044 68.3187 59.044ZM34.229 74.604C33.941 76.8 32.525 78.12 30.401 78.12C27.833 78.12 26.309 76.428 26.309 73.56C26.309 70.692 27.833 69 30.401 69C32.525 69 33.941 70.296 34.229 72.48H32.645C32.405 71.124 31.577 70.32 30.401 70.32C28.913 70.32 28.025 71.532 28.025 73.56C28.025 75.588 28.913 76.8 30.401 76.8C31.589 76.8 32.405 75.984 32.645 74.604H34.229ZM38.2289 78.12C36.2609 78.12 35.0849 76.956 35.0849 74.988C35.0849 73.02 36.2609 71.856 38.2289 71.856C40.1969 71.856 41.3609 73.02 41.3609 74.988C41.3609 76.956 40.1969 78.12 38.2289 78.12ZM38.2289 76.86C39.1889 76.86 39.7529 76.164 39.7529 74.988C39.7529 73.812 39.1889 73.104 38.2289 73.104C37.2689 73.104 36.7049 73.812 36.7049 74.988C36.7049 76.164 37.2689 76.86 38.2289 76.86ZM46.1565 71.856C47.4885 71.856 48.2685 72.768 48.2685 74.328V78H46.6845V74.4C46.6845 73.584 46.2525 73.104 45.5085 73.104C44.6685 73.104 44.1765 73.716 44.1765 74.736V78H42.5925V71.976H44.1765V74.088H44.2005C44.2005 72.684 44.9325 71.856 46.1565 71.856ZM52.7543 69.9C51.9983 69.9 51.6023 70.32 51.6023 71.016V71.976H53.4983V73.068H51.6863V78H50.1023V73.068H49.1903V71.976H51.5423V71.952C50.5823 71.772 50.0183 71.232 50.0183 70.464C50.0183 69.312 50.8943 68.64 52.3703 68.64C52.8863 68.64 53.4023 68.748 53.8103 68.94L53.6063 70.128C53.3663 69.984 53.0663 69.9 52.7543 69.9ZM54.4167 70.824V69.324H56.0007V70.824H54.4167ZM54.4167 78V71.976H56.0007V78H54.4167ZM61.8411 71.976H63.4251V78.072C63.4251 79.836 62.2971 80.88 60.4011 80.88C58.7691 80.88 57.6651 80.076 57.4491 78.72L58.9491 78.492C59.0451 79.2 59.5971 79.62 60.4011 79.62C61.3011 79.62 61.8411 79.08 61.8411 78.168V75.864H61.8171C61.8171 77.232 61.0131 78.048 59.6691 78.048C58.1571 78.048 57.2691 76.896 57.2691 74.952C57.2691 73.008 58.1571 71.856 59.6691 71.856C61.0131 71.856 61.8171 72.672 61.8171 74.04H61.8411V71.976ZM60.4011 76.788C61.3611 76.788 61.9251 76.044 61.9251 74.952C61.9251 73.86 61.3611 73.104 60.4011 73.104C59.4411 73.104 58.8771 73.8 58.8771 74.952C58.8771 76.104 59.4411 76.788 60.4011 76.788Z" fill="#001A64"/>
</svg>
