<svg width="90" height="90" viewBox="0 0 90 90" fill="none" xmlns="http://www.w3.org/2000/svg">
<rect x="0.5" y="0.5" width="89" height="89" rx="7.5" fill="#FFFFC8"/>
<rect x="0.5" y="0.5" width="89" height="89" rx="7.5" stroke="#F0F0F0"/>
<path d="M29.4491 41.404H25.3451V43.9H28.8251V45.184H25.3451V49H23.6891V40.12H29.4491V41.404ZM35.7688 45.988V46.168H31.3768C31.4368 47.272 31.9648 47.92 32.8168 47.92C33.5608 47.92 34.0768 47.512 34.2328 46.852H35.7688C35.5528 48.28 34.4488 49.12 32.8168 49.12C30.9448 49.12 29.8408 47.956 29.8408 45.988C29.8408 44.008 30.9448 42.856 32.8168 42.856C34.6648 42.856 35.7688 44.008 35.7688 45.988ZM32.8168 44.044C32.0128 44.044 31.4968 44.62 31.3888 45.628H34.2208C34.1248 44.62 33.6088 44.044 32.8168 44.044ZM41.2688 42.976H42.8528V49H41.2688V46.924H41.2448C41.2448 48.304 40.4408 49.12 39.0968 49.12C37.5848 49.12 36.6968 47.956 36.6968 45.988C36.6968 44.02 37.5848 42.856 39.0968 42.856C40.4408 42.856 41.2448 43.672 41.2448 45.04H41.2688V42.976ZM39.8288 47.86C40.7888 47.86 41.3528 47.092 41.3528 45.988C41.3528 44.872 40.7888 44.104 39.8288 44.104C38.8688 44.104 38.3048 44.812 38.3048 45.988C38.3048 47.164 38.8688 47.86 39.8288 47.86ZM48.2068 44.068H46.3348V46.972C46.3348 47.536 46.6948 47.86 47.2948 47.86C47.5828 47.86 47.8828 47.788 48.0988 47.668V48.844C47.7388 49.012 47.2468 49.12 46.7908 49.12C45.5068 49.12 44.7508 48.4 44.7508 47.176V44.068H43.8868V42.976H44.8468V40.96H46.4308V41.464C46.4308 42.232 45.8548 42.772 44.8948 42.952V42.976H48.2068V44.068ZM53.1432 42.976H54.7272V49H53.1432V46.876H53.1192C53.1192 48.28 52.4232 49.12 51.2352 49.12C49.9392 49.12 49.1712 48.196 49.1712 46.648V42.976H50.7552V46.576C50.7552 47.392 51.1752 47.86 51.8832 47.86C52.6752 47.86 53.1432 47.26 53.1432 46.228V42.976ZM59.7179 42.856C60.0659 42.856 60.4019 42.928 60.6419 43.048L60.1859 44.464C59.9459 44.332 59.6459 44.248 59.3459 44.248C58.4219 44.248 57.8699 45.004 57.8699 46.276V49H56.2859V42.976H57.8699V45.46H57.8939C57.8939 43.816 58.5779 42.856 59.7179 42.856ZM66.8469 45.988V46.168H62.4549C62.5149 47.272 63.0429 47.92 63.8949 47.92C64.6389 47.92 65.1549 47.512 65.3109 46.852H66.8469C66.6309 48.28 65.5269 49.12 63.8949 49.12C62.0229 49.12 60.9189 47.956 60.9189 45.988C60.9189 44.008 62.0229 42.856 63.8949 42.856C65.7429 42.856 66.8469 44.008 66.8469 45.988ZM63.8949 44.044C63.0909 44.044 62.5749 44.62 62.4669 45.628H65.2989C65.2029 44.62 64.6869 44.044 63.8949 44.044Z" fill="#001A64"/>
</svg>
