<svg width="90" height="90" viewBox="0 0 90 90" fill="none" xmlns="http://www.w3.org/2000/svg">
<rect x="0.5" y="0.5" width="89" height="89" rx="7.5" fill="#FFFFC8"/>
<rect x="0.5" y="0.5" width="89" height="89" rx="7.5" stroke="#F0F0F0"/>
<path fill-rule="evenodd" clip-rule="evenodd" d="M45 19.0501C46.09 17.7946 47.76 17 49.5 17C52.58 17 55 19.3738 55 22.3951C55 26.1 51.6056 29.1193 46.4627 33.6939L46.45 33.7052L45 35L43.55 33.715L43.5105 33.6798C38.3826 29.1088 35 26.0935 35 22.3951C35 19.3738 37.42 17 40.5 17C42.24 17 43.91 17.7946 45 19.0501ZM45 32.3515L45.1 32.2534C49.86 28.0256 53 25.23 53 22.3951C53 20.4332 51.5 18.9619 49.5 18.9619C47.96 18.9619 46.46 19.933 45.94 21.2768H44.07C43.54 19.933 42.04 18.9619 40.5 18.9619C38.5 18.9619 37 20.4332 37 22.3951C37 25.23 40.14 28.0256 44.9 32.2534L45 32.3515Z" fill="#3C57E1"/>
<path d="M27.8788 56.404H23.7748V58.9H27.2548V60.184H23.7748V64H22.1188V55.12H27.8788V56.404ZM32.8782 57.976H34.4622V64H32.8782V61.924H32.8542C32.8542 63.304 32.0502 64.12 30.7062 64.12C29.1942 64.12 28.3062 62.956 28.3062 60.988C28.3062 59.02 29.1942 57.856 30.7062 57.856C32.0502 57.856 32.8542 58.672 32.8542 60.04H32.8782V57.976ZM31.4382 62.86C32.3982 62.86 32.9622 62.092 32.9622 60.988C32.9622 59.872 32.3982 59.104 31.4382 59.104C30.4782 59.104 29.9142 59.812 29.9142 60.988C29.9142 62.164 30.4782 62.86 31.4382 62.86ZM39.9481 57.976H41.6401L40.0681 64H37.0801L35.4961 57.976H37.1881L38.5681 63.892H38.5921L39.9481 57.976ZM45.3949 64.12C43.4269 64.12 42.2509 62.956 42.2509 60.988C42.2509 59.02 43.4269 57.856 45.3949 57.856C47.3629 57.856 48.5269 59.02 48.5269 60.988C48.5269 62.956 47.3629 64.12 45.3949 64.12ZM45.3949 62.86C46.3549 62.86 46.9189 62.164 46.9189 60.988C46.9189 59.812 46.3549 59.104 45.3949 59.104C44.4349 59.104 43.8709 59.812 43.8709 60.988C43.8709 62.164 44.4349 62.86 45.3949 62.86ZM53.1905 57.856C53.5385 57.856 53.8745 57.928 54.1145 58.048L53.6585 59.464C53.4185 59.332 53.1185 59.248 52.8185 59.248C51.8945 59.248 51.3425 60.004 51.3425 61.276V64H49.7585V57.976H51.3425V60.46H51.3665C51.3665 58.816 52.0505 57.856 53.1905 57.856ZM54.9148 56.824V55.324H56.4988V56.824H54.9148ZM54.9148 64V57.976H56.4988V64H54.9148ZM61.8591 59.068H59.9871V61.972C59.9871 62.536 60.3471 62.86 60.9471 62.86C61.2351 62.86 61.5351 62.788 61.7511 62.668V63.844C61.3911 64.012 60.8991 64.12 60.4431 64.12C59.1591 64.12 58.4031 63.4 58.4031 62.176V59.068H57.5391V57.976H58.4991V55.96H60.0831V56.464C60.0831 57.232 59.5071 57.772 58.5471 57.952V57.976H61.8591V59.068ZM68.4172 60.988V61.168H64.0252C64.0852 62.272 64.6132 62.92 65.4652 62.92C66.2092 62.92 66.7252 62.512 66.8812 61.852H68.4172C68.2012 63.28 67.0972 64.12 65.4652 64.12C63.5932 64.12 62.4892 62.956 62.4892 60.988C62.4892 59.008 63.5932 57.856 65.4652 57.856C67.3132 57.856 68.4172 59.008 68.4172 60.988ZM65.4652 59.044C64.6612 59.044 64.1452 59.62 64.0372 60.628H66.8692C66.7732 59.62 66.2572 59.044 65.4652 59.044Z" fill="#001A64"/>
</svg>
