<svg width="90" height="90" viewBox="0 0 90 90" fill="none" xmlns="http://www.w3.org/2000/svg">
<rect x="0.5" y="0.5" width="89" height="89" rx="7.5" fill="#FBFCFF"/>
<rect x="0.5" y="0.5" width="89" height="89" rx="7.5" stroke="#F0F0F0"/>
<path d="M38 34C37.45 34 36.9792 33.8042 36.5875 33.4125C36.1958 33.0208 36 32.55 36 32V26H38V32H44V34H38ZM46 34V32H52V26H54V32C54 32.55 53.8042 33.0208 53.4125 33.4125C53.0208 33.8042 52.55 34 52 34H46ZM39 30L42 26L44.25 29L47.25 25L51 30H39ZM36 24V18C36 17.45 36.1958 16.9792 36.5875 16.5875C36.9792 16.1958 37.45 16 38 16H44V18H38V24H36ZM52 24V18H46V16H52C52.55 16 53.0208 16.1958 53.4125 16.5875C53.8042 16.9792 54 17.45 54 18V24H52ZM48.5 23C48.0667 23 47.7083 22.8583 47.425 22.575C47.1417 22.2917 47 21.9333 47 21.5C47 21.0667 47.1417 20.7083 47.425 20.425C47.7083 20.1417 48.0667 20 48.5 20C48.9333 20 49.2917 20.1417 49.575 20.425C49.8583 20.7083 50 21.0667 50 21.5C50 21.9333 49.8583 22.2917 49.575 22.575C49.2917 22.8583 48.9333 23 48.5 23Z" fill="#3C57E1"/>
<path d="M38.9764 61.648L40.3084 64H38.4604L36.5284 60.4H34.8724V64H33.2164V55.12H36.6604C38.7484 55.12 39.9964 56.068 39.9964 57.652C39.9964 59.368 38.7724 60.376 36.6964 60.376V60.4C37.6684 60.4 38.5324 60.856 38.9764 61.648ZM34.8724 59.188H36.7444C37.7164 59.188 38.2804 58.66 38.2804 57.772C38.2804 56.92 37.7164 56.404 36.7444 56.404H34.8724V59.188ZM46.7492 60.988V61.168H42.3572C42.4172 62.272 42.9452 62.92 43.7972 62.92C44.5412 62.92 45.0572 62.512 45.2132 61.852H46.7492C46.5332 63.28 45.4292 64.12 43.7972 64.12C41.9252 64.12 40.8212 62.956 40.8212 60.988C40.8212 59.008 41.9252 57.856 43.7972 57.856C45.6452 57.856 46.7492 59.008 46.7492 60.988ZM43.7972 59.044C42.9932 59.044 42.4772 59.62 42.3692 60.628H45.2012C45.1052 59.62 44.5892 59.044 43.7972 59.044ZM52.2493 57.976H53.8333V64H52.2493V61.924H52.2253C52.2253 63.304 51.4213 64.12 50.0773 64.12C48.5653 64.12 47.6773 62.956 47.6773 60.988C47.6773 59.02 48.5653 57.856 50.0773 57.856C51.4213 57.856 52.2253 58.672 52.2253 60.04H52.2493V57.976ZM50.8093 62.86C51.7693 62.86 52.3333 62.092 52.3333 60.988C52.3333 59.872 51.7693 59.104 50.8093 59.104C49.8493 59.104 49.2853 59.812 49.2853 60.988C49.2853 62.164 49.8493 62.86 50.8093 62.86ZM55.3952 64V54.76H56.9792V64H55.3952ZM17.1482 72.9C19.0802 72.9 20.2202 73.812 20.2202 75.372C20.2202 77.028 19.0202 78 16.9802 78H13.2242V69.12H17.0762C18.6482 69.12 19.5722 69.84 19.5722 71.064C19.5722 72.192 18.6002 72.876 16.9682 72.876V72.9H17.1482ZM17.8562 71.64C17.8562 70.872 17.3642 70.404 16.5362 70.404H14.8802V72.876H16.5362C17.3642 72.876 17.8562 72.408 17.8562 71.64ZM17.0642 76.716C17.9642 76.716 18.5042 76.212 18.5042 75.372C18.5042 74.532 17.9642 74.028 17.0642 74.028H14.8802V76.716H17.0642ZM25.7063 71.976H27.2903V78H25.7063V75.924H25.6823C25.6823 77.304 24.8783 78.12 23.5343 78.12C22.0223 78.12 21.1343 76.956 21.1343 74.988C21.1343 73.02 22.0223 71.856 23.5343 71.856C24.8783 71.856 25.6823 72.672 25.6823 74.04H25.7063V71.976ZM24.2663 76.86C25.2263 76.86 25.7903 76.092 25.7903 74.988C25.7903 73.872 25.2263 73.104 24.2663 73.104C23.3063 73.104 22.7423 73.812 22.7423 74.988C22.7423 76.164 23.3063 76.86 24.2663 76.86ZM31.6363 78.12C29.6923 78.12 28.5283 76.956 28.5283 74.988C28.5283 73.02 29.6923 71.856 31.6363 71.856C33.2803 71.856 34.3483 72.72 34.5883 74.208H33.0283C32.8243 73.512 32.3443 73.104 31.6363 73.104C30.7003 73.104 30.1483 73.812 30.1483 74.988C30.1483 76.164 30.7003 76.86 31.6363 76.86C32.3803 76.86 32.8723 76.428 33.0523 75.684H34.6123C34.3843 77.232 33.3163 78.12 31.6363 78.12ZM39.1146 74.844L41.9466 78H40.0026L37.3626 74.916H37.3386V78H35.7546V68.76H37.3386V74.808H37.3626L39.7986 71.976H41.6706L39.1146 74.844ZM46.4364 71.856C47.9484 71.856 48.8484 73.02 48.8484 74.988C48.8484 76.956 47.9484 78.12 46.4364 78.12C45.0924 78.12 44.2884 77.304 44.2884 75.924H44.2644V80.76H42.6804V71.976H44.2644V74.04H44.2884C44.2884 72.672 45.0924 71.856 46.4364 71.856ZM45.7044 76.86C46.6644 76.86 47.2284 76.164 47.2284 74.988C47.2284 73.812 46.6644 73.116 45.7044 73.116C44.7444 73.116 44.1804 73.872 44.1804 74.988C44.1804 76.092 44.7444 76.86 45.7044 76.86ZM50.0984 78V68.76H51.6824V78H50.0984ZM57.5227 71.976H59.1067V78H57.5227V75.924H57.4987C57.4987 77.304 56.6947 78.12 55.3507 78.12C53.8387 78.12 52.9507 76.956 52.9507 74.988C52.9507 73.02 53.8387 71.856 55.3507 71.856C56.6947 71.856 57.4987 72.672 57.4987 74.04H57.5227V71.976ZM56.0827 76.86C57.0427 76.86 57.6067 76.092 57.6067 74.988C57.6067 73.872 57.0427 73.104 56.0827 73.104C55.1227 73.104 54.5587 73.812 54.5587 74.988C54.5587 76.164 55.1227 76.86 56.0827 76.86ZM64.4607 73.068H62.5887V75.972C62.5887 76.536 62.9487 76.86 63.5487 76.86C63.8367 76.86 64.1367 76.788 64.3527 76.668V77.844C63.9927 78.012 63.5007 78.12 63.0447 78.12C61.7607 78.12 61.0047 77.4 61.0047 76.176V73.068H60.1407V71.976H61.1007V69.96H62.6847V70.464C62.6847 71.232 62.1087 71.772 61.1487 71.952V71.976H64.4607V73.068ZM71.0188 74.988V75.168H66.6268C66.6868 76.272 67.2148 76.92 68.0668 76.92C68.8108 76.92 69.3268 76.512 69.4828 75.852H71.0188C70.8028 77.28 69.6988 78.12 68.0668 78.12C66.1948 78.12 65.0908 76.956 65.0908 74.988C65.0908 73.008 66.1948 71.856 68.0668 71.856C69.9148 71.856 71.0188 73.008 71.0188 74.988ZM68.0668 73.044C67.2628 73.044 66.7468 73.62 66.6388 74.628H69.4708C69.3748 73.62 68.8588 73.044 68.0668 73.044ZM74.5988 78.12C72.8708 78.12 71.8628 77.352 71.8628 76.044H73.3388C73.3388 76.716 73.8068 77.112 74.5988 77.112C75.3668 77.112 75.8108 76.824 75.8108 76.32C75.8108 75.684 75.1028 75.564 74.3108 75.432C73.2668 75.264 72.0188 75.06 72.0188 73.68C72.0188 72.54 72.9788 71.856 74.5988 71.856C76.2068 71.856 77.1668 72.588 77.1668 73.836H75.6908C75.6908 73.2 75.2948 72.84 74.5988 72.84C73.9388 72.84 73.5428 73.104 73.5428 73.548C73.5428 74.088 74.2028 74.196 74.9708 74.328C76.0388 74.508 77.3348 74.724 77.3348 76.14C77.3348 77.376 76.3148 78.12 74.5988 78.12Z" fill="#001A64"/>
</svg>
