<svg width="90" height="90" viewBox="0 0 90 90" fill="none" xmlns="http://www.w3.org/2000/svg">
<rect x="0.5" y="0.5" width="89" height="89" rx="7.5" fill="#FBFCFF"/>
<rect x="0.5" y="0.5" width="89" height="89" rx="7.5" stroke="#F0F0F0"/>
<path fill-rule="evenodd" clip-rule="evenodd" d="M53 33C54.1 33 55 32.1 55 31V19C55 17.9 54.1 17 53 17H37C35.9 17 35 17.9 35 19V31C35 32.1 35.9 33 37 33H53ZM53 19L45 23.99L37 19H53ZM45 26L37 21V31H53V21L45 26Z" fill="#3C57E1"/>
<path d="M32.3919 55.12V56.404H29.7999V64H28.1439V56.404H25.5399V55.12H32.3919ZM35.7472 57.856C36.0952 57.856 36.4312 57.928 36.6712 58.048L36.2152 59.464C35.9752 59.332 35.6752 59.248 35.3752 59.248C34.4512 59.248 33.8992 60.004 33.8992 61.276V64H32.3152V57.976H33.8992V60.46H33.9232C33.9232 58.816 34.6072 57.856 35.7472 57.856ZM37.4714 56.824V55.324H39.0554V56.824H37.4714ZM37.4714 64V57.976H39.0554V64H37.4714ZM44.1878 57.856C45.5198 57.856 46.2998 58.768 46.2998 60.328V64H44.7158V60.4C44.7158 59.584 44.2838 59.104 43.5398 59.104C42.6998 59.104 42.2078 59.716 42.2078 60.736V64H40.6238V54.76H42.2078V60.088H42.2318C42.2318 58.684 42.9638 57.856 44.1878 57.856ZM50.6156 64.12C48.6476 64.12 47.4716 62.956 47.4716 60.988C47.4716 59.02 48.6476 57.856 50.6156 57.856C52.5836 57.856 53.7476 59.02 53.7476 60.988C53.7476 62.956 52.5836 64.12 50.6156 64.12ZM50.6156 62.86C51.5756 62.86 52.1396 62.164 52.1396 60.988C52.1396 59.812 51.5756 59.104 50.6156 59.104C49.6556 59.104 49.0916 59.812 49.0916 60.988C49.0916 62.164 49.6556 62.86 50.6156 62.86ZM62.7206 57.976H64.3646L63.1046 64H60.3446L59.4086 58.084H59.3846L58.4606 64H55.7006L54.4406 57.976H56.1326L57.1766 63.892H57.2006L58.1246 57.976H60.7286L61.6406 63.892H61.6646L62.7206 57.976Z" fill="#001A64"/>
</svg>
