<svg width="90" height="90" viewBox="0 0 90 90" fill="none" xmlns="http://www.w3.org/2000/svg">
<rect x="0.5" y="0.5" width="89" height="89" rx="7.5" fill="#FCFCFC"/>
<rect x="0.5" y="0.5" width="89" height="89" rx="7.5" stroke="#F0F0F0"/>
<path d="M46 22V16H54V22H46ZM36 26V16H44V26H36ZM46 34V24H54V34H46ZM36 34V28H44V34H36ZM38 24H42V18H38V24ZM48 32H52V26H48V32ZM48 20H52V18H48V20ZM38 32H42V30H38V32Z" fill="#3C57E1"/>
<path d="M31.144 60.952V55.12H32.704V60.868C32.704 62.908 31.408 64.12 29.224 64.12C27.04 64.12 25.744 62.908 25.744 60.868V55.12H27.4V60.952C27.4 62.116 28.084 62.8 29.26 62.8C30.448 62.8 31.144 62.116 31.144 60.952ZM37.8831 57.856C39.2151 57.856 39.9951 58.768 39.9951 60.328V64H38.4111V60.4C38.4111 59.584 37.9791 59.104 37.2351 59.104C36.3951 59.104 35.9031 59.716 35.9031 60.736V64H34.3191V57.976H35.9031V60.088H35.9271C35.9271 58.684 36.6591 57.856 37.8831 57.856ZM41.4909 56.824V55.324H43.0749V56.824H41.4909ZM41.4909 64V57.976H43.0749V64H41.4909ZM48.9153 57.976H50.4993V66.76H48.9153V61.924H48.8913C48.8913 63.304 48.0873 64.12 46.7433 64.12C45.2313 64.12 44.3433 62.956 44.3433 60.988C44.3433 59.02 45.2313 57.856 46.7433 57.856C48.0873 57.856 48.8913 58.672 48.8913 60.04H48.9153V57.976ZM47.4753 62.86C48.4353 62.86 48.9993 62.164 48.9993 60.988C48.9993 59.812 48.4353 59.116 47.4753 59.116C46.5153 59.116 45.9513 59.812 45.9513 60.988C45.9513 62.164 46.5153 62.86 47.4753 62.86ZM55.9733 57.976H57.5573V64H55.9733V61.876H55.9493C55.9493 63.28 55.2533 64.12 54.0653 64.12C52.7693 64.12 52.0013 63.196 52.0013 61.648V57.976H53.5853V61.576C53.5853 62.392 54.0053 62.86 54.7133 62.86C55.5053 62.86 55.9733 62.26 55.9733 61.228V57.976ZM64.7199 60.988V61.168H60.3279C60.3879 62.272 60.9159 62.92 61.7679 62.92C62.5119 62.92 63.0279 62.512 63.1839 61.852H64.7199C64.5039 63.28 63.3999 64.12 61.7679 64.12C59.8959 64.12 58.7919 62.956 58.7919 60.988C58.7919 59.008 59.8959 57.856 61.7679 57.856C63.6159 57.856 64.7199 59.008 64.7199 60.988ZM61.7679 59.044C60.9639 59.044 60.4479 59.62 60.3399 60.628H63.1719C63.0759 59.62 62.5599 59.044 61.7679 59.044ZM27.3198 78.12C24.7278 78.12 23.1918 76.428 23.1918 73.56C23.1918 70.692 24.7278 69 27.3198 69C29.8878 69 31.4238 70.692 31.4238 73.56C31.4238 76.428 29.8878 78.12 27.3198 78.12ZM27.3198 76.8C28.8198 76.8 29.7078 75.588 29.7078 73.56C29.7078 71.532 28.8198 70.32 27.3198 70.32C25.7958 70.32 24.9078 71.532 24.9078 73.56C24.9078 75.588 25.7958 76.8 27.3198 76.8ZM36.4813 71.856C37.9933 71.856 38.8933 73.02 38.8933 74.988C38.8933 76.956 37.9933 78.12 36.4813 78.12C35.1373 78.12 34.3333 77.304 34.3333 75.924H34.3093V78H32.7253V68.76H34.3093V74.04H34.3333C34.3333 72.672 35.1373 71.856 36.4813 71.856ZM35.7493 76.86C36.7093 76.86 37.2733 76.164 37.2733 74.988C37.2733 73.812 36.7093 73.104 35.7493 73.104C34.7893 73.104 34.2253 73.872 34.2253 74.988C34.2253 76.092 34.7893 76.86 35.7493 76.86ZM40.1433 70.824V69.324H41.7273V70.824H40.1433ZM40.1433 80.76V71.976H41.7273V80.76H40.1433ZM48.8996 74.988V75.168H44.5076C44.5676 76.272 45.0956 76.92 45.9476 76.92C46.6916 76.92 47.2076 76.512 47.3636 75.852H48.8996C48.6836 77.28 47.5796 78.12 45.9476 78.12C44.0756 78.12 42.9716 76.956 42.9716 74.988C42.9716 73.008 44.0756 71.856 45.9476 71.856C47.7956 71.856 48.8996 73.008 48.8996 74.988ZM45.9476 73.044C45.1436 73.044 44.6276 73.62 44.5196 74.628H47.3516C47.2556 73.62 46.7396 73.044 45.9476 73.044ZM52.9117 78.12C50.9677 78.12 49.8037 76.956 49.8037 74.988C49.8037 73.02 50.9677 71.856 52.9117 71.856C54.5557 71.856 55.6237 72.72 55.8637 74.208H54.3037C54.0997 73.512 53.6197 73.104 52.9117 73.104C51.9757 73.104 51.4237 73.812 51.4237 74.988C51.4237 76.164 51.9757 76.86 52.9117 76.86C53.6557 76.86 54.1477 76.428 54.3277 75.684H55.8877C55.6597 77.232 54.5917 78.12 52.9117 78.12ZM60.7868 73.068H58.9148V75.972C58.9148 76.536 59.2748 76.86 59.8748 76.86C60.1628 76.86 60.4628 76.788 60.6788 76.668V77.844C60.3188 78.012 59.8268 78.12 59.3708 78.12C58.0868 78.12 57.3308 77.4 57.3308 76.176V73.068H56.4668V71.976H57.4268V69.96H59.0108V70.464C59.0108 71.232 58.4348 71.772 57.4748 71.952V71.976H60.7868V73.068ZM64.1633 78.12C62.4353 78.12 61.4272 77.352 61.4272 76.044H62.9033C62.9033 76.716 63.3713 77.112 64.1633 77.112C64.9313 77.112 65.3753 76.824 65.3753 76.32C65.3753 75.684 64.6673 75.564 63.8753 75.432C62.8313 75.264 61.5833 75.06 61.5833 73.68C61.5833 72.54 62.5433 71.856 64.1633 71.856C65.7713 71.856 66.7313 72.588 66.7313 73.836H65.2553C65.2553 73.2 64.8593 72.84 64.1633 72.84C63.5033 72.84 63.1073 73.104 63.1073 73.548C63.1073 74.088 63.7673 74.196 64.5353 74.328C65.6033 74.508 66.8993 74.724 66.8993 76.14C66.8993 77.376 65.8793 78.12 64.1633 78.12Z" fill="#AAAAAA"/>
</svg>
