<svg width="90" height="90" viewBox="0 0 90 90" fill="none" xmlns="http://www.w3.org/2000/svg">
<rect x="0.5" y="0.5" width="89" height="89" rx="7.5" fill="#FFFFC8"/>
<rect x="0.5" y="0.5" width="89" height="89" rx="7.5" stroke="#F0F0F0"/>
<path fill-rule="evenodd" clip-rule="evenodd" d="M36.4181 33.5692C36.8097 33.9609 37.2806 34.1567 37.8306 34.1567H46.8306V32.1567H37.8306V16.1567H44.8306V21.1567H49.8306V26.1567H51.8306V20.1567L45.8306 14.1567H37.8306C37.2806 14.1567 36.8097 14.3526 36.4181 14.7442C36.0264 15.1359 35.8306 15.6067 35.8306 16.1567V32.1567C35.8306 32.7067 36.0264 33.1776 36.4181 33.5692ZM53.0043 27.8353V32.0072L54.5776 30.4339L55.9919 31.8481L51.9967 35.8433L48.0016 31.8481L49.4158 30.4339L51.0068 32.0249V27.853L53.0043 27.8353Z" fill="#3C57E1"/>
<path d="M7.39416 64V55.12H10.2742C13.0702 55.12 14.7262 56.776 14.7262 59.56C14.7262 62.344 13.0702 64 10.2742 64H7.39416ZM9.05016 62.716H10.3702C12.0262 62.716 13.0102 61.54 13.0102 59.56C13.0102 57.58 12.0262 56.404 10.3702 56.404H9.05016V62.716ZM18.8344 64.12C16.8664 64.12 15.6904 62.956 15.6904 60.988C15.6904 59.02 16.8664 57.856 18.8344 57.856C20.8024 57.856 21.9664 59.02 21.9664 60.988C21.9664 62.956 20.8024 64.12 18.8344 64.12ZM18.8344 62.86C19.7944 62.86 20.3584 62.164 20.3584 60.988C20.3584 59.812 19.7944 59.104 18.8344 59.104C17.8744 59.104 17.3104 59.812 17.3104 60.988C17.3104 62.164 17.8744 62.86 18.8344 62.86ZM30.9394 57.976H32.5834L31.3234 64H28.5634L27.6274 58.084H27.6034L26.6794 64H23.9194L22.6594 57.976H24.3514L25.3954 63.892H25.4194L26.3434 57.976H28.9474L29.8594 63.892H29.8834L30.9394 57.976ZM37.2268 57.856C38.5588 57.856 39.3388 58.768 39.3388 60.328V64H37.7548V60.4C37.7548 59.584 37.3228 59.104 36.5788 59.104C35.7388 59.104 35.2468 59.716 35.2468 60.736V64H33.6628V57.976H35.2468V60.088H35.2708C35.2708 58.684 36.0028 57.856 37.2268 57.856ZM40.8347 64V54.76H42.4187V64H40.8347ZM46.807 64.12C44.839 64.12 43.663 62.956 43.663 60.988C43.663 59.02 44.839 57.856 46.807 57.856C48.775 57.856 49.939 59.02 49.939 60.988C49.939 62.956 48.775 64.12 46.807 64.12ZM46.807 62.86C47.767 62.86 48.331 62.164 48.331 60.988C48.331 59.812 47.767 59.104 46.807 59.104C45.847 59.104 45.283 59.812 45.283 60.988C45.283 62.164 45.847 62.86 46.807 62.86ZM55.4426 57.976H57.0266V64H55.4426V61.924H55.4186C55.4186 63.304 54.6146 64.12 53.2706 64.12C51.7586 64.12 50.8706 62.956 50.8706 60.988C50.8706 59.02 51.7586 57.856 53.2706 57.856C54.6146 57.856 55.4186 58.672 55.4186 60.04H55.4426V57.976ZM54.0026 62.86C54.9626 62.86 55.5266 62.092 55.5266 60.988C55.5266 59.872 54.9626 59.104 54.0026 59.104C53.0426 59.104 52.4786 59.812 52.4786 60.988C52.4786 62.164 53.0426 62.86 54.0026 62.86ZM62.8606 54.76H64.4446V64H62.8606V61.924H62.8366C62.8366 63.304 62.0326 64.12 60.6886 64.12C59.1766 64.12 58.2886 62.956 58.2886 60.988C58.2886 59.02 59.1766 57.856 60.6886 57.856C62.0326 57.856 62.8366 58.672 62.8366 60.04H62.8606V54.76ZM61.4206 62.86C62.3806 62.86 62.9446 62.092 62.9446 60.988C62.9446 59.872 62.3806 59.104 61.4206 59.104C60.4606 59.104 59.8966 59.812 59.8966 60.988C59.8966 62.164 60.4606 62.86 61.4206 62.86ZM68.3586 64.12C66.6306 64.12 65.6226 63.352 65.6226 62.044H67.0986C67.0986 62.716 67.5666 63.112 68.3586 63.112C69.1266 63.112 69.5706 62.824 69.5706 62.32C69.5706 61.684 68.8626 61.564 68.0706 61.432C67.0266 61.264 65.7786 61.06 65.7786 59.68C65.7786 58.54 66.7386 57.856 68.3586 57.856C69.9666 57.856 70.9266 58.588 70.9266 59.836H69.4506C69.4506 59.2 69.0546 58.84 68.3586 58.84C67.6986 58.84 67.3026 59.104 67.3026 59.548C67.3026 60.088 67.9626 60.196 68.7306 60.328C69.7986 60.508 71.0946 60.724 71.0946 62.14C71.0946 63.376 70.0746 64.12 68.3586 64.12ZM83.7931 63.136L82.9051 64.12L81.2611 62.68C80.3131 63.616 79.1491 64.12 77.8771 64.12C75.7891 64.12 74.5531 63.124 74.5531 61.504C74.5531 59.656 76.1971 59.092 77.5891 58.624C77.8171 58.54 78.0451 58.468 78.2491 58.384C76.4851 58.372 75.4051 57.784 75.4051 56.86C75.4051 55.684 76.4611 55 78.2851 55C80.0731 55 81.1531 55.756 81.1531 57.124C81.1531 58.54 79.7371 59.092 78.4411 59.608C77.3131 60.052 76.2331 60.46 76.2331 61.504C76.2331 62.296 76.8931 62.8 78.0091 62.8C79.8811 62.8 81.4291 61.18 82.1371 58.444L83.3731 58.864C83.0611 59.956 82.6291 60.892 82.1011 61.66L83.7931 63.136ZM77.0371 57.268C77.0371 57.928 77.5411 58.36 78.3091 58.36C78.9811 58.096 79.4731 57.796 79.4731 57.244C79.4731 56.656 79.0291 56.32 78.2851 56.32C77.5051 56.32 77.0371 56.668 77.0371 57.268ZM32.5521 76.668H36.4521V78H30.8961V69.12H32.5521V76.668ZM37.4538 70.824V69.324H39.0378V70.824H37.4538ZM37.4538 78V71.976H39.0378V78H37.4538ZM44.1702 71.856C45.5022 71.856 46.2822 72.768 46.2822 74.328V78H44.6982V74.4C44.6982 73.584 44.2662 73.104 43.5222 73.104C42.6822 73.104 42.1902 73.716 42.1902 74.736V78H40.6062V71.976H42.1902V74.088H42.2142C42.2142 72.684 42.9462 71.856 44.1702 71.856ZM51.138 74.844L53.97 78H52.026L49.386 74.916H49.362V78H47.778V68.76H49.362V74.808H49.386L51.822 71.976H53.694L51.138 74.844ZM56.9269 78.12C55.1989 78.12 54.1909 77.352 54.1909 76.044H55.6669C55.6669 76.716 56.1349 77.112 56.9269 77.112C57.6949 77.112 58.1389 76.824 58.1389 76.32C58.1389 75.684 57.4309 75.564 56.6389 75.432C55.5949 75.264 54.3469 75.06 54.3469 73.68C54.3469 72.54 55.3069 71.856 56.9269 71.856C58.5349 71.856 59.4949 72.588 59.4949 73.836H58.0189C58.0189 73.2 57.6229 72.84 56.9269 72.84C56.2669 72.84 55.8709 73.104 55.8709 73.548C55.8709 74.088 56.5309 74.196 57.2989 74.328C58.3669 74.508 59.6629 74.724 59.6629 76.14C59.6629 77.376 58.6429 78.12 56.9269 78.12Z" fill="#001A64"/>
</svg>
