<svg width="90" height="90" viewBox="0 0 90 90" fill="none" xmlns="http://www.w3.org/2000/svg">
<rect x="0.5" y="0.5" width="89" height="89" rx="7.5" fill="#FFFFC8"/>
<rect x="0.5" y="0.5" width="89" height="89" rx="7.5" stroke="#F0F0F0"/>
<path d="M42 27H52L48.55 22.5L46.25 25.5L44.7 23.5L42 27ZM41 31C40.45 31 39.9792 30.8042 39.5875 30.4125C39.1958 30.0208 39 29.55 39 29V17C39 16.45 39.1958 15.9792 39.5875 15.5875C39.9792 15.1958 40.45 15 41 15H53C53.55 15 54.0208 15.1958 54.4125 15.5875C54.8042 15.9792 55 16.45 55 17V29C55 29.55 54.8042 30.0208 54.4125 30.4125C54.0208 30.8042 53.55 31 53 31H41ZM41 29H53V17H41V29ZM37 35C36.45 35 35.9792 34.8042 35.5875 34.4125C35.1958 34.0208 35 33.55 35 33V19H37V33H51V35H37Z" fill="#3C57E1"/>
<path d="M28.7575 59.308H32.7295V64H31.1695V60.832H31.1455C31.1455 62.896 30.0175 64.12 28.0975 64.12C26.0575 64.12 24.7975 62.428 24.7975 59.56C24.7975 56.692 26.3215 55 28.9015 55C31.0015 55 32.3935 56.26 32.6575 58.36H31.0735C30.8575 57.088 30.0415 56.32 28.9015 56.32C27.3895 56.32 26.5015 57.532 26.5015 59.56C26.5015 61.588 27.3775 62.8 28.8535 62.8C30.2215 62.8 31.0495 61.912 31.1215 60.424H28.7575V59.308ZM38.427 57.976H40.011V64H38.427V61.924H38.403C38.403 63.304 37.599 64.12 36.255 64.12C34.743 64.12 33.855 62.956 33.855 60.988C33.855 59.02 34.743 57.856 36.255 57.856C37.599 57.856 38.403 58.672 38.403 60.04H38.427V57.976ZM36.987 62.86C37.947 62.86 38.511 62.092 38.511 60.988C38.511 59.872 37.947 59.104 36.987 59.104C36.027 59.104 35.463 59.812 35.463 60.988C35.463 62.164 36.027 62.86 36.987 62.86ZM41.573 64V54.76H43.157V64H41.573ZM44.7253 64V54.76H46.3093V64H44.7253ZM53.4817 60.988V61.168H49.0897C49.1497 62.272 49.6777 62.92 50.5297 62.92C51.2737 62.92 51.7897 62.512 51.9457 61.852H53.4817C53.2657 63.28 52.1617 64.12 50.5297 64.12C48.6577 64.12 47.5537 62.956 47.5537 60.988C47.5537 59.008 48.6577 57.856 50.5297 57.856C52.3777 57.856 53.4817 59.008 53.4817 60.988ZM50.5297 59.044C49.7257 59.044 49.2097 59.62 49.1017 60.628H51.9337C51.8377 59.62 51.3217 59.044 50.5297 59.044ZM58.1417 57.856C58.4897 57.856 58.8257 57.928 59.0657 58.048L58.6097 59.464C58.3697 59.332 58.0697 59.248 57.7697 59.248C56.8457 59.248 56.2937 60.004 56.2937 61.276V64H54.7097V57.976H56.2937V60.46H56.3177C56.3177 58.816 57.0017 57.856 58.1417 57.856ZM63.8019 57.976H65.4939L63.1899 66.76H61.4979L62.2299 64H60.9219L59.3499 57.976H61.0419L62.4099 63.892H62.4339L63.8019 57.976Z" fill="#001A64"/>
</svg>
