<svg width="90" height="90" viewBox="0 0 90 90" fill="none" xmlns="http://www.w3.org/2000/svg">
<rect x="0.5" y="0.5" width="89" height="89" rx="7.5" fill="#FBFCFF"/>
<rect x="0.5" y="0.5" width="89" height="89" rx="7.5" stroke="#F0F0F0"/>
<path fill-rule="evenodd" clip-rule="evenodd" d="M38 22C38 18.13 41.13 15 45 15C48.87 15 52 18.13 52 22C52 27.25 45 35 45 35C45 35 38 27.25 38 22ZM45 17C42.24 17 40 19.24 40 22C40 24.85 42.92 29.21 45 31.88C47.12 29.19 50 24.88 50 22C50 19.24 47.76 17 45 17ZM47.5 22C47.5 23.3807 46.3807 24.5 45 24.5C43.6193 24.5 42.5 23.3807 42.5 22C42.5 20.6193 43.6193 19.5 45 19.5C46.3807 19.5 47.5 20.6193 47.5 22Z" fill="#3C57E1"/>
<path d="M17.818 64V55.12H19.474V64H17.818ZM24.7756 57.856C26.1076 57.856 26.8876 58.768 26.8876 60.328V64H25.3036V60.4C25.3036 59.584 24.8716 59.104 24.1276 59.104C23.2876 59.104 22.7956 59.716 22.7956 60.736V64H21.2116V57.976H22.7956V60.088H22.8196C22.8196 58.684 23.5516 57.856 24.7756 57.856ZM31.3735 55.9C30.6175 55.9 30.2215 56.32 30.2215 57.016V57.976H32.1175V59.068H30.3055V64H28.7215V59.068H27.8095V57.976H30.1615V57.952C29.2015 57.772 28.6375 57.232 28.6375 56.464C28.6375 55.312 29.5135 54.64 30.9895 54.64C31.5055 54.64 32.0215 54.748 32.4295 54.94L32.2255 56.128C31.9855 55.984 31.6855 55.9 31.3735 55.9ZM35.6684 64.12C33.7004 64.12 32.5244 62.956 32.5244 60.988C32.5244 59.02 33.7004 57.856 35.6684 57.856C37.6364 57.856 38.8004 59.02 38.8004 60.988C38.8004 62.956 37.6364 64.12 35.6684 64.12ZM35.6684 62.86C36.6284 62.86 37.1924 62.164 37.1924 60.988C37.1924 59.812 36.6284 59.104 35.6684 59.104C34.7084 59.104 34.1444 59.812 34.1444 60.988C34.1444 62.164 34.7084 62.86 35.6684 62.86ZM48.5975 56.404H44.4935V58.9H47.9735V60.184H44.4935V64H42.8375V55.12H48.5975V56.404ZM49.6648 64V54.76H51.2488V64H49.6648ZM57.0891 57.976H58.6731V64H57.0891V61.924H57.0651C57.0651 63.304 56.2611 64.12 54.9171 64.12C53.4051 64.12 52.5171 62.956 52.5171 60.988C52.5171 59.02 53.4051 57.856 54.9171 57.856C56.2611 57.856 57.0651 58.672 57.0651 60.04H57.0891V57.976ZM55.6491 62.86C56.6091 62.86 57.1731 62.092 57.1731 60.988C57.1731 59.872 56.6091 59.104 55.6491 59.104C54.6891 59.104 54.1251 59.812 54.1251 60.988C54.1251 62.164 54.6891 62.86 55.6491 62.86ZM64.5071 57.976H66.0911V64.072C66.0911 65.836 64.9631 66.88 63.0671 66.88C61.4351 66.88 60.3311 66.076 60.1151 64.72L61.6151 64.492C61.7111 65.2 62.2631 65.62 63.0671 65.62C63.9671 65.62 64.5071 65.08 64.5071 64.168V61.864H64.4831C64.4831 63.232 63.6791 64.048 62.3351 64.048C60.8231 64.048 59.9351 62.896 59.9351 60.952C59.9351 59.008 60.8231 57.856 62.3351 57.856C63.6791 57.856 64.4831 58.672 64.4831 60.04H64.5071V57.976ZM63.0671 62.788C64.0271 62.788 64.5911 62.044 64.5911 60.952C64.5911 59.86 64.0271 59.104 63.0671 59.104C62.1071 59.104 61.5431 59.8 61.5431 60.952C61.5431 62.104 62.1071 62.788 63.0671 62.788ZM70.005 64.12C68.277 64.12 67.269 63.352 67.269 62.044H68.745C68.745 62.716 69.213 63.112 70.005 63.112C70.773 63.112 71.217 62.824 71.217 62.32C71.217 61.684 70.509 61.564 69.717 61.432C68.673 61.264 67.425 61.06 67.425 59.68C67.425 58.54 68.385 57.856 70.005 57.856C71.613 57.856 72.573 58.588 72.573 59.836H71.097C71.097 59.2 70.701 58.84 70.005 58.84C69.345 58.84 68.949 59.104 68.949 59.548C68.949 60.088 69.609 60.196 70.377 60.328C71.445 60.508 72.741 60.724 72.741 62.14C72.741 63.376 71.721 64.12 70.005 64.12Z" fill="#001A64"/>
</svg>
