<svg width="90" height="90" viewBox="0 0 90 90" fill="none" xmlns="http://www.w3.org/2000/svg">
<rect x="0.5" y="0.5" width="89" height="89" rx="7.5" fill="#FFFFC8"/>
<rect x="0.5" y="0.5" width="89" height="89" rx="7.5" stroke="#F0F0F0"/>
<path d="M41.0092 35C40.4592 35 39.9884 34.8042 39.5967 34.4125C39.2051 34.0208 39.0092 33.55 39.0092 33C39.0092 32.45 39.2051 31.9792 39.5967 31.5875C39.9884 31.1958 40.4592 31 41.0092 31C41.5592 31 42.0301 31.1958 42.4217 31.5875C42.8134 31.9792 43.0092 32.45 43.0092 33C43.0092 33.55 42.8134 34.0208 42.4217 34.4125C42.0301 34.8042 41.5592 35 41.0092 35ZM51.0092 35C50.4592 35 49.9884 34.8042 49.5967 34.4125C49.2051 34.0208 49.0092 33.55 49.0092 33C49.0092 32.45 49.2051 31.9792 49.5967 31.5875C49.9884 31.1958 50.4592 31 51.0092 31C51.5592 31 52.0301 31.1958 52.4217 31.5875C52.8134 31.9792 53.0092 32.45 53.0092 33C53.0092 33.55 52.8134 34.0208 52.4217 34.4125C52.0301 34.8042 51.5592 35 51.0092 35ZM40.1592 19L42.5592 24H49.5592L52.3092 19H40.1592ZM39.2092 17H53.9592C54.3426 17 54.6342 17.1708 54.8342 17.5125C55.0342 17.8542 55.0426 18.2 54.8592 18.55L51.3092 24.95C51.1259 25.2833 50.8801 25.5417 50.5717 25.725C50.2634 25.9083 49.9259 26 49.5592 26H42.1092L41.0092 28H53.0092V30H41.0092C40.2592 30 39.6926 29.6708 39.3092 29.0125C38.9259 28.3542 38.9092 27.7 39.2592 27.05L40.6092 24.6L37.0092 17H35.0092V15H38.2592L39.2092 17Z" fill="#3C57E1"/>
<path d="M21.5234 64.12C19.3874 64.12 18.0314 62.932 17.8634 60.892H19.4954C19.6034 62.092 20.3594 62.8 21.5594 62.8C22.7714 62.8 23.4794 62.296 23.4794 61.456C23.4794 60.424 22.4234 60.268 21.2594 60.088C19.7954 59.884 18.1034 59.632 18.1034 57.664C18.1034 55.936 19.3754 55 21.5234 55C23.4794 55 24.7514 56.152 24.9194 58.096H23.2754C23.2034 56.98 22.5194 56.32 21.4394 56.32C20.3954 56.32 19.7834 56.776 19.7834 57.544C19.7834 58.42 20.7674 58.576 21.8714 58.744C23.3714 58.96 25.1594 59.236 25.1594 61.288C25.1594 63.064 23.8154 64.12 21.5234 64.12ZM29.967 57.856C31.299 57.856 32.079 58.768 32.079 60.328V64H30.495V60.4C30.495 59.584 30.063 59.104 29.319 59.104C28.479 59.104 27.987 59.716 27.987 60.736V64H26.403V54.76H27.987V60.088H28.011C28.011 58.684 28.743 57.856 29.967 57.856ZM36.3949 64.12C34.4269 64.12 33.2509 62.956 33.2509 60.988C33.2509 59.02 34.4269 57.856 36.3949 57.856C38.3629 57.856 39.5269 59.02 39.5269 60.988C39.5269 62.956 38.3629 64.12 36.3949 64.12ZM36.3949 62.86C37.3549 62.86 37.9189 62.164 37.9189 60.988C37.9189 59.812 37.3549 59.104 36.3949 59.104C35.4349 59.104 34.8709 59.812 34.8709 60.988C34.8709 62.164 35.4349 62.86 36.3949 62.86ZM44.5145 57.856C46.0265 57.856 46.9265 59.02 46.9265 60.988C46.9265 62.956 46.0265 64.12 44.5145 64.12C43.1705 64.12 42.3665 63.304 42.3665 61.924H42.3425V66.76H40.7585V57.976H42.3425V60.04H42.3665C42.3665 58.672 43.1705 57.856 44.5145 57.856ZM43.7825 62.86C44.7425 62.86 45.3065 62.164 45.3065 60.988C45.3065 59.812 44.7425 59.116 43.7825 59.116C42.8225 59.116 42.2585 59.872 42.2585 60.988C42.2585 62.092 42.8225 62.86 43.7825 62.86ZM51.9325 57.856C53.4445 57.856 54.3445 59.02 54.3445 60.988C54.3445 62.956 53.4445 64.12 51.9325 64.12C50.5885 64.12 49.7845 63.304 49.7845 61.924H49.7605V66.76H48.1765V57.976H49.7605V60.04H49.7845C49.7845 58.672 50.5885 57.856 51.9325 57.856ZM51.2005 62.86C52.1605 62.86 52.7245 62.164 52.7245 60.988C52.7245 59.812 52.1605 59.116 51.2005 59.116C50.2405 59.116 49.6765 59.872 49.6765 60.988C49.6765 62.092 50.2405 62.86 51.2005 62.86ZM55.5945 56.824V55.324H57.1785V56.824H55.5945ZM55.5945 64V57.976H57.1785V64H55.5945ZM62.3108 57.856C63.6428 57.856 64.4228 58.768 64.4228 60.328V64H62.8388V60.4C62.8388 59.584 62.4068 59.104 61.6628 59.104C60.8228 59.104 60.3308 59.716 60.3308 60.736V64H58.7468V57.976H60.3308V60.088H60.3548C60.3548 58.684 61.0868 57.856 62.3108 57.856ZM70.1907 57.976H71.7747V64.072C71.7747 65.836 70.6467 66.88 68.7507 66.88C67.1187 66.88 66.0147 66.076 65.7987 64.72L67.2987 64.492C67.3947 65.2 67.9467 65.62 68.7507 65.62C69.6507 65.62 70.1907 65.08 70.1907 64.168V61.864H70.1667C70.1667 63.232 69.3627 64.048 68.0187 64.048C66.5067 64.048 65.6187 62.896 65.6187 60.952C65.6187 59.008 66.5067 57.856 68.0187 57.856C69.3627 57.856 70.1667 58.672 70.1667 60.04H70.1907V57.976ZM68.7507 62.788C69.7107 62.788 70.2747 62.044 70.2747 60.952C70.2747 59.86 69.7107 59.104 68.7507 59.104C67.7907 59.104 67.2267 59.8 67.2267 60.952C67.2267 62.104 67.7907 62.788 68.7507 62.788ZM40.3227 74.604C40.0347 76.8 38.6187 78.12 36.4947 78.12C33.9267 78.12 32.4027 76.428 32.4027 73.56C32.4027 70.692 33.9267 69 36.4947 69C38.6187 69 40.0347 70.296 40.3227 72.48H38.7387C38.4987 71.124 37.6707 70.32 36.4947 70.32C35.0067 70.32 34.1187 71.532 34.1187 73.56C34.1187 75.588 35.0067 76.8 36.4947 76.8C37.6827 76.8 38.4987 75.984 38.7387 74.604H40.3227ZM45.7747 71.976H47.3587V78H45.7747V75.924H45.7507C45.7507 77.304 44.9467 78.12 43.6027 78.12C42.0907 78.12 41.2027 76.956 41.2027 74.988C41.2027 73.02 42.0907 71.856 43.6027 71.856C44.9467 71.856 45.7507 72.672 45.7507 74.04H45.7747V71.976ZM44.3347 76.86C45.2947 76.86 45.8587 76.092 45.8587 74.988C45.8587 73.872 45.2947 73.104 44.3347 73.104C43.3747 73.104 42.8107 73.812 42.8107 74.988C42.8107 76.164 43.3747 76.86 44.3347 76.86ZM52.3526 71.856C52.7006 71.856 53.0366 71.928 53.2766 72.048L52.8206 73.464C52.5806 73.332 52.2806 73.248 51.9806 73.248C51.0566 73.248 50.5046 74.004 50.5046 75.276V78H48.9206V71.976H50.5046V74.46H50.5286C50.5286 72.816 51.2126 71.856 52.3526 71.856ZM57.8689 73.068H55.9969V75.972C55.9969 76.536 56.3569 76.86 56.9569 76.86C57.2449 76.86 57.5449 76.788 57.7609 76.668V77.844C57.4009 78.012 56.9089 78.12 56.4529 78.12C55.1689 78.12 54.4129 77.4 54.4129 76.176V73.068H53.5489V71.976H54.5089V69.96H56.0929V70.464C56.0929 71.232 55.5169 71.772 54.5569 71.952V71.976H57.8689V73.068Z" fill="#001A64"/>
</svg>
