<svg width="90" height="90" viewBox="0 0 90 90" fill="none" xmlns="http://www.w3.org/2000/svg">
<rect x="0.5" y="0.5" width="89" height="89" rx="7.5" fill="#FBFCFF"/>
<rect x="0.5" y="0.5" width="89" height="89" rx="7.5" stroke="#F0F0F0"/>
<path d="M43 36V34H38C37.45 34 36.9792 33.8042 36.5875 33.4125C36.1958 33.0208 36 32.55 36 32V18C36 17.45 36.1958 16.9792 36.5875 16.5875C36.9792 16.1958 37.45 16 38 16H43V14H45V36H43ZM38 31H43V25L38 31ZM47 34V25L52 31V18H47V16H52C52.55 16 53.0208 16.1958 53.4125 16.5875C53.8042 16.9792 54 17.45 54 18V32C54 32.55 53.8042 33.0208 53.4125 33.4125C53.0208 33.8042 52.55 34 52 34H47Z" fill="#3C57E1"/>
<path d="M18.8442 64L18.2322 61.852H14.4402L13.8282 64H12.1722L14.9322 55.12H17.8602L20.6082 64H18.8442ZM14.8122 60.568H17.8722L16.3602 55.264H16.3362L14.8122 60.568ZM24.8292 54.4L25.3812 54.604L21.5412 65.68L20.9772 65.476L24.8292 54.4ZM30.5779 58.9C32.5099 58.9 33.6499 59.812 33.6499 61.372C33.6499 63.028 32.4499 64 30.4099 64H26.6539V55.12H30.5059C32.0779 55.12 33.0019 55.84 33.0019 57.064C33.0019 58.192 32.0299 58.876 30.3979 58.876V58.9H30.5779ZM31.2859 57.64C31.2859 56.872 30.7939 56.404 29.9659 56.404H28.3099V58.876H29.9659C30.7939 58.876 31.2859 58.408 31.2859 57.64ZM30.4939 62.716C31.3939 62.716 31.9339 62.212 31.9339 61.372C31.9339 60.532 31.3939 60.028 30.4939 60.028H28.3099V62.716H30.4939ZM43.39 55.12V56.404H40.798V64H39.142V56.404H36.538V55.12H43.39ZM48.6828 60.988V61.168H44.2908C44.3508 62.272 44.8788 62.92 45.7308 62.92C46.4748 62.92 46.9908 62.512 47.1468 61.852H48.6828C48.4668 63.28 47.3628 64.12 45.7308 64.12C43.8588 64.12 42.7548 62.956 42.7548 60.988C42.7548 59.008 43.8588 57.856 45.7308 57.856C47.5788 57.856 48.6828 59.008 48.6828 60.988ZM45.7308 59.044C44.9268 59.044 44.4108 59.62 44.3028 60.628H47.1348C47.0388 59.62 46.5228 59.044 45.7308 59.044ZM52.2629 64.12C50.5349 64.12 49.5269 63.352 49.5269 62.044H51.0029C51.0029 62.716 51.4709 63.112 52.2629 63.112C53.0309 63.112 53.4749 62.824 53.4749 62.32C53.4749 61.684 52.7669 61.564 51.9749 61.432C50.9309 61.264 49.6829 61.06 49.6829 59.68C49.6829 58.54 50.6429 57.856 52.2629 57.856C53.8709 57.856 54.8309 58.588 54.8309 59.836H53.3549C53.3549 59.2 52.9589 58.84 52.2629 58.84C51.6029 58.84 51.2069 59.104 51.2069 59.548C51.2069 60.088 51.8669 60.196 52.6349 60.328C53.7029 60.508 54.9989 60.724 54.9989 62.14C54.9989 63.376 53.9789 64.12 52.2629 64.12ZM59.9372 59.068H58.0652V61.972C58.0652 62.536 58.4252 62.86 59.0252 62.86C59.3132 62.86 59.6132 62.788 59.8292 62.668V63.844C59.4692 64.012 58.9772 64.12 58.5212 64.12C57.2372 64.12 56.4812 63.4 56.4812 62.176V59.068H55.6172V57.976H56.5772V55.96H58.1612V56.464C58.1612 57.232 57.5852 57.772 56.6252 57.952V57.976H59.9372V59.068ZM60.9616 56.824V55.324H62.5456V56.824H60.9616ZM60.9616 64V57.976H62.5456V64H60.9616ZM67.678 57.856C69.01 57.856 69.79 58.768 69.79 60.328V64H68.206V60.4C68.206 59.584 67.774 59.104 67.03 59.104C66.19 59.104 65.698 59.716 65.698 60.736V64H64.114V57.976H65.698V60.088H65.722C65.722 58.684 66.454 57.856 67.678 57.856ZM75.5579 57.976H77.1419V64.072C77.1419 65.836 76.0139 66.88 74.1179 66.88C72.4859 66.88 71.3819 66.076 71.1659 64.72L72.6659 64.492C72.7619 65.2 73.3139 65.62 74.1179 65.62C75.0179 65.62 75.5579 65.08 75.5579 64.168V61.864H75.5339C75.5339 63.232 74.7299 64.048 73.3859 64.048C71.8739 64.048 70.9859 62.896 70.9859 60.952C70.9859 59.008 71.8739 57.856 73.3859 57.856C74.7299 57.856 75.5339 58.672 75.5339 60.04H75.5579V57.976ZM74.1179 62.788C75.0779 62.788 75.6419 62.044 75.6419 60.952C75.6419 59.86 75.0779 59.104 74.1179 59.104C73.1579 59.104 72.5939 59.8 72.5939 60.952C72.5939 62.104 73.1579 62.788 74.1179 62.788Z" fill="#001A64"/>
</svg>
