<svg width="90" height="90" viewBox="0 0 90 90" fill="none" xmlns="http://www.w3.org/2000/svg">
<rect x="0.5" y="0.5" width="89" height="89" rx="7.5" fill="#FCFCFC"/>
<rect x="0.5" y="0.5" width="89" height="89" rx="7.5" stroke="#F0F0F0"/>
<path d="M39 35C38.1667 35 37.4583 34.7083 36.875 34.125C36.2917 33.5417 36 32.8333 36 32V29H39V15H54V24.1C53.6667 24.0167 53.3292 23.9917 52.9875 24.025C52.6458 24.0583 52.3167 24.1417 52 24.275V17H41V29H47L45 31H38V32C38 32.2833 38.0958 32.5208 38.2875 32.7125C38.4792 32.9042 38.7167 33 39 33H45V35H39ZM47 35V31.825L51.3 27.525L52.375 28.6L48.5 32.45V33.5H49.55L53.425 29.65L54.475 30.7L50.175 35H47ZM54.475 30.7L51.3 27.525L52.55 26.275C52.7333 26.0917 52.9667 26 53.25 26C53.5333 26 53.7667 26.0917 53.95 26.275L55.725 28.05C55.9083 28.2333 56 28.4667 56 28.75C56 29.0333 55.9083 29.2667 55.725 29.45L54.475 30.7ZM42 22V20H51V22H42ZM42 25V23H51V25H42Z" fill="#3C57E1"/>
<path d="M21.1694 55.12H22.8254L21.1454 64H18.1694L16.8014 55.264H16.7774L15.4094 64H12.4334L10.7654 55.12H12.5174L14.0294 63.856H14.0534L15.4814 55.12H18.1814L19.6214 63.856H19.6454L21.1694 55.12ZM27.9153 57.976H29.4993V64H27.9153V61.924H27.8913C27.8913 63.304 27.0873 64.12 25.7433 64.12C24.2313 64.12 23.3433 62.956 23.3433 60.988C23.3433 59.02 24.2313 57.856 25.7433 57.856C27.0873 57.856 27.8913 58.672 27.8913 60.04H27.9153V57.976ZM26.4753 62.86C27.4353 62.86 27.9993 62.092 27.9993 60.988C27.9993 59.872 27.4353 59.104 26.4753 59.104C25.5153 59.104 24.9513 59.812 24.9513 60.988C24.9513 62.164 25.5153 62.86 26.4753 62.86ZM31.0613 56.824V55.324H32.6453V56.824H31.0613ZM31.0613 64V57.976H32.6453V64H31.0613ZM38.0056 59.068H36.1336V61.972C36.1336 62.536 36.4936 62.86 37.0936 62.86C37.3816 62.86 37.6816 62.788 37.8976 62.668V63.844C37.5376 64.012 37.0456 64.12 36.5896 64.12C35.3056 64.12 34.5496 63.4 34.5496 62.176V59.068H33.6856V57.976H34.6456V55.96H36.2296V56.464C36.2296 57.232 35.6536 57.772 34.6936 57.952V57.976H38.0056V59.068ZM39.03 56.824V55.324H40.614V56.824H39.03ZM39.03 64V57.976H40.614V64H39.03ZM45.7463 57.856C47.0783 57.856 47.8583 58.768 47.8583 60.328V64H46.2743V60.4C46.2743 59.584 45.8423 59.104 45.0983 59.104C44.2583 59.104 43.7663 59.716 43.7663 60.736V64H42.1823V57.976H43.7663V60.088H43.7903C43.7903 58.684 44.5223 57.856 45.7463 57.856ZM53.6262 57.976H55.2102V64.072C55.2102 65.836 54.0822 66.88 52.1862 66.88C50.5542 66.88 49.4502 66.076 49.2342 64.72L50.7342 64.492C50.8302 65.2 51.3822 65.62 52.1862 65.62C53.0862 65.62 53.6262 65.08 53.6262 64.168V61.864H53.6022C53.6022 63.232 52.7982 64.048 51.4542 64.048C49.9422 64.048 49.0542 62.896 49.0542 60.952C49.0542 59.008 49.9422 57.856 51.4542 57.856C52.7982 57.856 53.6022 58.672 53.6022 60.04H53.6262V57.976ZM52.1862 62.788C53.1462 62.788 53.7102 62.044 53.7102 60.952C53.7102 59.86 53.1462 59.104 52.1862 59.104C51.2262 59.104 50.6622 59.8 50.6622 60.952C50.6622 62.104 51.2262 62.788 52.1862 62.788ZM61.2338 62.668H65.1338V64H59.5778V55.12H61.2338V62.668ZM66.1355 56.824V55.324H67.7195V56.824H66.1355ZM66.1355 64V57.976H67.7195V64H66.1355ZM71.6398 64.12C69.9118 64.12 68.9038 63.352 68.9038 62.044H70.3798C70.3798 62.716 70.8478 63.112 71.6398 63.112C72.4078 63.112 72.8518 62.824 72.8518 62.32C72.8518 61.684 72.1438 61.564 71.3518 61.432C70.3078 61.264 69.0598 61.06 69.0598 59.68C69.0598 58.54 70.0198 57.856 71.6398 57.856C73.2478 57.856 74.2078 58.588 74.2078 59.836H72.7318C72.7318 59.2 72.3358 58.84 71.6398 58.84C70.9798 58.84 70.5838 59.104 70.5838 59.548C70.5838 60.088 71.2438 60.196 72.0118 60.328C73.0798 60.508 74.3758 60.724 74.3758 62.14C74.3758 63.376 73.3558 64.12 71.6398 64.12ZM79.3142 59.068H77.4422V61.972C77.4422 62.536 77.8022 62.86 78.4022 62.86C78.6902 62.86 78.9902 62.788 79.2062 62.668V63.844C78.8462 64.012 78.3542 64.12 77.8982 64.12C76.6142 64.12 75.8582 63.4 75.8582 62.176V59.068H74.9942V57.976H75.9542V55.96H77.5382V56.464C77.5382 57.232 76.9622 57.772 76.0022 57.952V57.976H79.3142V59.068Z" fill="#AAAAAA"/>
</svg>
