<svg width="90" height="90" viewBox="0 0 90 90" fill="none" xmlns="http://www.w3.org/2000/svg">
<rect x="0.5" y="0.5" width="89" height="89" rx="7.5" fill="#FFFFC8"/>
<rect x="0.5" y="0.5" width="89" height="89" rx="7.5" stroke="#F0F0F0"/>
<path d="M40 30V20H50V30H40ZM42 28H48V22H42V28ZM38 34C37.45 34 36.9792 33.8042 36.5875 33.4125C36.1958 33.0208 36 32.55 36 32H38V34ZM36 18C36 17.45 36.1958 16.9792 36.5875 16.5875C36.9792 16.1958 37.45 16 38 16V18H36ZM40 34V32H42V34H40ZM40 18V16H42V18H40ZM44 34V32H46V34H44ZM44 18V16H46V18H44ZM48 34V32H50V34H48ZM48 18V16H50V18H48ZM52 34V32H54C54 32.55 53.8042 33.0208 53.4125 33.4125C53.0208 33.8042 52.55 34 52 34ZM52 18V16C52.55 16 53.0208 16.1958 53.4125 16.5875C53.8042 16.9792 54 17.45 54 18H52ZM36 30V28H38V30H36ZM36 26V24H38V26H36ZM36 22V20H38V22H36ZM52 30V28H54V30H52ZM52 26V24H54V26H52ZM52 22V20H54V22H52Z" fill="#3C57E1"/>
<path d="M33.8182 58.9C35.7502 58.9 36.8902 59.812 36.8902 61.372C36.8902 63.028 35.6902 64 33.6502 64H29.8942V55.12H33.7462C35.3182 55.12 36.2422 55.84 36.2422 57.064C36.2422 58.192 35.2702 58.876 33.6382 58.876V58.9H33.8182ZM34.5262 57.64C34.5262 56.872 34.0342 56.404 33.2062 56.404H31.5502V58.876H33.2062C34.0342 58.876 34.5262 58.408 34.5262 57.64ZM33.7342 62.716C34.6342 62.716 35.1742 62.212 35.1742 61.372C35.1742 60.532 34.6342 60.028 33.7342 60.028H31.5502V62.716H33.7342ZM42.3762 57.976H43.9602V64H42.3762V61.924H42.3522C42.3522 63.304 41.5482 64.12 40.2042 64.12C38.6922 64.12 37.8042 62.956 37.8042 60.988C37.8042 59.02 38.6922 57.856 40.2042 57.856C41.5482 57.856 42.3522 58.672 42.3522 60.04H42.3762V57.976ZM40.9362 62.86C41.8962 62.86 42.4602 62.092 42.4602 60.988C42.4602 59.872 41.8962 59.104 40.9362 59.104C39.9762 59.104 39.4122 59.812 39.4122 60.988C39.4122 62.164 39.9762 62.86 40.9362 62.86ZM47.8742 64.12C46.1462 64.12 45.1382 63.352 45.1382 62.044H46.6142C46.6142 62.716 47.0822 63.112 47.8742 63.112C48.6422 63.112 49.0862 62.824 49.0862 62.32C49.0862 61.684 48.3782 61.564 47.5862 61.432C46.5422 61.264 45.2942 61.06 45.2942 59.68C45.2942 58.54 46.2542 57.856 47.8742 57.856C49.4822 57.856 50.4422 58.588 50.4422 59.836H48.9662C48.9662 59.2 48.5702 58.84 47.8742 58.84C47.2142 58.84 46.8182 59.104 46.8182 59.548C46.8182 60.088 47.4782 60.196 48.2462 60.328C49.3142 60.508 50.6102 60.724 50.6102 62.14C50.6102 63.376 49.5902 64.12 47.8742 64.12ZM51.8152 56.824V55.324H53.3992V56.824H51.8152ZM51.8152 64V57.976H53.3992V64H51.8152ZM57.7515 64.12C55.8075 64.12 54.6435 62.956 54.6435 60.988C54.6435 59.02 55.8075 57.856 57.7515 57.856C59.3955 57.856 60.4635 58.72 60.7035 60.208H59.1435C58.9395 59.512 58.4595 59.104 57.7515 59.104C56.8155 59.104 56.2635 59.812 56.2635 60.988C56.2635 62.164 56.8155 62.86 57.7515 62.86C58.4955 62.86 58.9875 62.428 59.1675 61.684H60.7275C60.4995 63.232 59.4315 64.12 57.7515 64.12ZM15.6137 74.604C15.3257 76.8 13.9097 78.12 11.7857 78.12C9.21773 78.12 7.69373 76.428 7.69373 73.56C7.69373 70.692 9.21773 69 11.7857 69C13.9097 69 15.3257 70.296 15.6137 72.48H14.0297C13.7897 71.124 12.9617 70.32 11.7857 70.32C10.2977 70.32 9.40973 71.532 9.40973 73.56C9.40973 75.588 10.2977 76.8 11.7857 76.8C12.9737 76.8 13.7897 75.984 14.0297 74.604H15.6137ZM19.6137 78.12C17.6457 78.12 16.4697 76.956 16.4697 74.988C16.4697 73.02 17.6457 71.856 19.6137 71.856C21.5817 71.856 22.7457 73.02 22.7457 74.988C22.7457 76.956 21.5817 78.12 19.6137 78.12ZM19.6137 76.86C20.5737 76.86 21.1377 76.164 21.1377 74.988C21.1377 73.812 20.5737 73.104 19.6137 73.104C18.6537 73.104 18.0897 73.812 18.0897 74.988C18.0897 76.164 18.6537 76.86 19.6137 76.86ZM27.5413 71.856C28.8733 71.856 29.6533 72.768 29.6533 74.328V78H28.0693V74.4C28.0693 73.584 27.6373 73.104 26.8933 73.104C26.0533 73.104 25.5613 73.716 25.5613 74.736V78H23.9773V71.976H25.5613V74.088H25.5853C25.5853 72.684 26.3173 71.856 27.5413 71.856ZM33.5011 78.12C31.7731 78.12 30.7651 77.352 30.7651 76.044H32.2411C32.2411 76.716 32.7091 77.112 33.5011 77.112C34.2691 77.112 34.7131 76.824 34.7131 76.32C34.7131 75.684 34.0051 75.564 33.2131 75.432C32.1691 75.264 30.9211 75.06 30.9211 73.68C30.9211 72.54 31.8811 71.856 33.5011 71.856C35.1091 71.856 36.0691 72.588 36.0691 73.836H34.5931C34.5931 73.2 34.1971 72.84 33.5011 72.84C32.8411 72.84 32.4451 73.104 32.4451 73.548C32.4451 74.088 33.1051 74.196 33.8731 74.328C34.9411 74.508 36.2371 74.724 36.2371 76.14C36.2371 77.376 35.2171 78.12 33.5011 78.12ZM41.1755 73.068H39.3035V75.972C39.3035 76.536 39.6635 76.86 40.2635 76.86C40.5515 76.86 40.8515 76.788 41.0675 76.668V77.844C40.7075 78.012 40.2155 78.12 39.7595 78.12C38.4755 78.12 37.7195 77.4 37.7195 76.176V73.068H36.8555V71.976H37.8155V69.96H39.3995V70.464C39.3995 71.232 38.8235 71.772 37.8635 71.952V71.976H41.1755V73.068ZM45.6319 71.856C45.9799 71.856 46.3159 71.928 46.5559 72.048L46.0999 73.464C45.8599 73.332 45.5599 73.248 45.2599 73.248C44.3359 73.248 43.7839 74.004 43.7839 75.276V78H42.1999V71.976H43.7839V74.46H43.8079C43.8079 72.816 44.4919 71.856 45.6319 71.856ZM51.2682 71.976H52.8522V78H51.2682V75.876H51.2442C51.2442 77.28 50.5482 78.12 49.3602 78.12C48.0642 78.12 47.2962 77.196 47.2962 75.648V71.976H48.8802V75.576C48.8802 76.392 49.3002 76.86 50.0082 76.86C50.8002 76.86 51.2682 76.26 51.2682 75.228V71.976ZM57.1949 78.12C55.2509 78.12 54.0869 76.956 54.0869 74.988C54.0869 73.02 55.2509 71.856 57.1949 71.856C58.8389 71.856 59.9069 72.72 60.1469 74.208H58.5869C58.3829 73.512 57.9029 73.104 57.1949 73.104C56.2589 73.104 55.7069 73.812 55.7069 74.988C55.7069 76.164 56.2589 76.86 57.1949 76.86C57.9389 76.86 58.4309 76.428 58.6109 75.684H60.1709C59.9429 77.232 58.8749 78.12 57.1949 78.12ZM65.07 73.068H63.198V75.972C63.198 76.536 63.558 76.86 64.158 76.86C64.446 76.86 64.746 76.788 64.962 76.668V77.844C64.602 78.012 64.11 78.12 63.654 78.12C62.37 78.12 61.614 77.4 61.614 76.176V73.068H60.75V71.976H61.71V69.96H63.294V70.464C63.294 71.232 62.718 71.772 61.758 71.952V71.976H65.07V73.068ZM66.0945 70.824V69.324H67.6785V70.824H66.0945ZM66.0945 78V71.976H67.6785V78H66.0945ZM72.0668 78.12C70.0988 78.12 68.9228 76.956 68.9228 74.988C68.9228 73.02 70.0988 71.856 72.0668 71.856C74.0348 71.856 75.1988 73.02 75.1988 74.988C75.1988 76.956 74.0348 78.12 72.0668 78.12ZM72.0668 76.86C73.0268 76.86 73.5908 76.164 73.5908 74.988C73.5908 73.812 73.0268 73.104 72.0668 73.104C71.1068 73.104 70.5428 73.812 70.5428 74.988C70.5428 76.164 71.1068 76.86 72.0668 76.86ZM79.9944 71.856C81.3264 71.856 82.1064 72.768 82.1064 74.328V78H80.5224V74.4C80.5224 73.584 80.0904 73.104 79.3464 73.104C78.5064 73.104 78.0144 73.716 78.0144 74.736V78H76.4304V71.976H78.0144V74.088H78.0384C78.0384 72.684 78.7704 71.856 79.9944 71.856Z" fill="#001A64"/>
</svg>
